<?xml version="1.0" encoding="utf-8"?>
<!-- Generator: Adobe Adobe Illustrator 24.2.0, SVG Export Plug-In . SVG Version: 6.00 Build 0)  -->
<svg version="1.1" id="Layer_1" xmlns="http://www.w3.org/2000/svg" xmlns:xlink="http://www.w3.org/1999/xlink" x="0px" y="0px"
	 width="500px" height="500px" viewBox="0 0 500 500" style="enable-background:new 0 0 500 500;" xml:space="preserve">
<style type="text/css">
	.st0{fill:#5DC6F1;}
	.st1{fill:#1E9DD9;}
	.st2{fill:#323082;}
	.st3{fill:none;}
</style>
<path id="XMLID_46_" class="st0" d="M324.37,344.7c0,0-11.91-31.13-11.98-31.37c5.9-2.48,11.64-4.89,17.54-7.37
	c2.95-1.24,5.9-2.49,8.87-3.68c0.85-0.34,0.94-0.72,0.59-1.6c-2.87-7.26-5.68-14.54-8.52-21.8c-0.16-0.41-0.28-0.77-0.18-1.22
	c1.3-6.15,2.59-12.3,3.92-18.62c2.49,2.49,4.89,4.88,7.28,7.28c7.89,7.92,15.78,15.83,23.66,23.75c0.47,0.48,0.86,0.69,1.6,0.38
	c10.24-4.3,20.49-8.55,30.74-12.81c0.26-0.11,0.53-0.2,0.74-0.54c-3.28-3.1-6.57-6.2-9.86-9.31c-7.99-7.55-15.98-15.1-23.96-22.64
	c-6.92-6.54-13.83-13.09-20.77-19.6c-0.61-0.58-0.76-1.07-0.59-1.88c3.09-15.03,6.15-30.06,9.19-45.1c0.16-0.77,0.52-1.12,1.19-1.4
	c9.58-3.97,19.16-7.97,28.72-12c0.93-0.39,1.21,0.03,1.51,0.8c3.32,8.55,6.65,17.09,9.98,25.64c3.55,9.1,7.1,18.2,10.64,27.3
	c5.44,13.99,10.87,27.99,16.31,41.98c3.5,8.98,7.04,17.95,10.54,26.93c4.61,11.84,9.2,23.7,13.82,35.54
	c0.32,0.82,0.28,1.2-0.61,1.25c-0.2,0.01-0.4,0.06-0.6,0.1c-39.44,6.6-78.89,13.2-118.33,19.79
	C325.34,344.57,324.85,344.63,324.37,344.7z"/>
<path id="XMLID_45_" class="st1" d="M389.67,159.8c2.92-1.23,5.68-2.4,8.45-3.56c7.46-3.13,14.94-6.23,22.39-9.39
	c0.92-0.39,1.52-0.37,2.32,0.38c9.43,8.84,18.9,17.64,28.36,26.44c0.24,0.22,0.49,0.43,0.95,0.82c0.14-2.27,0.27-4.32,0.39-6.38
	c0.63-11.42,1.27-22.83,1.88-34.25c0.05-0.85,0.28-1.33,1.1-1.67c7.85-3.25,15.68-6.54,23.5-9.87c1.09-0.46,1.13-0.15,1.05,0.9
	c-1.61,20.02-3.19,40.04-4.77,60.07c-0.29,3.7-0.55,7.4-0.92,11.09c-0.15,1.48,0.22,2.78,0.73,4.1
	c5.48,14.08,10.93,28.17,16.43,42.24c0.34,0.87,0.07,1.08-0.61,1.36c-8.92,3.71-17.84,7.44-26.74,11.2
	c-0.74,0.31-0.93,0.09-1.2-0.61c-3.82-9.92-7.68-19.82-11.52-29.73c-1.77-4.58-3.55-9.15-5.3-13.74c-0.28-0.74-0.73-1.29-1.32-1.8
	c-12.26-10.56-24.51-21.15-36.76-31.73c-5.43-4.69-10.87-9.37-16.31-14.05C391.1,161.07,390.45,160.49,389.67,159.8z"/>
<path id="XMLID_44_" class="st0" d="M317.03,240.83c-1.36-3.48-2.73-6.96-4.09-10.44c-3.4-8.78-6.8-17.57-10.2-26.36
	c-0.43-1.11-0.77-2.27-1.3-3.33c-0.5-1.01-0.19-1.42,0.69-1.79c4.54-1.87,9.06-3.77,13.59-5.67c3.38-1.42,6.75-2.84,10.12-4.26
	c0.33-0.14,0.67-0.22,1.13-0.36c-3.25,17.49-6.48,34.84-9.7,52.2C317.19,240.83,317.11,240.83,317.03,240.83z"/>
<path id="XMLID_40_" class="st2" d="M264.99,285.88c0.48,2.63,0.76,5.26,0.41,7.91c-0.75,5.58-3.89,8.93-8.77,10.6
	c-5.31,1.82-9.6-0.36-13.35-4.34c-3.73-3.95-6.25-8.76-8.47-13.75c-2.9-6.52-5.32-13.21-6.7-20.26c-0.88-4.52-1.27-9.08,0.13-13.54
	c2.68-8.55,12.5-11.42,19.16-5.61c3.95,3.45,6.59,7.93,8.79,12.71C260.06,268.03,263.15,276.74,264.99,285.88z"/>
<path id="XMLID_39_" class="st2" d="M191.57,316.66c0.48,2.67,0.77,5.34,0.39,8.04c-0.76,5.54-3.9,8.83-8.73,10.5
	c-5.3,1.83-9.61-0.33-13.36-4.3c-3.77-3.98-6.32-8.82-8.53-13.86c-3.22-7.36-5.99-14.88-7.1-22.93c-0.51-3.71-0.5-7.4,0.61-11
	c2.2-7.19,11.76-11.78,19.01-5.5c4,3.47,6.67,7.97,8.9,12.79C186.63,298.81,189.72,307.52,191.57,316.66z"/>
<path id="XMLID_37_" class="st2" d="M155.44,155.29c7.45,2.62,12.94,7.61,15.98,15.37c3.75,9.59,1.54,19.28-5.77,25.94
	c-0.42,0.38-0.84,0.75-1.46,1.3c1.89-0.11,3.54-0.27,5.19-0.28c5.38-0.03,10.4,1.25,14.68,5.07c3.54,3.16,5.71,7.26,7.19,11.79
	c2.17,6.64,2.19,13.28,0.23,19.89c-0.81,2.75-2.76,5.93-4.6,7.26c1.1-2.26,1.67-4.44,2.04-6.68c1.69-10.23-0.28-19.65-6.46-27.94
	c-4.35-5.84-10.36-8.04-17.11-8.21c-1.63-0.04-3.26,0-5.23,0.29c1.78-1.62,3.29-3.02,4.56-4.68c3.35-4.36,4.82-9.44,4.54-15.04
	c-0.5-9.91-4.96-17.49-12.76-22.97c-0.41-0.29-0.82-0.56-1.22-0.85C155.06,155.44,155.17,155.21,155.44,155.29z"/>
<path id="XMLID_35_" class="st2" d="M254.63,218.52c6.21-2.6,12.07-5.04,17.91-7.52c0.88-0.37,0.84,0.39,1,0.8
	c1.92,4.92,3.8,9.85,5.71,14.77c1.79,4.6,3.59,9.2,5.38,13.8c0.12,0.31,0.17,0.65,0.2,1.01C277.56,229.78,267.74,222,254.63,218.52z
	"/>
<path id="XMLID_34_" class="st2" d="M181.11,249.32c7.38-3.09,14.43-6.04,21.72-9.1c-1.56,2.65-2.82,5.18-3.82,7.85
	c-0.99,2.63-1.72,5.35-2.36,8.25C191.89,253.09,186.84,250.78,181.11,249.32z"/>
<g>
	<path class="st3" d="M120.6,188c-0.27-0.69-0.25-1.06,0.47-1.35C120.34,186.92,120.33,187.31,120.6,188z"/>
	<path class="st0" d="M142.04,188.29c-0.21-3.39-1.49-6.3-4.52-8.01c-5.62,2.18-10.91,4.26-16.46,6.37
		c-0.71,0.3-0.74,0.67-0.47,1.35c1.61,4.07,3.18,8.16,4.76,12.24c0.15,0.39,0.26,0.81,0.39,1.21c0,0,0,0,0,0
		c0.96-0.4,1.93-0.79,2.89-1.2c0,0,6.66-2.35,9.7-4.23C141.09,194.31,142.25,191.57,142.04,188.29z"/>
	<path class="st2" d="M125.36,200.24c-1.58-4.08-3.15-8.17-4.76-12.24c-0.27-0.69-0.26-1.08,0.47-1.35
		c5.54-2.11,10.84-4.19,16.46-6.37c-2.16-1.16-4.39-1.08-6.58-0.37c-4.97,1.61-9.71,3.84-14.6,5.68c-0.61,0.23-0.58,0.51-0.35,1.05
		c0.41,0.98,0.75,1.99,1.12,2.99c1.53,4.12,3.07,8.23,4.58,12.35c0.25,0.69,0.47,1.04,1.25,0.6l2.79-1.12c0,0,0,0,0,0
		C125.61,201.05,125.51,200.63,125.36,200.24z"/>
</g>
<g>
	<path class="st0" d="M157.21,222.76c-2.64-4.41-6.34-5.55-10.4-4.54c-1.68,0.42-3.21,1.06-4.87,1.76c0,0-6.98,2.83-7.49,3.02
		c0.5,1.58,4.6,12.38,6.1,16.46c0.34,0.92,0.65,0.9,1.38,0.6c4.34-1.8,8.59-3.56,12.89-5.41c0.29-0.12,0.83-0.27,1.13-0.36
		C158.76,231.48,159.37,226.38,157.21,222.76z"/>
	<path class="st2" d="M154.82,234.65c-4.3,1.85-8.55,3.61-12.89,5.41c-0.73,0.3-1.04,0.32-1.38-0.6c-1.5-4.07-5.61-14.87-6.1-16.46
		c-1.17,0.43-2.23,0.84-3.39,1.2c-0.79,0.25-0.82,0.68-0.55,1.4c2.07,5.5,4.12,11.01,6.17,16.52c0.23,0.61,0.4,0.86,1.12,0.56
		c3.97-1.65,7.98-3.18,11.96-4.81c2.14-0.88,4.59-1.71,6.2-3.6C155.65,234.38,155.11,234.53,154.82,234.65z"/>
</g>
<path class="st2" d="M311.91,312.08c-1.83-4.67-3.64-9.35-5.45-14.03c-3.68-9.52-7.36-19.04-11.04-28.56
	c-0.3,0.06-0.22,0.54-0.19,0.82c0.18,1.29,0.42,2.39,0.51,3.53c0.37,2.89,0.53,5.8,0.45,8.7c-0.38,12.44-4.13,23.46-12.12,32.48
	c-8.06,9.1-18.29,13.94-29.84,15.89c-11.13,1.88-21.52-0.71-31.21-7.01c-0.89-0.58-1.16-0.74-1.45,0.56
	c-1.5,6.65-4.05,12.83-8.11,18.11c-10.2,13.27-23.8,19.52-39.8,19.62c-13.6,0.08-25.13-6-34.29-16.84
	c-9.43-11.16-14.75-24.41-16.74-39.1c-1.59-11.72,0.2-22.77,5.49-33.06c-0.06-0.49-0.3-0.38-0.57-0.22
	c-2.66,1.06-5.55,2.07-8.2,3.18c-0.64,0.27-1.04,0.23-1.32-0.39c-4.7,1.99-9.42,3.98-14.12,5.96c-1.89,0.79-3.78,1.58-5.67,2.36
	c-0.47,0.2-0.95,0.4-1.42,0.6c5.33,31.82,10.66,63.64,15.98,95.46c70.17-11.74,140.35-23.48,210.52-35.21
	c0.51-0.09,0.56-0.12,1.07-0.22L311.91,312.08z"/>
<path class="st0" d="M139.87,146.43c-3.45-8.85-6.91-17.7-10.36-26.56c-0.48,0.07-0.97,0.12-1.45,0.2
	c-39.44,6.6-78.89,13.19-118.33,19.79c-0.2,0.03-0.4,0.09-0.6,0.1c-0.88,0.05-0.92,0.43-0.61,1.25c4.62,11.84,9.21,23.7,13.82,35.54
	c3.5,8.98,7.04,17.95,10.54,26.93c5.45,13.99,10.87,27.99,16.31,41.98c3.54,9.1,7.1,18.2,10.64,27.3
	c3.04,7.81,6.08,15.61,9.12,23.42c1.46-0.61,2.92-1.21,4.38-1.82l0-0.01c1.82-0.75,3.63-1.5,5.44-2.26c4.7-1.98,9.4-3.97,14.09-5.96
	c0,0,0-0.01,0-0.01c1.31-0.55,2.62-1.11,3.93-1.66c0.47-0.2,0.95-0.4,1.42-0.6c1.89-0.78,3.79-1.56,5.67-2.36
	c4.7-1.98,9.43-3.97,14.12-5.96c0,0,0,0,0,0c-0.05-0.17-0.1-0.33-0.15-0.49c-4.03-13.53-9.91-26.44-14.85-39.66
	c-7.42-19.85-14.83-39.71-22.27-59.56c-0.33-0.89-0.28-1.34,0.66-1.71c4.25-1.65,8.48-3.38,12.72-5.08
	c10.31-4.13,20.62-8.27,30.94-12.39c4.13-1.65,8.22-3.41,12.65-4.09c1.46-0.23,2.71-0.45,4.2-0.7
	C141.91,152.07,139.91,146.42,139.87,146.43z"/>
</svg>
