<?xml version="1.0" standalone="no"?>
<!DOCTYPE svg PUBLIC "-//W3C//DTD SVG 20010904//EN"
 "http://www.w3.org/TR/2001/REC-SVG-20010904/DTD/svg10.dtd">
<svg version="1.0" xmlns="http://www.w3.org/2000/svg"
 width="70.000000pt" height="75.000000pt" viewBox="0 0 70.000000 75.000000"
 preserveAspectRatio="xMidYMid meet">

<g transform="translate(0.000000,75.000000) scale(0.100000,-0.100000)"
fill="#000000" stroke="none">
<path d="M221 544 c-19 -8 -32 -16 -30 -18 9 -9 83 10 87 22 5 16 -15 15 -57
-4z"/>
<path d="M436 553 c-4 -4 7 -12 23 -18 25 -8 9 -10 -82 -10 -187 -1 -201 -4
-273 -64 -58 -47 -64 -56 -64 -90 0 -20 7 -46 16 -57 8 -10 13 -13 9 -6 -11
22 -13 86 -4 105 15 28 30 20 18 -10 -10 -27 -4 -79 11 -88 5 -3 4 10 -1 29
-11 42 8 97 43 126 57 45 293 62 394 27 104 -36 134 -136 62 -206 -42 -41 -80
-52 -217 -61 l-116 -7 92 -2 c111 -1 167 10 253 53 l65 32 3 55 c3 54 2 56
-39 89 -70 57 -93 70 -114 64 -16 -4 -17 -3 -5 5 12 8 8 13 -22 26 -43 17 -42
17 -52 8z m224 -187 c0 -39 -13 -66 -32 -66 -5 0 -4 10 3 21 7 13 9 40 5 67
-5 39 -4 43 9 32 9 -7 15 -29 15 -54z"/>
<path d="M206 476 c-50 -14 -81 -42 -92 -83 -15 -57 28 -99 125 -123 60 -14
211 -9 275 10 107 32 118 145 17 187 -50 22 -260 28 -325 9z m92 -39 c28 -26
30 -85 4 -118 l-19 -22 -19 31 c-14 25 -26 32 -51 33 -18 1 -39 2 -45 3 -21 2
-20 41 2 68 33 42 85 44 128 5z m233 4 c50 -50 34 -80 -42 -81 -20 0 -30 -8
-39 -30 l-13 -31 -23 22 c-35 32 -32 82 5 120 18 17 40 29 56 29 16 0 38 -12
56 -29z"/>
<path d="M145 264 c38 -19 79 -34 90 -33 11 0 -3 8 -30 18 -28 9 -62 24 -75
34 -13 9 -31 17 -40 16 -8 0 16 -16 55 -35z"/>
</g>
</svg>
