<svg id="SvgjsSvg1001" width="350" height="350" xmlns="http://www.w3.org/2000/svg" version="1.1" xmlns:xlink="http://www.w3.org/1999/xlink" xmlns:svgjs="http://svgjs.com/svgjs"><defs id="SvgjsDefs1002"></defs><g id="SvgjsG1008"><svg xmlns="http://www.w3.org/2000/svg" data-name="Layer 1" viewBox="0 0 3000 3000" width="350" height="350"><g data-name="Upload Image"><path fill="#f8f3ee" d="M882.55228,2520.4353S45.6591,2094.7685,289.114,1450.6203,1557.1518,431.1339,2155.6537,481.852s666.9815,688.2732,554.8892,968.7683-501.1248,1069.815-501.1248,1069.815Z" data-name="Path 14190" class="coloreef1f8 svgShape"></path><g data-name="Group 12567" fill="none"><path fill="#cd7722" d="M2405.0332,1981.6362c-8.9597-25.8879-28.8687-134.3936-66.6971-134.3936s-25.888,25.8797-39.818,25.8797-20.9084-46.7881-45.7969-52.7671-10.9165,18.9189-26.87,18.9189-46.7963-38.6854-90.5944-19.8424,16.8862,67.5284,27.8693,78.5115-23.8892,13.0065-23.8892,27.937,92.5851,3.9801,92.5851,17.9194-37.7864,27.8693.9994,37.8284S2405.0332,1981.6362,2405.0332,1981.6362Z" data-name="Path 12172" class="color22afcd svgShape"></path><path fill="#e4913f" d="M2163.1245,1507.7523s-32.8488,37.8285-6.9691,76.6563,75.6569,43.8073,68.6877,62.7169-76.1519,4.4753-47.7875,32.8489,72.6761-.9994,72.6761,23.8892-55.2517,19.4139-18.9096,55.7478,108.5139,3.9802,108.5139,34.8395-29.8681,27.5761,4.4752,53.6065,70.1822,43.9499,98.0598,36.9469,28.8687-125.4339,5.9789-168.2501-24.8885-9.9591-42.8244-.9912-4.9795-72.676-19.909-99.5542-22.8989-2.9807-44.7975,7.9604.9912-68.6878-28.8687-80.6108-15.9545,42.8244-37.7864,29.8681S2214.8922,1474.9035,2163.1245,1507.7523Z" data-name="Path 12173" class="color3fd5e4 svgShape"></path><path fill="#cd7722" d="M2486.6682,1947.788c0-10.9164,16.9283-121.4537,34.8395-121.4537s1.9906,30.8593,18.9188,30.8593,46.7882-73.6755,71.6767-68.696,0,37.8285,17.9194,37.8285,45.797-38.0724,87.6055-38.0724,61.7176,81.8705-9.9509,88.8396-9.9591,1.31,0,23.0579-57.7456,35.6871-76.6644,35.6871,20.4133,20.4051,6.9691,33.8483S2486.6682,1947.788,2486.6682,1947.788Z" data-name="Path 12174" class="color22afcd svgShape"></path><path fill="#c36b14" d="M2504.5792,2070.2322a3.98916,3.98916,0,0,1-3.9545-3.6019c-15.6357-162.9016-55.0929-193.3488-137.3826-307.5475-86.6144-111.2763-166.3528-190.3926-166.3528-192.5933s20.1027,9.1862,23.965,13.2002c68.4437,71.0883,150.4824,176.8572,151.0451,177.5368,95.4234,122.529,123.3767,170.375,136.6692,308.6391a3.98854,3.98854,0,0,1-3.5855,4.3492Z" data-name="Path 12175" class="color149ec3 svgShape"></path><path fill="#c36b14" d="M2461.1754,2027.5922c-56.7882-56.7882-274.4966-163.9932-272.5235-163.0778,8.9761,4.0386,220.3366,99.63,278.1581,157.4433a3.98423,3.98423,0,0,1-5.6346,5.6345Z" data-name="Path 12176" class="color149ec3 svgShape"></path><path fill="#c36b14" d="M2460.1427,2060.2905c-.5125-1.9066-11.8984-47.435,22.9913-114.3504,35.0157-67.1758,182.4835-104.0213,188.7474-105.5588,2.1751-.5371-148.3411,45.2844-181.685,109.2448-40.9855,78.613-14.3585,110.6808-25.191,113.5016a3.963,3.963,0,0,1-4.8534-2.8034Z" data-name="Path 12177" class="color149ec3 svgShape"></path><path fill="#956a40" d="M2414.1182,2031.2535c-14.8289-25.4093-53.5891-46.7041-65.5634-24.3515-12.6457,23.5868,31.4046,17.9523,19.3975,5.9452a3.98133,3.98133,0,1,1,5.6345-5.6264c10.9165,10.9165,1.5201,22.8057-13.9474,23.9732-33.1257,2.6118-25.8377-48.7029,14.4179-40.4986,28.7263,5.8775,46.1834,35.3264,46.9388,36.5769a3.98019,3.98019,0,0,1-6.8779,3.9812Z" data-name="Path 12178" class="color519540 svgShape"></path><path fill="#634426" d="M2504.0926,2021.4463c-.1425-49.895-2.5195-63.414,11.2516-75.8588a19.693,19.693,0,0,1,16.6013-5.2645,23.57149,23.57149,0,0,1,16.0969,18.4729c0,8.7332-12.2685,12.4192-13.5108,6.1471a3.98048,3.98048,0,0,1,3.1315-4.6772h.001c2.418-.4787,2.418-1.1921,2.418-1.4607,0-3.359-8.8172-16.8862-19.3801-7.3217-10.2779,9.3041-8.7834,17.7093-8.6409,69.9557C2512.0611,2023.6623,2504.0926,2026.7272,2504.0926,2021.4463Z" data-name="Path 12179" class="color326326 svgShape"></path><path fill="#a55e18" d="M2516.5033,2096.725H2410.0128l-29.8681-74.7333h165.2611Z" data-name="Path 12180" class="color1831a5 svgShape"></path></g><g data-name="Group 12566" fill="none"><g data-name="Group 12563" fill="none"><rect width="302.291" height="193.131" x="1296.288" y="2179.099" fill="#c5803a" data-name="Rectangle 2181" class="color3a4cc5 svgShape"></rect><path fill="#9c5f23" d="M1216.5166,2363.8325h461.8337a12.5955,12.5955,0,0,1,12.5955,12.5955h0a12.5955,12.5955,0,0,1-12.5955,12.5955H1216.5166a12.59542,12.59542,0,0,1-12.5954-12.5955h0A12.59542,12.59542,0,0,1,1216.5166,2363.8325Z" data-name="Rectangle 2182" class="color233e9c svgShape"></path></g><path fill="#d3d1d0" d="M708.49948,2095.1293H2278.7342v41.9849a41.98484,41.98484,0,0,1-41.9849,41.9848H750.48438a41.98484,41.98484,0,0,1-41.9849-41.9848v-41.9849Z" data-name="Rectangle 2180" class="colord0d1d3 svgShape"></path><path fill="#bf7c39" d="M750.48438,1171.4619H2236.7493a41.98484,41.98484,0,0,1,41.9849,41.9848v881.6826H708.49948V1213.4467A41.98484,41.98484,0,0,1,750.48438,1171.4619Z" data-name="Rectangle 2177" class="color394cbf svgShape"></path><rect width="1477.868" height="814.507" x="758.881" y="1230.241" fill="#ffffff" data-name="Rectangle 2178" class="colorfff svgShape"></rect><g data-name="Group 12561" fill="none"><g data-name="Rectangle 2179" fill="none"><rect width="1016.034" height="495.422" x="993.997" y="1389.783" fill="none"></rect><rect width="1007.637" height="487.025" x="998.195" y="1393.982" fill="none" stroke="none" stroke-dasharray="5" stroke-width="5"></rect></g><path fill="#c67f38" d="M1583.75,1745.4874h-62.7926v-63.4476h20.7489a6.49088,6.49088,0,0,0,5.265-10.2863l-40.3643-55.8566a6.43212,6.43212,0,0,0-10.4627,0l-40.3726,55.8566a6.47408,6.47408,0,0,0,5.2649,10.2863h20.7489v63.4476h-70.3247a62.89333,62.89333,0,0,1-56.3941-62.9102,59.6187,59.6187,0,0,1,29.5406-51.4315,39.94472,39.94472,0,0,1-2.4519-13.9305,40.507,40.507,0,0,1,40.4649-40.5491h.0841a39.85312,39.85312,0,0,1,13.8718,2.452,81.17359,81.17359,0,0,1,154.2273,26.7947,70.61021,70.61021,0,0,1-7.0535,139.5746Z" data-name="Path 14187" class="color384dc6 svgShape"></path></g></g><g data-name="Group 12562" fill="none"><path fill="#9c5f23" d="M788.20728,1290.1525,436.84569,1446.6122a44.376,44.376,0,0,0-22.498,58.5858l.0068.0154,156.4598,351.3617a44.37606,44.37606,0,0,0,58.58579,22.498l.0153-.0069,351.3617-156.4597a44.376,44.376,0,0,0,22.498-58.5859l-.0068-.0153L846.80848,1312.6436a44.37594,44.37594,0,0,0-58.5858-22.498Zm188.0302,385.8895a14.79482,14.79482,0,0,1-7.497,19.5337h0l-351.3617,156.4597a14.79482,14.79482,0,0,1-19.53378-7.497h0L441.38529,1493.1767a14.79483,14.79483,0,0,1,7.497-19.5337L800.244,1317.1832a14.79491,14.79491,0,0,1,19.53378,7.4971h0Z" data-name="Path 14188" class="color233e9c svgShape"></path><path fill="#9c5f23" d="M793.741,1567.6807a14.79479,14.79479,0,0,0-19.05662,8.4859l-17.242,44.9242-83.792-32.1594a14.795,14.795,0,0,0-19.0567,8.4859l-52.475,136.725a14.79486,14.79486,0,0,0,19.6919,18.7569l270.2847-120.3566a14.79478,14.79478,0,0,0-.6968-27.3809Z" data-name="Path 14189" class="color233e9c svgShape"></path><circle cx="719.568" cy="1498.056" r="44.485" fill="#f69636" data-name="Ellipse 1574" transform="rotate(-53.678 719.568 1498.056)" class="colorffa733 svgShape"></circle></g><g data-name="Group1" fill="none"><path fill="#925416" d="M1938.2283,2129.4225H1740.4208v-49.6261a29.38938,29.38938,0,0,1,29.3894-29.3895h139.0035a29.38946,29.38946,0,0,1,29.3895,29.3895v49.6261Z" class="color165c92 svgShape"></path><path fill="#aa5500" d="M1998.2836,2131.0011a28.09638,28.09638,0,0,0-28.0879-28.0963H1707.3703v-50.9276a28.09625,28.09625,0,0,0-28.0963-28.0963H1537.6926a28.09625,28.09625,0,0,0-28.0963,28.0963h0v347.173a28.09631,28.09631,0,0,0,28.0963,28.0963h432.5031a28.09629,28.09629,0,0,0,28.0962-28.0963h0V2131.0011Z" class="coloraa6100 svgShape"></path><path fill="#b0651a" d="M1892.8595,2166.999H1695.052v-49.6178a29.38944,29.38944,0,0,1,29.3895-29.3894H1863.445a29.38936,29.38936,0,0,1,29.3894,29.3894v49.6261Z" class="color1a6fb0 svgShape"></path><path d="M1965.1323,2164.3959a36.10706,36.10706,0,0,0-36.107-36.107H1674.2358v-42.9421a36.10693,36.10693,0,0,0-36.107-36.107H1504.5245a28.09631,28.09631,0,0,0-28.0963,28.0963v347.1898a28.09637,28.09637,0,0,0,28.0963,28.0963h432.4947a28.09637,28.09637,0,0,0,28.0963-28.0963h0v-260.13Z" fill="none"></path><path fill="#f69636" d="M1952.9315,2168.586a28.09638,28.09638,0,0,0-28.1047-28.0879H1662.035v-50.936a28.09625,28.09625,0,0,0-28.0963-28.0963h-141.615a28.09631,28.09631,0,0,0-28.0963,28.0963h0v347.173a28.09637,28.09637,0,0,0,28.0963,28.0963h432.4947a28.09631,28.09631,0,0,0,28.0963-28.0963h0V2168.586Z" class="colorffa733 svgShape"></path><rect width="143.53" height="71.71" x="1509.596" y="2317.834" fill="#ffffff" class="colorfff svgShape"></rect></g><g data-name="Group 12564" fill="none"><path fill="#f3b87d" stroke="none" d="M1968.2982,2358.0306a68.85044,68.85044,0,0,0,31.7141,14.8874c22.612,5.5187,67.016,0,67.016,0l-4.9611-21.2343s-73.6417-21.5132-79.4351-31.4395-17.3721,11.8574-16.5521,23.4443A48.07279,48.07279,0,0,0,1968.2982,2358.0306Z" data-name="Path 13343" class="colorf3a87d svgShape"></path><path fill="#f3b87d" stroke="none" d="M2250.7982,2357.4279s-6.8184,7.5564-41.5913,18.2782a273.34332,273.34332,0,0,1-70.997,10.7545v-25.4615s76.4133-42.3129,90.6857-45.8882S2250.7982,2357.4279,2250.7982,2357.4279Z" data-name="Path 13344" class="colorf3a87d svgShape"></path><path fill="#ffa74f" d="M2087.2909,2150.0045s-71.5014-2.5174-87.254,36.8557c-10.3117,25.4492-66.0523,146.6355-30.2955,173.9093-.7134-27.6592,16.4906-40.5663,26.175-43.0756s230.3961,0,230.3961,0,22.4685,26.6875,22.0011,43.4692c18.6513-11.6566,12.5954-46.1834,0-75.9746s-20.9925-94.6259-37.7864-110.4687-67.5858-24.7112-88.5619-24.7112Z" data-name="Path 13342" class="colorff4f66 svgShape"></path><g data-name="Group 11987" fill="none"><path fill="#ffd2a6" d="M2084.8226,2123.767v31.5051c0,33.3296,49.0822,21.2015,48.4754,3.03-.6151-22.4193,0-34.5351,0-34.5351Z" data-name="Path 13338" class="colorffd0a6 svgShape"></path><path fill="#f3b87d" d="M2084.8226,2123.7711s-1.8204,26.0315,48.2416,21.9847c-.1599-14.1166.2338-21.9847.2338-21.9847Z" data-name="Path 13339" class="colorf3a87d svgShape"></path></g><path fill="#ffd2a6" d="M2041.9234,2031.4915s-18.9096-5.2809-15.8878,18.9588,15.8878,21.2016,15.8878,21.2016,18.0445,64.8346,68.9471,62.4156,68.5616-55.9662,68.5616-55.9662,22.2266-3.2227,21.5132-20.4389-10.3937-21.1524-18.6431-17.204-25.4616-42.6737-26.5276-61.6776S2041.9234,2031.4915,2041.9234,2031.4915Z" data-name="Path 13337" class="colorffd0a6 svgShape"></path><g data-name="Group 11986" fill="none"><path fill="#412911" d="M2044.6192,2035.8212c-4.9693,3.0997-55.142-92.7931,49.1806-112.1578,1.7466-40.9599,32.3538-38.3891,46.8312-38.3891s36.3595,15.8468,31.2303,47.5446c34.9573,17.249,32.6326,89.0087,11.6566,115.5937-30.2956-21.8986-30.2956-66.1836-30.2956-66.1836A138.78227,138.78227,0,0,1,2044.6192,2035.8212Z" data-name="Path 13335" class="color412011 svgShape"></path><path fill="#f4caa0" d="M2080.8681,2021.3274s25.3754-5.5064,56.2614-38.3317c-3.3088,20.4143-39.4674,36.1054-56.2614,38.3317" data-name="Path 13336" class="colorf4bfa0 svgShape"></path></g><g data-name="Rectangle 1809" fill="none"><rect width="184.733" height="75.573" x="2018.436" y="2372.229" fill="#261c12" class="color122126 svgShape"></rect><rect width="176.337" height="67.176" x="2022.635" y="2376.428" fill="none" stroke="none"></rect></g><g data-name="Group 11988" fill="none"><path fill="#ffffff" d="M1974.6882,2252.9085H2240.167l-22.6215,142.0852H1998.1997Z" data-name="Path 13341" class="colorfff svgShape"></path><path fill="#ff8001" d="M1974.6882,2257.4093H2240.167l-22.6215,142.0852H1998.1997Z" data-name="Path 13340" class="colorffad01 svgShape"></path><path fill="#dd6f01" d="M2240.167,2257.4093l-22.6215,142.0852H1998.1913S2187.2912,2379.5517,2240.167,2257.4093Z" data-name="Path 13349" class="colordd5e01 svgShape"></path></g><path fill="#4d4033" d="M1970.9099,2353.4221s-78.7708-10.3035-75.1381,35.7527c3.6367,60.5911,133.9047,83.0227,211.4701,96.348,23.637-21.2098,16.3675-41.8086,16.3675-41.8086s-107.8609-36.3596-130.8829-76.3436C1980.5984,2351.003,1970.9099,2353.4221,1970.9099,2353.4221Z" data-name="Path 13345" class="color33464d svgShape"></path><path fill="#ffd2a6" d="M2084.6627,2456.1785a23.12954,23.12954,0,0,0-28.4341,3.2718c-16.3142,12.5955-22.3782,23.2967-54.0678,27.4952-22.3701,3.7311-21.4476,11.185-21.4476,11.185s-22.8415-.4674-22.8415,13.5139c0,13.5221,54.5311,13.5221,81.0997,6.06a481.8005,481.8005,0,0,0,59.6603-22.8375Z" data-name="Path 13347" class="colorffd0a6 svgShape"></path><path fill="#ffd2a6" d="M2132.2237,2485.5433s27.9708,19.6312,51.7431,19.6312,67.5776-.4674,69.9147-9.3236-5.1292-14.4487-23.3008-13.5139-9.3195-10.734-46.6098-14.9243-42.4195-2.3289-42.4195-2.3289Z" data-name="Path 13348" class="colorffd0a6 svgShape"></path><path fill="#4d4033" d="M2250.7982,2341.0767s55.0273-10.2461,68.4182,18.1224c22.0502,56.7124-65.6055,92.0962-216.8536,141.7154-26.1052-2.7963-22.3783-47.5446-22.3783-47.5446s108.1357-39.6273,135.635-82.5019A79.18524,79.18524,0,0,1,2250.7982,2341.0767Z" data-name="Path 13346" class="color33464d svgShape"></path></g><g data-name="Group 12565" fill="none"><rect width="201.527" height="8.397" x="2362.704" y="2044.756" fill="#6c6c6c" data-name="Rectangle 2050" class="color6c6c6c svgShape"></rect><path fill="none" stroke="none" stroke-linecap="round" stroke-width="9" d="M2605.1994,2435.1525l-66.9462-383.9321H2381.1215l-64.2237,383.9321" data-name="Path 13895"></path></g></g></svg></g></svg>