<svg id="SvgjsSvg1250" width="100" height="100" xmlns="http://www.w3.org/2000/svg" version="1.1" xmlns:xlink="http://www.w3.org/1999/xlink" xmlns:svgjs="http://svgjs.com/svgjs"><defs id="SvgjsDefs1251"></defs><g id="SvgjsG1252"><svg xmlns="http://www.w3.org/2000/svg" enable-background="new 0 0 3000 3000" viewBox="0 0 3000 3000" width="100" height="100"><path fill="#f2f2f2" d="M2359.78,2027.22H988.72V627.29c0-22.07,17.89-39.96,39.96-39.96h1291.14c22.07,0,39.96,17.89,39.96,39.96
		L2359.78,2027.22L2359.78,2027.22z" class="colorf2f2f2 svgShape"></path><ellipse cx="1500" cy="2563.81" fill="#f2f2f2" rx="1450" ry="96.73" class="colorf2f2f2 svgShape"></ellipse><path fill="#c7c8c9" d="M2645.99,2570.24H955.25c-55.84,0-102.46-42.16-108.03-97.53l-94.19-1216.68
			c-2.86-28.32,19.41-52.97,47.89-52.97h950.3c7.48,0,14.48-3.35,19.09-9.23l46.93-59.34c6.36-8.12,16.23-12.89,26.57-12.89h538.39
			c26.09,0,48.05,19.09,51.87,44.86l149.23,1306.25l1.11,8.11L2645.99,2570.24z" class="colorffb902 svgShape"></path><path fill="#c7c8c9" d="M2645.99,2570.24H955.25c-55.84,0-102.46-42.16-108.03-97.53h1736.09l1.11,8.11L2645.99,2570.24z" class="colorf9ae06 svgShape"></path><path fill="#c7c8c9" d="M2444.08,1234.76h392.66l-88.65,1242.49c-4.89,52.7-49.11,93.01-102.04,93.01l0,0
			c-51.05,0-94.32-37.57-101.47-88.12L2444.08,1234.76z" class="colorf2a807 svgShape"></path><path fill="#8e8f91" d="M1546.87 1764.16c-33.17-41.71-84.37-68.44-141.82-68.44-57.43 0-108.63 26.73-141.8 68.42 1.48-77.06 64.4-139.03 141.8-139.03C1482.45 1625.1 1545.39 1687.11 1546.87 1764.16zM2053.17 1764.16c-33.17-41.71-84.37-68.44-141.82-68.44-101.92 0-108.63 26.73-141.8 68.42 1.48-77.06 64.4-139.03 141.8-139.03C1988.75 1625.1 2051.7 1687.11 2053.17 1764.16z" class="color293241 svgShape"></path><g><path fill="#292e41" d="M1649.87,1965.15c122.29,0,230.85,77.73,270.14,193.41c2.87,8.45-1.65,17.62-10.1,20.49
						c-8.44,2.87-17.62-1.65-20.49-10.1c-34.84-102.58-131.11-171.5-239.56-171.5c-108.43,0-204.7,68.92-239.56,171.5
						c-2.87,8.45-12.03,12.97-20.49,10.1c-8.44-2.87-12.96-12.04-10.09-20.49C1419.04,2042.87,1527.6,1965.15,1649.87,1965.15z" class="color293241 svgShape"></path></g><g><path fill="#c7c8c9" d="M458.22,1098.44c-5.29-0.06-10.21,0.29-12.62-2.96l0,0c-0.8-1.08-1.33-2.27-1.6-3.51
				c-1.08-4.84,2.48-9.52,7.33-10.51l20.68-1.51l-25.99-20.44c-3.13-2.46-3.68-7.01-1.21-10.14l0,0c2.46-3.13,7-3.68,10.14-1.21
				l9.92,7.8l-10.48-8.26c-3.52-2.77-4.12-7.87-1.36-11.39l0,0c2.77-3.52,7.87-4.13,11.38-1.36l11.52,9.08l-7.77-6.11
				c-3.52-2.77-4.13-7.86-1.36-11.39l0,0c2.77-3.52,7.87-4.13,11.39-1.36l5.85,4.6l-3.76-2.95c-3.33-2.62-3.9-7.44-1.29-10.76l0,0
				c2.62-3.33,7.43-3.9,10.76-1.29l33.44,26.3l22.19,26.77l-33.92,43.13l-3.14-2.47l-2.67-2.1
				C497.69,1100.15,468.01,1098.06,458.22,1098.44z" class="colorfeb582 svgShape"></path><rect width="59.36" height="76.85" x="508.61" y="2453.63" fill="#c7c8c9" transform="rotate(-2.04 538.27 2491.969)" class="colorfeb582 svgShape"></rect><path fill="#8e8f91" d="M571.99,2496.47c0,0,75.33,47.98,79.63,51.8c4.68,4.16,4.2,6.85,3.97,9.09
								c-0.7,6.86-6.54,12.75-14.15,12.87l-137.8,0.03c-1.01,0-1.87-0.74-2.03-1.74c-0.65-3.98-1.16-7.7-1.54-11.17
								c-2.82-25.62,1.24-51.71,5-60.13c0.4-0.9,1.66-0.88,2.06,0.01c11.67,25.81,49.04,23.6,60.58,0.79
								C568.51,2496.45,570.38,2495.76,571.99,2496.47z" class="color293241 svgShape"></path><path fill="#66686e" d="M655.59,2557.36c-0.7,6.86-6.54,12.75-14.15,12.87l-137.8,0.03c-1.01,0-1.87-0.74-2.03-1.74
								c-0.65-3.98-1.16-7.7-1.54-11.17L655.59,2557.36L655.59,2557.36z" class="color1c232d svgShape"></path><rect width="76.85" height="59.36" x="276.66" y="2462.13" fill="#c7c8c9" transform="rotate(-88.206 315.072 2491.823)" class="colorfeb582 svgShape"></rect><path fill="#8e8f91" d="M348.5,2496.47c0,0,75.33,47.98,79.63,51.8c4.68,4.16,4.2,6.85,3.97,9.09
								c-0.7,6.86-6.54,12.75-14.15,12.87l-137.8,0.03c-1.01,0-1.87-0.74-2.03-1.74c-0.65-3.98-1.16-7.7-1.54-11.17
								c-2.82-25.62,1.24-51.71,5-60.13c0.4-0.9,1.66-0.88,2.06,0.01c11.67,25.81,49.04,23.6,60.58,0.79
								C345.02,2496.45,346.89,2495.76,348.5,2496.47z" class="color293241 svgShape"></path><path fill="#66686e" d="M432.1,2557.36c-0.7,6.86-6.54,12.75-14.15,12.87l-137.8,0.03c-1.01,0-1.87-0.74-2.03-1.74
								c-0.65-3.98-1.16-7.7-1.54-11.17L432.1,2557.36L432.1,2557.36z" class="color1c232d svgShape"></path><path fill="#8e8f91" d="M581.8,2468.46l-87.09,1.99l-74.56-649.88c-0.55-3.57-5.68-3.62-6.31-0.06l-52.11,648.94l-94.03,1
					l11.64-786.37l121.21,10.69l-1.05-6.78l151.33-23.14L581.8,2468.46z" class="color293241 svgShape"></path><line x1="543.73" x2="392.38" y1="1664.86" y2="1687.97" fill="none"></line><path fill="#cacccf" d="M652.01,1266.64l-153.36-154.45l48.53-63.81l216.26,215.47c32.5,32.38,14.65,87.96-30.63,95.36
				l-156.26,25.53c-0.27,6.95-5.26,178.9-14.03,348c-110.42,20.78-187.77,17.69-294.82-11.59c0,0,13.48-115.56,1.71-295.69
				c-0.88-13.39-1.15-26.81-0.84-40.23l-81.52,63l70.52,122.25l-48.19,55.55l-85.9-115.41l-36.42-54.33
				c-14.06-21.04-9.92-49.34,9.64-65.39l163.23-134.26c13.19-9.85,28.36-16.69,44.45-20.07l49.27-10.35l15.11-3.17
				c4.79-0.81,9.58-1.48,14.4-2.06c26.27-3.17,52.85-2.77,79.02,1.04c8.03,1.21,16.02,2.7,23.94,4.52l0.34,0.14L652.01,1266.64z" class="colorff3f36 svgShape"></path><g><path fill="#8e8f91" d="M364.25,1153.24c0,0,3.8,18.53,12.02,26.97L374.5,1157l-7.92-10.85L364.25,1153.24z" class="color222824 svgShape"></path><path fill="#8e8f91" d="M367.8,1130.25c0,0-2.6,36.33,16.02,64.11c11.42,17.05,31.59,25.39,51.96,22.93
					c42.29-5.09,61.51-45.11,41.67-138.97l-74.93-30.2l-47.47,31.15L367.8,1130.25z" class="colorfeb582 svgShape"></path><path fill="#c7c8c9" d="M381.87,1186.48l1.99,46.96c0.89,20.98,18.04,37.59,39.03,37.8l0,0c23.25,0.24,41.67-19.56,39.75-42.74
					l-2.75-33.13L381.87,1186.48z" class="colorfeb582 svgShape"></path><path fill="#c7c8c9" d="M367.49,1134.28c0,0,8.45-7.25,4.3-21.74c15.22-8.27,21.59-21.56,10.98-44.46c0,0,75.24,35.65,110.04,14.83
					c0,0,16.26-11.44,3.25-28.36c-3.02-21.28-10.76-35.78-27.96-36.69l-21.13,5.29c0,0-30.97-22.08-56.17-10.24
					c0,0-35.79,12.64-40.67,30.97c0,0-27.86,3.29-18.38,35.92l19.46,45.14l2.99,12.67L367.49,1134.28z" class="color222824 svgShape"></path><path fill="#c7c8c9" d="M375.06,1136.07c2.4,9.57-1.49,18.79-8.68,20.59c-7.19,1.8-14.96-4.5-17.36-14.08
					c-2.4-9.57,1.49-18.79,8.68-20.59C364.89,1120.19,372.66,1126.49,375.06,1136.07z" class="colorfeb582 svgShape"></path></g><g><path fill="#8e8f91" d="M486.47 1226.67L457 1273.08l-24.17-3.73 29.28-47.33c8.03 1.19 16.08 2.7 24.03 4.54L486.47 1226.67zM414.66 1270.64l-23.4 7.1-37.59-51.54 15.09-3.16c4.78-.81 9.81-1.49 14.6-2.07L414.66 1270.64z" class="colored2b2b svgShape"></path><polygon fill="#66686e" points="442.02 1266.97 426.22 1281.26 408.56 1269.33 424.36 1255.04" class="colorfff svgShape"></polygon><path fill="#66686e" d="M412.92,1270.45c0,0,3.89,184.62-27.51,255.84l33.13,51.92l40.03-47.8c0,0-18.11-252-21.57-260.97
					L412.92,1270.45z" class="colorfff svgShape"></path></g><path fill="#c7c8c9" d="M308.06,1623.44c2.97,2.66,3.24,7.22,0.57,10.22c-1.42,1.59-3.4,2.39-5.39,2.39c-1.69,0-3.41-0.57-4.79-1.82
				l0.51,0.47c3.37,3,3.64,8.13,0.68,11.47c-1.59,1.79-3.81,2.73-6.07,2.73c-1.89,0-3.81-0.67-5.36-2.06l-2.93-2.6
				c2.73,3.04,2.8,7.72,0.03,10.83c-1.62,1.82-3.84,2.73-6.07,2.73c-1.92,0-3.84-0.68-5.4-2.06l-1.99-1.75
				c3.17,2.8,3.44,7.66,0.64,10.79c-1.52,1.72-3.64,2.6-5.73,2.6h-0.03c-1.82,0-3.61-0.64-5.06-1.96l-31.77-28.3l-13.79-18.82
				l37.84-43.57c4.28,2.36,11.16,4.32,18.38,5.8c10.05,2.06,20.74,3.2,25.94,3.31c5.26,0.37,10.22,0.34,12.41,3.74
				c0.74,1.11,1.18,2.33,1.38,3.58c0.78,4.89-3.03,9.34-7.96,10.05l-20.74,0.24L308.06,1623.44z" class="colorfeb582 svgShape"></path></g><g><path fill="#8e8f91" d="M1837.23 651.01c-.14-.14-.27-.26-.41-.38-22.38-20.05-49.67-33.18-81.89-39.42-.05 0-.09 0-.14-.02-15.15-2.92-31.39-4.3-48.73-4.16-35.57.27-66.78 7.41-93.53 21.44-26.73 14.04-47.17 33.6-61.31 58.73-5.5 9.74-9.95 20.05-13.24 30.79-1.29 4.21-1.89 8.4-1.86 12.52.18 21.87 18.03 40.97 41.12 41.73.62.05 1.23.05 1.85.05 19.39-.15 35.18-13.77 40.83-32.28 3.91-12.94 10.59-23.83 19.99-32.81 16.35-15.51 38.89-23.43 67.56-23.65 10.01-.08 19.25.81 27.74 2.69 15.91 3.49 29.2 10.38 39.87 20.69 1.35 1.31 2.63 2.66 3.86 4.04 13.77 15.45 20.77 36.13 20.98 61.97.06 8.15-.48 15.75-1.65 22.81-4.31 26.54-17.27 45.37-38.79 56.46-13.6 7.05-30.31 12.34-50.03 15.94-19.7 3.59-42.47 5.5-68.23 5.7-14.4.12-25.83 12.14-25.26 26.54l3.25 114.21c.62 21.5 17.94 38.67 39.28 39.22.48.03.96.03 1.44.03 10.96-.08 20.87-4.52 28.1-11.68 7.23-7.15 11.77-17.01 11.98-27.97l1.49-78.64c39.51-.32 73.49-7.24 101.92-20.78 12.11-5.77 23.22-12.73 33.32-20.9 33.81-27.41 50.52-67.94 50.1-121.63C1886.43 720.9 1869.88 680.49 1837.23 651.01zM1709.95 1128.43c.11 13.75-4.5 25.34-13.72 34.76-9.27 9.37-20.54 14.16-33.87 14.26-13.8.11-25.34-4.5-34.76-13.72-9.42-9.27-14.16-20.78-14.27-34.54-.11-13.75 4.45-25.34 13.72-34.76s20.74-14.16 34.54-14.27c13.32-.11 24.67 4.45 34.09 13.72C1705.05 1103.17 1709.84 1114.68 1709.95 1128.43z" class="colorff3f36 svgShape"></path><g><rect width="68.98" height="152.87" x="2075.18" y="1236.46" fill="#1f2333" transform="rotate(-44.145 2109.601 1312.852)" class="color1f2733 svgShape"></rect><path fill="#8e8f91" d="M2771.93,1995.42L2771.93,1995.42c-36.48,35.41-94.97,33.79-129.43-3.59l-556.76-603.72l99.67-96.73
				l586.81,574.55C2808.54,1901.5,2808.41,1960.01,2771.93,1995.42z" class="color3d5a80 svgShape"></path><path fill="#8e8f91" d="M2772.21,1865.93c36.32,35.56,36.21,94.07-0.27,129.48c-20.61,20-48.25,28.19-74.6,24.79
				c11.23-4.24,21.82-10.81,31.01-19.73c36.48-35.4,36.61-93.91,0.28-129.47l-567.7-555.86l24.48-23.75L2772.21,1865.93z" class="color385575 svgShape"></path><path fill="#8e8f91" d="M2097.9,507.25c-212.57-219.07-562.54-224.26-781.61-11.69c-219.07,212.64-224.33,562.61-11.69,781.68
				s562.54,224.26,781.61,11.69C2305.28,1076.29,2310.54,726.32,2097.9,507.25z M2014.19,1214.64
				c-178.09,172.83-462.54,168.59-635.3-9.49c-172.83-178.02-168.59-462.54,9.42-635.3c178.09-172.83,462.54-168.59,635.37,9.49
				C2196.44,757.44,2192.21,1041.81,2014.19,1214.64z" class="color3d5a80 svgShape"></path><path fill="#8e8f91" d="M2014.19,1214.64c-178.09,172.83-462.54,168.59-635.3-9.49c-172.83-178.02-168.59-462.54,9.42-635.3
				c178.09-172.83,462.54-168.59,635.37,9.49C2196.44,757.44,2192.21,1041.81,2014.19,1214.64z" enable-background="new" opacity=".3" class="colorfff svgShape"></path><path fill="#8e8f91" d="M2097.94,507.27c212.61,219.07,207.37,569.02-11.7,781.63c-38.74,37.6-81.58,68.38-127.01,92.37
				c27.56-18.39,53.85-39.54,78.47-63.44c219.05-212.6,224.3-562.55,11.68-781.62c-175.03-180.34-443.11-215.78-654.63-104.08
				C1612.29,286.82,1909.2,312.81,2097.94,507.27z" class="color385575 svgShape"></path></g></g></svg></g></svg>
