<svg id="SvgjsSvg2687" enable-background="new 0 0 600 470" viewBox="0 0 600 470" width="350" height="300" xmlns="http://www.w3.org/2000/svg" version="1.1" xmlns:xlink="http://www.w3.org/1999/xlink" xmlns:svgjs="http://svgjs.com/svgjs"><defs id="SvgjsDefs2688"></defs><g id="SvgjsG2689"><svg xmlns="http://www.w3.org/2000/svg" enable-background="new 0 0 80 80" viewBox="0 0 80 80" width="550" height="550"><linearGradient id="a" x1="2252.965" x2="2255.659" y1="-121.379" y2="-112.469" gradientTransform="matrix(.714 .7 -.6999 .7151 -1646.088 -1443.035)" gradientUnits="userSpaceOnUse"><stop offset="0" stop-color="#edeceb" class="stopColor64c2e1 svgShape"></stop><stop offset="1" stop-color="#a6a5a4" class="stopColor1897b5 svgShape"></stop></linearGradient><path fill="#a6a5a4" d="M47.3,53.7c-2.2,3.6-7,8.9-8.3,8.1c-1.3-0.8,1.3-7.5,3.5-11c2.2-3.6,4.2-4.4,5.5-3.6
			C49.4,48,49.6,50.1,47.3,53.7z"></path><linearGradient id="b" x1="2260.314" x2="2257.098" y1="-119.495" y2="-105.109" gradientTransform="matrix(.714 .7 -.6999 .7151 -1646.088 -1443.035)" gradientUnits="userSpaceOnUse"><stop offset="0" stop-color="#edeceb" class="stopColor64c2e1 svgShape"></stop><stop offset="1" stop-color="#a6a5a4" class="stopColor1897b5 svgShape"></stop></linearGradient><path fill="#a6a5a4" d="M46,54.3c-3.1,2-7.7,6.3-7,7.5s6.6-1.3,9.7-3.3s3.8-3.8,3-4.9C51,52.3,49.1,52.2,46,54.3z"></path><linearGradient id="c" x1="5102.622" x2="5104.445" y1="-2976.534" y2="-2970.506" gradientTransform="matrix(-.6896 .7242 .7241 .6896 5688.306 -1591.335)" gradientUnits="userSpaceOnUse"><stop offset="0" stop-color="#f0c499" class="stopColorf099dd svgShape"></stop><stop offset="1" stop-color="#d38e4a" class="stopColord34ac0 svgShape"></stop></linearGradient><path fill="#edeceb" d="M14.3,55.5c1.6,2.3,4.9,5.8,5.8,5.2s-1.1-5-2.6-7.4c-1.6-2.3-2.9-2.9-3.8-2.3
			C12.8,51.7,12.7,53.2,14.3,55.5z"></path><linearGradient id="d" x1="5107.594" x2="5105.418" y1="-2975.259" y2="-2965.527" gradientTransform="matrix(-.6896 .7242 .7241 .6896 5688.306 -1591.335)" gradientUnits="userSpaceOnUse"><stop offset="0" stop-color="#f0c499" class="stopColorf099dd svgShape"></stop><stop offset="1" stop-color="#d38e4a" class="stopColord34ac0 svgShape"></stop></linearGradient><path fill="#edeceb" d="M15.2,55.9c2.1,1.3,5.4,4.1,4.9,4.9c-0.5,0.8-4.5-0.7-6.6-2c-2.1-1.3-2.6-2.5-2.2-3.3
			C11.8,54.7,13.1,54.6,15.2,55.9z"></path><path fill="#8c8c8b" d="M5.7,59.6c1,2.9,16,5.2,34.3,5.2s33.3-2.3,34.3-5.2H5.7z" class="colorF1F5FD svgShape"></path><linearGradient id="e" x1="766.567" x2="786.044" y1="23.358" y2="59.343" gradientTransform="matrix(-1 0 0 1 806.363 0)" gradientUnits="userSpaceOnUse"><stop offset="0" stop-color="#f5ede6" class="stopColore6edf5 svgShape"></stop><stop offset="1" stop-color="#e0d3c6" class="stopColorc6d3e0 svgShape"></stop></linearGradient><path fill="#edeceb" d="M18.4,24.6v35.5c0,0.8,0.5,1.5,1.3,1.7c1,0.2,1.9-0.6,1.9-1.6c0,0.9,0.7,1.6,1.6,1.6
				c0.9,0,1.6-0.7,1.6-1.6c0,0.9,0.7,1.6,1.6,1.6s1.6-0.7,1.6-1.6c0,0.9,0.7,1.6,1.6,1.6c0.9,0,1.6-0.7,1.6-1.6
				c0,0.9,0.7,1.6,1.6,1.6c0.9,0,1.6-0.7,1.6-1.6c0,0.9,0.7,1.6,1.6,1.6c0.9,0,1.6-0.7,1.6-1.6c0,1,0.8,1.7,1.9,1.6
				c0.8-0.1,1.3-0.8,1.3-1.6V24.6c0-1.5,1.3-2.8,2.8-2.8H21.2C19.6,21.8,18.4,23.1,18.4,24.6z"></path><linearGradient id="f" x1="761.805" x2="765.535" y1="31.1" y2="31.1" gradientTransform="matrix(-1 0 0 1 806.363 0)" gradientUnits="userSpaceOnUse"><stop offset="0" stop-color="#a6a5a4" class="stopColore6edf5 svgShape"></stop><stop offset="1" stop-color="#e0d3c6" class="stopColorc6d3e0 svgShape"></stop></linearGradient><path fill="#adaba8" d="M40.8,24.6v15.8h8.4c-1.5,0-2.8-1.3-2.8-2.8v-13c0-1.5-1.2-2.8-2.8-2.8
				C42,21.8,40.8,23.1,40.8,24.6z"></path><linearGradient id="g" x1="756.248" x2="760.017" y1="33.117" y2="33.117" gradientTransform="matrix(-1 0 0 1 806.363 0)" gradientUnits="userSpaceOnUse"><stop offset="0" stop-color="#f5ede6" class="stopColore6edf5 svgShape"></stop><stop offset="1" stop-color="#e0d3c6" class="stopColorc6d3e0 svgShape"></stop></linearGradient><path fill="#adaba8" d="M46.3,25.8v11.8c0,1.5,1.2,2.8,2.8,2.8c1.5,0,2.8-1.3,2.8-2.8v-9c0-1.5,1.3-2.8,2.8-2.8H46.3z"></path><linearGradient id="h" x1="750.197" x2="754.31" y1="30.456" y2="30.456" gradientTransform="matrix(-1 0 0 1 806.363 0)" gradientUnits="userSpaceOnUse"><stop offset="0" stop-color="#f5ede6" class="stopColore6edf5 svgShape"></stop><stop offset="1" stop-color="#e0d3c6" class="stopColorc6d3e0 svgShape"></stop></linearGradient><path fill="url(#h)" d="M51.9,35.1v-6.4c0-1.5,1.3-2.8,2.8-2.8c1.5,0,2.8,1.3,2.8,2.8v6.4H51.9z"></path><g><rect width="11.6" height=".9" x="26" y="27.6" fill="#8c8c8b" class="color416D99 svgShape"></rect><rect width="2.2" height=".9" x="21.5" y="27.6" fill="#8c8c8b" class="color416D99 svgShape"></rect><rect width="11.6" height=".9" x="26" y="30.9" fill="#8c8c8b" class="color416D99 svgShape"></rect><rect width="2.2" height=".9" x="21.5" y="30.9" fill="#8c8c8b" class="color416D99 svgShape"></rect><rect width="11.6" height=".9" x="26" y="34.2" fill="#8c8c8b" class="color416D99 svgShape"></rect><rect width="2.2" height=".9" x="21.5" y="34.2" fill="#8c8c8b" class="color416D99 svgShape"></rect><rect width="11.6" height=".9" x="26" y="37.5" fill="#8c8c8b" class="color416D99 svgShape"></rect><rect width="2.2" height=".9" x="21.5" y="37.5" fill="#8c8c8b" class="color416D99 svgShape"></rect><rect width="11.6" height=".9" x="26" y="40.8" fill="#8c8c8b" class="color416D99 svgShape"></rect><rect width="2.2" height=".9" x="21.5" y="40.8" fill="#8c8c8b" class="color416D99 svgShape"></rect><g><rect width="11.6" height=".9" x="26" y="44.1" fill="#8c8c8b" class="color416D99 svgShape"></rect><rect width="2.2" height=".9" x="21.5" y="44.1" fill="#8c8c8b" class="color416D99 svgShape"></rect></g><g><rect width="11.6" height=".9" x="26" y="47.4" fill="#8c8c8b" class="color416D99 svgShape"></rect><rect width="2.2" height=".9" x="21.5" y="47.4" fill="#8c8c8b" class="color416D99 svgShape"></rect></g><g><rect width="11.6" height=".9" x="26" y="50.8" fill="#8c8c8b" class="color416D99 svgShape"></rect><rect width="2.2" height=".9" x="21.5" y="50.8" fill="#8c8c8b" class="color416D99 svgShape"></rect></g><g><rect width="11.6" height=".9" x="26" y="54.1" fill="#8c8c8b" class="color416D99 svgShape"></rect><rect width="2.2" height=".9" x="21.5" y="54.1" fill="#8c8c8b" class="color416D99 svgShape"></rect></g></g><g><linearGradient id="i" x1="4929.103" x2="4933.808" y1="869.053" y2="869.053" gradientTransform="scale(-1 1) rotate(-19.033 -39.042 15312.615)" gradientUnits="userSpaceOnUse"><stop offset="0" stop-color="#f9cfa5" class="stopColorf9c7a5 svgShape"></stop><stop offset="1" stop-color="#f9c795" class="stopColorf9a395 svgShape"></stop></linearGradient><path fill="#edeceb" d="M51.4,40.7c0,0-0.4-0.2-0.7-0.7c-0.4-0.4-0.7-1-1-1.6c-0.3-0.6-0.4-1.2-0.5-1.7
				c-0.1-0.5-0.1-0.8-0.1-0.8c-1.3-1,1.1-0.8,1-0.2c0,0,0.1,0.3,0.2,0.7c0.2,0.4,0.4,0.9,0.7,1.3c0.3,0.4,0.7,0.9,0.9,1.1
				c0.3,0.2,0.4,0.3,0.4,0.3L51.4,40.7z"></path><linearGradient id="j" x1="4924.972" x2="4929.649" y1="868.485" y2="868.485" gradientTransform="scale(-1 1) rotate(-19.033 -39.042 15312.615)" gradientUnits="userSpaceOnUse"><stop offset="0" stop-color="#faa34d" class="stopColorfaa34d svgShape"></stop><stop offset="1" stop-color="#ef851b" class="stopColoref7b1b svgShape"></stop></linearGradient><path fill="#8c8c8b" d="M54.5,36.4l-1,1.7c-0.3,0.6-0.6,0.8-0.8,0.9c-0.1,0-0.2,0.1-0.4,0l-1.1,1.6
				c0.4,0.3,1,0.6,1.6,0.6c1.4,0,2.2-0.9,2.7-1.5l1.5-1.7c0.4-0.5,0.2-1.1-0.2-1.5H54.5z"></path><polygon fill="#e8dcd1" points="43 42.1 42.4 41.2 43.9 38.8 59.2 29.1 61.1 32 45.8 41.7" class="colorD1DAE8 svgShape"></polygon><polygon fill="#f2e8df" points="42.7 41.6 60.1 30.5 61.1 32 45.8 41.7 43 42.1" class="colorDFE5F2 svgShape"></polygon><polygon fill="#fff6ee" points="42.6 41.5 44.4 39.9 59.8 30 60.5 31 45 40.8 42.8 41.8" class="colorEEF4FF svgShape"></polygon><linearGradient id="k" x1="-68.618" x2="-52.576" y1="36.345" y2="36.345" gradientTransform="translate(113.645)" gradientUnits="userSpaceOnUse"><stop offset="0" stop-color="#8c8c8b" class="stopColor99a9fa svgShape"></stop><stop offset="1" stop-color="#fcba79" class="stopColor797efc svgShape"></stop></linearGradient><path fill="#d3d1d0" d="M45,40.8L60.5,31l0.6,1l-15.3,9.7C45.8,41.2,45.5,41,45,40.8z"></path><linearGradient id="l" x1="-69.708" x2="-53.812" y1="34.453" y2="34.453" gradientTransform="translate(113.645)" gradientUnits="userSpaceOnUse"><stop offset="0" stop-color="#8c8c8b" class="stopColor99a9fa svgShape"></stop><stop offset="1" stop-color="#fcba79" class="stopColor797efc svgShape"></stop></linearGradient><path fill="#d3d1d0" d="M43.9,38.8l15.3-9.7l0.6,1l-15.4,9.8C44.4,39.3,44.4,38.9,43.9,38.8z"></path><path fill="#8c8c8b" d="M61.7,31.6L61.1,32l-0.4-0.6c-0.1-0.2-0.4-0.3-0.7-0.1l-14.4,9.2c-0.2,0.2-0.6,0.1-0.7-0.2c0,0,0,0,0,0
				c-0.2-0.2-0.1-0.6,0.1-0.7l14.4-9.2c0.2-0.1,0.3-0.4,0.1-0.7l-0.4-0.5l0.6-0.4L61.7,31.6z" class="color99A9FA svgShape"></path><linearGradient id="m" x1="-53.833" x2="-51.042" y1="29.881" y2="29.881" gradientTransform="translate(113.645)" gradientUnits="userSpaceOnUse"><stop offset="0" stop-color="#8c8c8b" class="stopColor99a9fa svgShape"></stop><stop offset="1" stop-color="#fcba79" class="stopColor797efc svgShape"></stop></linearGradient><path fill="#8c8c8b" d="M60.4,28.3c1.1-0.7,3,2.2,1.9,2.9l-0.6,0.4l-1.9-2.9L60.4,28.3z"></path><path fill="#8c8c8b" d="M42.5,40.9L42,41.8c-0.1,0.2,0,0.5,0.3,0.5l1-0.2L42.5,40.9z" class="color244D77 svgShape"></path><g><linearGradient id="n" x1="5927.956" x2="5931.156" y1="51.21" y2="51.21" gradientTransform="matrix(-1 0 0 1 5985.269 0)" gradientUnits="userSpaceOnUse"><stop offset="0" stop-color="#8c8c8b" class="stopColor416d99 svgShape"></stop><stop offset="1" stop-color="#8c8c8b" class="stopColor244d77 svgShape"></stop></linearGradient><path fill="#a3a1a0" d="M56.3,59.3c0,0,1-13.6,1-14.3c0-0.8-0.7-1.9-1.6-1.9c-0.9,0-1.6,1.2-1.6,2
					c0,0.7,1.5,14.2,1.5,14.2L56.3,59.3z"></path><linearGradient id="o" x1="5928.759" x2="5930.73" y1="59.627" y2="59.627" gradientTransform="matrix(-1 0 0 1 5985.269 0)" gradientUnits="userSpaceOnUse"><stop offset="0" stop-color="#8c8c8b" class="stopColor416d99 svgShape"></stop><stop offset="1" stop-color="#8c8c8b" class="stopColor244d77 svgShape"></stop></linearGradient><path fill="#a3a1a0" d="M56.3,59.3l0.2,0.4c0.1,0.1,0,0.3-0.2,0.3l-1.6,0c-0.2,0-0.3-0.3-0.1-0.4l0.9-0.3L56.3,59.3z"></path></g><g><linearGradient id="p" x1="5925.636" x2="5928.837" y1="51.21" y2="51.21" gradientTransform="matrix(-1 0 0 1 5985.269 0)" gradientUnits="userSpaceOnUse"><stop offset="0" stop-color="#8c8c8b" class="stopColor416d99 svgShape"></stop><stop offset="1" stop-color="#8c8c8b" class="stopColor244d77 svgShape"></stop></linearGradient><path fill="#a3a1a0" d="M58.7,59.3c0,0,1-13.6,1-14.3c0-0.8-0.7-1.9-1.6-1.9c-0.9,0-1.6,1.2-1.6,2
					c0,0.7,1.5,14.2,1.5,14.2L58.7,59.3z"></path><linearGradient id="q" x1="5926.44" x2="5928.411" y1="59.627" y2="59.627" gradientTransform="matrix(-1 0 0 1 5985.269 0)" gradientUnits="userSpaceOnUse"><stop offset="0" stop-color="#8c8c8b" class="stopColor416d99 svgShape"></stop><stop offset="1" stop-color="#8c8c8b" class="stopColor244d77 svgShape"></stop></linearGradient><path fill="#a3a1a0" d="M58.7,59.3l0.2,0.4c0.1,0.1,0,0.3-0.2,0.3l-1.6,0c-0.2,0-0.3-0.3-0.1-0.4l0.9-0.3L58.7,59.3z"></path></g><g><linearGradient id="r" x1="5928.248" x2="5928.248" y1="40.394" y2="45.372" gradientTransform="matrix(-1 0 0 1 5985.269 0)" gradientUnits="userSpaceOnUse"><stop offset="0" stop-color="#faa34d" class="stopColorfaa34d svgShape"></stop><stop offset="1" stop-color="#ef851b" class="stopColoref7b1b svgShape"></stop></linearGradient><path fill="#8c8c8b" d="M54.2,44.5c-0.1,1.1,5.4,1.7,5.4,0.5c0-1.2,1.3-7.5-0.6-9.2c-0.5-0.5-1.9-0.9-2.9-0.5
				C52.3,36.9,54.9,39.4,54.2,44.5z"></path></g><g><linearGradient id="s" x1="3024.811" x2="3024.671" y1="34.273" y2="32.47" gradientTransform="matrix(-1 0 0 1 3080.967 0)" gradientUnits="userSpaceOnUse"><stop offset="0" stop-color="#f9cfa5" class="stopColorf9c7a5 svgShape"></stop><stop offset="1" stop-color="#f9c795" class="stopColorf9a395 svgShape"></stop></linearGradient><path fill="#edeceb" d="M54.8,32.4l2.6-0.2l0.2,3.1c-1,1.1-2.5,1-1.6,0.1l0-0.5l-0.3,0c-0.7,0-1.2-0.4-1.1-1L54.8,32.4z"></path><linearGradient id="t" x1="3022.825" x2="3028.462" y1="32.278" y2="32.278" gradientTransform="matrix(-1 0 0 1 3080.967 0)" gradientUnits="userSpaceOnUse"><stop offset="0" stop-color="#8c8c8b" class="stopColor416d99 svgShape"></stop><stop offset="1" stop-color="#8c8c8b" class="stopColor244d77 svgShape"></stop></linearGradient><path fill="url(#t)" d="M58,31.5c0.4,0.8,0,1.8-0.3,2.7c0,0.1-0.1,0.2-0.1,0.3c-0.1,0.1-0.2,0.1-0.3,0.1
				c-0.1,0-0.1-0.1-0.2-0.2c-0.4-0.4,0.1-1.7-0.5-1.6c-0.5,0,0,1.1-0.5,1.1c-0.3-0.1-0.1-0.9-0.9-0.8c-0.3,0-0.6,0.1-0.9,0.2
				c-0.3,0.1-0.6,0.2-0.9,0.1c-0.5-0.1-0.8-0.5-0.8-0.9c0-0.4,0.2-0.8,0.5-1.2c0.6-0.7,1.7-1.1,2.7-1.1C56.7,30.1,57.6,30.7,58,31.5
				z"></path></g><g><linearGradient id="u" x1="2847.554" x2="2853.486" y1="1405.658" y2="1405.658" gradientTransform="scale(-1 1) rotate(-50.58 -45.514 3793.938)" gradientUnits="userSpaceOnUse"><stop offset="0" stop-color="#f9cfa5" class="stopColorf9c7a5 svgShape"></stop><stop offset="1" stop-color="#f9c795" class="stopColorf9a395 svgShape"></stop></linearGradient><path fill="#edeceb" d="M53.7,42.2c0,0-0.4,0-0.9-0.1c-0.6-0.1-1.3-0.4-1.9-0.8c-0.6-0.4-1.1-0.9-1.4-1.3
					c-0.3-0.4-0.5-0.7-0.5-0.7c-1.5-0.3,0.4-1.2,0.7-0.6c0,0,0.2,0.2,0.6,0.5c0.3,0.3,0.8,0.6,1.3,0.9c0.5,0.2,1,0.3,1.4,0.4
					c0.4,0,0.6,0,0.6,0L53.7,42.2z"></path><g><path fill="#8c8c8b" d="M57.6,37.8c0,0-0.2,0.3-0.6,0.6c-0.3,0.4-0.8,0.8-1.3,1.2c-0.5,0.4-1.1,0.6-1.5,0.8
						c-0.4,0.1-0.7,0.2-0.7,0.2l0,1.8c0,0,0.4,0,1.1,0c0.6-0.1,1.5-0.3,2.2-0.7c0.8-0.4,1.4-0.8,1.9-1.2c0.5-0.4,0.8-0.6,0.8-0.6
						C60.7,38.5,58.7,36.7,57.6,37.8z" class="colorFAA34D svgShape"></path></g></g><g><linearGradient id="v" x1="4932.366" x2="4933.808" y1="867.153" y2="867.153" gradientTransform="scale(-1 1) rotate(-19.033 -39.042 15312.615)" gradientUnits="userSpaceOnUse"><stop offset="0" stop-color="#f9cfa5" class="stopColorf9c7a5 svgShape"></stop><stop offset="1" stop-color="#f9c795" class="stopColorf9a395 svgShape"></stop></linearGradient><path fill="url(#v)" d="M49,35.9c-1.3-1,1.1-0.8,1-0.2C49.8,35.9,49.5,36,49,35.9z"></path></g></g><linearGradient id="w" x1="53.987" x2="53.987" y1="23.404" y2="20.348" gradientUnits="userSpaceOnUse"><stop offset="0" stop-color="#ffffff" class="stopColorfff svgShape"></stop><stop offset="1" stop-color="#8c8c8b" class="stopColorf1f5fd svgShape"></stop></linearGradient><path fill="url(#w)" d="M59,23.4H49c0,0,0,0,0,0c0-0.8,0.6-1.4,1.4-1.4c0.2,0,0.3,0,0.5,0.1c0.4-1.1,1.4-1.9,2.6-1.9
		c1.1,0,2.1,0.7,2.5,1.6c0.3-0.2,0.6-0.3,1-0.3C58.1,21.5,59,22.4,59,23.4z"></path><linearGradient id="x" x1="66.395" x2="66.395" y1="37.684" y2="35.031" gradientUnits="userSpaceOnUse"><stop offset="0" stop-color="#ffffff" class="stopColorfff svgShape"></stop><stop offset="1" stop-color="#8c8c8b" class="stopColorf1f5fd svgShape"></stop></linearGradient><path fill="url(#x)" d="M70.8,37.7H62c0,0,0,0,0,0c0-0.7,0.6-1.3,1.3-1.3c0.1,0,0.3,0,0.4,0.1c0.3-0.9,1.2-1.6,2.3-1.6
		c1,0,1.8,0.6,2.2,1.4c0.3-0.1,0.6-0.2,0.9-0.2C69.9,36,70.7,36.8,70.8,37.7z"></path><linearGradient id="y" x1="13.026" x2="13.026" y1="45.425" y2="43.123" gradientUnits="userSpaceOnUse"><stop offset="0" stop-color="#ffffff" class="stopColorfff svgShape"></stop><stop offset="1" stop-color="#8c8c8b" class="stopColorf1f5fd svgShape"></stop></linearGradient><path fill="url(#y)" d="M16.8,45.5H9.2c0,0,0,0,0,0c0-0.6,0.5-1.1,1.1-1.1c0.1,0,0.2,0,0.3,0.1c0.3-0.8,1-1.4,2-1.4
		c0.8,0,1.5,0.5,1.9,1.2c0.2-0.1,0.5-0.2,0.8-0.2C16.1,44,16.8,44.6,16.8,45.5z"></path></svg></g></svg>