<svg id="SvgjsSvg2829" width="550" height="550" xmlns="http://www.w3.org/2000/svg" version="1.1" xmlns:xlink="http://www.w3.org/1999/xlink" xmlns:svgjs="http://svgjs.com/svgjs"><defs id="SvgjsDefs2830"></defs><g id="SvgjsG2831"><svg xmlns="http://www.w3.org/2000/svg" viewBox="0 0 2000 2000" width="550" height="550"><rect width="1590.832" height="1357.016" x="310.653" y="500.632" fill="#fff2e5" rx="26.075" ry="26.075" class="colore5e5ff svgShape"></rect><rect width="1590.832" height="164.189" x="310.653" y="500.632" fill="#e2964a" rx="21.328" ry="21.328" class="color4a53e2 svgShape"></rect><rect width="269.677" height="30.407" x="1563.053" y="557.628" fill="#ff8000" rx="11.462" ry="11.462" class="colorff6a00 svgShape"></rect><rect width="1430.358" height="95.593" x="389.466" y="773.604" fill="#ff8000" class="colorff6a00 svgShape"></rect><rect width="468.565" height="384.912" x="389.466" y="1328.932" fill="#a12592" class="colorfa0 svgShape"></rect><path fill="#ff8000" d="M858.03136,1713.84434v-267.25622c-16.06744-3.68977-33.44153-2.1763-48.76306,3.48122-58.8045,21.71036-89.07098,90.80196-127.5271,114.83704-10.47395,6.54708-23.54822,9.85697-34.23071,1.86998-20.03887-14.98115-17.7454-58.62245-50.5266-75.17292-23.4314-11.82906-50.3345-7.62702-73.34448,2.91443-16.78466,7.68985-21.14183,11.21362-134.1737,85.09047v134.236h468.56566Z" class="colorff6a00 svgShape"></path><circle cx="687.018" cy="1430.587" r="32.826" fill="#ff8000" class="colorff6a00 svgShape"></circle><rect width="432.223" height="345.259" x="389.466" y="926.435" fill="#fad6b2" class="colorb4b2fa svgShape"></rect><rect width="430.925" height="345.259" x="891.778" y="926.435" fill="#fad6b2" class="colorb4b2fa svgShape"></rect><rect width="431.574" height="345.259" x="1388.25" y="926.435" fill="#fad6b2" class="colorb4b2fa svgShape"></rect><path fill="#6a3e13" d="M818.68184 1267.87006c-5.20384-6.6304.83427-1.0555-209.05854-165.42075 7.23772-5.78978 198.30465-158.48773 205.90936-165.52364 5.36814-4.96614-1.75544-14.58023-7.93819-10.28868-9.95107 6.90845-.99407.24168-208.76685 167.37242-200.39268-156.54678-198.84885-153.97234-207.55873-157.58863-2.05243-.85173-4.247 2.07365-2.9519 3.83969 5.21612 7.11423 4.42268 8.08669 199.91965 162.27369-25.73594 20.70764-171.6988 138.01462-197.17352 160.54689-4.17911 3.69756 1.42981 11.19663 6.04592 7.83637 27.22868-19.81573 46.18077-35.4125 201.84904-159.92851 211.97797 166.80996 205.16581 162.30116 212.85474 165.78351 6.01835 2.72597 10.89115-3.77923 6.86902-8.90236zM1321.88207 1267.87006c-5.20384-6.6304.83427-1.0555-209.05854-165.42075 7.23772-5.78978 198.30465-158.48773 205.90936-165.52364 5.36814-4.96614-1.75544-14.58023-7.93819-10.28868-9.95107 6.90845-.99407.24168-208.76685 167.37242-200.39268-156.54678-198.84885-153.97234-207.55873-157.58863-2.05243-.85173-4.247 2.07365-2.9519 3.83969 5.21612 7.11423 4.42268 8.08669 199.91965 162.27369-25.73594 20.70764-171.6988 138.01462-197.17352 160.54689-4.17911 3.69756 1.42981 11.19663 6.04592 7.83637 27.22868-19.81573 46.18077-35.4125 201.84904-159.92851 211.97797 166.80996 205.16581 162.30116 212.85474 165.78351 6.01835 2.72597 10.89115-3.77923 6.86902-8.90236zM1825.0823 1267.87006c-5.20384-6.6304.83427-1.0555-209.05854-165.42075 7.23772-5.78978 198.30465-158.48773 205.90936-165.52364 5.36814-4.96614-1.75544-14.58023-7.93819-10.28868-9.95107 6.90845-.99407.24168-208.76685 167.37242-200.39268-156.54678-198.84885-153.97234-207.55873-157.58863-2.05243-.85173-4.247 2.07365-2.9519 3.83969 5.21612 7.11423 4.42268 8.08669 199.91965 162.27369-25.73594 20.70764-171.6988 138.01462-197.17352 160.54689-4.17911 3.69756 1.42981 11.19663 6.04592 7.83637 27.22868-19.81573 46.18077-35.4125 201.84904-159.92851 211.97797 166.80996 205.16581 162.30116 212.85474 165.78351 6.01835 2.72597 10.89115-3.77923 6.86902-8.90236z" class="color1b136a svgShape"></path><rect width="445.851" height="86.334" x="924.877" y="1328.932" fill="#ff8000" class="colorff6a00 svgShape"></rect><rect width="419.286" height="16.72" x="924.877" y="1472.751" fill="#a12592" rx="7.697" ry="7.697" class="colorfa0 svgShape"></rect><rect width="419.286" height="16.72" x="924.877" y="1524.211" fill="#a12592" rx="7.697" ry="7.697" class="colorfa0 svgShape"></rect><rect width="419.286" height="16.72" x="924.877" y="1575.672" fill="#a12592" rx="7.697" ry="7.697" class="colorfa0 svgShape"></rect><rect width="419.286" height="16.72" x="924.877" y="1627.132" fill="#a12592" rx="7.697" ry="7.697" class="colorfa0 svgShape"></rect><rect width="419.286" height="16.72" x="924.877" y="1678.593" fill="#a12592" rx="7.697" ry="7.697" class="colorfa0 svgShape"></rect><rect width="419.286" height="16.72" x="1400.538" y="1472.751" fill="#a12592" rx="7.697" ry="7.697" class="colorfa0 svgShape"></rect><rect width="419.286" height="16.72" x="1400.538" y="1524.211" fill="#a12592" rx="7.697" ry="7.697" class="colorfa0 svgShape"></rect><rect width="419.286" height="16.72" x="1400.538" y="1575.672" fill="#a12592" rx="7.697" ry="7.697" class="colorfa0 svgShape"></rect><rect width="419.286" height="16.72" x="1400.538" y="1627.132" fill="#a12592" rx="7.697" ry="7.697" class="colorfa0 svgShape"></rect><rect width="419.286" height="16.72" x="1400.538" y="1678.593" fill="#a12592" rx="7.697" ry="7.697" class="colorfa0 svgShape"></rect><path fill="#fad6b2" d="M97.04343,517.74267c-1.67361-72.85834,2.563-140.80231,58.43076-187.97925,49.83843-42.0853,124.19749-53.52101,188.76118-59.62029,86.93102-8.21334,176.08517-3.02352,240.66645,9.05947,31.1568,5.82937,62.72112,14.83967,90.00048,31.40176,27.57246,16.73998,49.16837,41.00701,60.15441,71.57154,11.35219,31.58224,10.91941,65.98466,6.74891,98.94853,8.47698,59.47907-3.95969,122.04569-40.20285,170.79472-24.47684,32.92278-58.33983,56.01969-95.72928,71.50511,19.3782,32.73483,48.42158,53.4067,79.67984,61.23772,8.9329,2.23766,6.97447,13.78008-1.26622,15.21162-57.80467,10.04205-120.98856-6.11223-168.24182-53.36418-40.26051,5.10598-80.98497,4.71742-121.47456,3.42532-40.13504-1.28088-80.70979-1.93162-120.40004-8.57418-91.5886-15.32808-140.78794-61.10741-161.07959-116.22638-12.58128-34.1758-15.21802-71.28646-16.04768-107.39151Z" class="colorb4b2fa svgShape"></path><path fill="#fff2e5" d="M1343.5954,371.02037c1.33094-57.94071-2.03823-111.97326-46.46715-149.49079-39.63409-33.4684-98.76825-42.56267-150.11262-47.41313-69.13203-6.53167-140.032-2.40446-191.39037,7.20456-102.94841,19.26142-135.79111,73.53048-124.77799,160.57864-6.74134,47.30083,3.14895,97.05702,31.97138,135.82476,19.46524,26.18189,46.39484,44.54975,76.12886,56.86455-15.41054,26.03242-38.50734,42.47176-63.36551,48.69939-7.1039,1.7795-5.54646,10.95863,1.00697,12.09706,45.96925,7.98595,96.21634-4.86076,133.79457-42.43794,32.01724,4.06054,64.40342,3.75153,96.60283,2.72399,31.91745-1.01862,64.18459-1.53613,95.74832-6.81863,72.83598-12.18968,111.96183-48.59577,128.09879-92.42921,10.00528-27.17836,12.10215-56.69067,12.76194-85.40326Z" class="colore5e5ff svgShape"></path><rect width="253.591" height="99.078" x="317.068" y="529.076" fill="#6a3e13" class="color1b136a svgShape"></rect><polygon fill="#a12592" points="570.659 529.076 317.068 529.076 283.686 404.339 604.04 404.339 570.659 529.076" class="colorfa0 svgShape"></polygon><path fill="#a12592" d="M471.57917 142.40235h-13.58233v149.96402c14.29775 5.64149 24.42972 19.55117 24.42972 35.85393 0 21.29879-17.26501 38.5638-38.5638 38.5638-21.29747 0-38.5638-17.26501-38.5638-38.5638 0-16.30276 10.13197-30.21113 24.43104-35.85393v-149.96402h-13.58233l-132.46142 261.93579h320.35435l-132.46142-261.93579zM1025.77366 381.07215c-2.72598-1.85488-24.88629-18.30312-40.00036-28.57925 9.5141-9.8935 16.46457-14.55059 29.26185-28.27971 15.12013-16.22125-5.41159-46.97335-24.95464-32.34219-14.54927 10.89271-28.15116 22.96026-41.66534 35.1055-10.02114 9.00587-18.66379 18.87584-15.82863 33.46525 3.03545 15.61987 12.62409 19.48381 70.93069 58.70684 23.6389 15.90188 45.58552-22.20207 22.25643-38.07643zM1165.91667 381.07215c2.72598-1.85488 24.88629-18.30312 40.00036-28.57925-9.5141-9.8935-16.46457-14.55059-29.26185-28.27971-15.12013-16.22125 5.41159-46.97335 24.95464-32.34219 14.54927 10.89271 28.15116 22.96026 41.66534 35.1055 10.02114 9.00587 18.66379 18.87584 15.82863 33.46525-3.03545 15.61987-12.62409 19.48381-70.93069 58.70684-23.6389 15.90188-45.58552-22.20207-22.25643-38.07643zM1116.52209 234.77502c-3.23221-9.43886-16.98504-12.61508-22.26809-2.91027-10.96755 20.14751-12.63954 41.62954-25.81151 191.9363-1.70254 19.42921-7.48343 40.27704 10.57404 53.0006 3.96451 2.79363 9.17197 1.9251 13.2025 0 17.29811-8.26215 15.6455-28.8326 16.98527-45.41755 12.83541-158.9003 14.37822-175.99031 7.3178-196.60907z" class="colorfa0 svgShape"></path><path fill="#6a3e13" d="M325.58947 1022.17733c-.08486-3.16297-4.70097-3.12797-4.88765 0-2.43322 40.73468-2.8384 81.55635-3.57558 122.35998-9.13132 505.42818-9.25173 486.97215-8.54915 505.68435.20471 5.453 8.0379 5.37769 8.41762 0 1.44678-20.50629 1.23782-41.17169 1.54118-61.72147 7.78945-528.26463 8.29917-519.73309 7.05358-566.32286zM311.40489 1732.50139c-1.30498 9.31766-1.56062 4.76785-5.15813 40.49391-.44125 4.38489-1.88909 9.77637-.09228 13.91093 1.09887 2.52974 4.5249 1.81802 5.80303 0 1.33859-1.905 1.40435-4.51853 1.65043-6.78522 3.79191-35.1347 3.35744-41.8457 3.66362-46.82516.20365-3.30617-5.39678-4.15154-5.86667-.79446zM1614.32824 665.88143c-41.15472-1.33435-82.55445.13153-123.72932.367-505.40882 2.89909-493.46938 2.80492-512.28395 4.40398-3.52149.29911-3.55119 5.23132 0 5.49861 32.15794 2.41451 632.7946-1.37652 636.01328-1.51254 5.62271-.23865 5.65135-8.57461 0-8.75705zM1748.92644 665.89628c-1.538-1.49239-3.28177-1.62073-5.31193-1.84984-5.51149-.61787-23.40906-1.70686-35.89582-1.82226-4.22704-.03762-5.15304 6.47398 0 7.05994 12.71615 1.44938 30.24781 2.49639 35.13213 2.58384 1.85302.03394 3.87363.20365 5.42966-.95992 1.59421-1.19327 2.25608-3.44724.64596-5.01175zM1896.59126 920.82323c-2.83893 88.04895-5.94871 308.6976-9.93865 533.19543-.88461 49.811-2.9869 99.75458-1.24949 149.55497.12092 3.47376 5.12419 3.42496 5.36284 0 3.31098-47.62979 12.36213-635.00581 12.47794-682.7504.01061-4.29049-6.51475-4.27351-6.65264 0zM1894.74142 1691.83671c-.035-5.1104-7.90849-5.11888-7.94244 0-.17008 24.85012-.57695 28.7982.92704 34.58587.78067 3.00493 5.30556 3.00811 6.08729 0 1.48985-5.73327 1.09581-9.40241.9281-34.58587zM1785.63899 776.72869c-12.15986-.57301-460.00718-6.83905-433.49494-6.54021-4.32867-.04879-4.32443 6.63249 0 6.72052 33.19023.67253 414.68968 7.44333 433.49494 7.15116 4.73597-.07319 4.69991-7.1098 0-7.33148zM1057.45188 1834.05172c-23.86642-.84142-.36552-.40698-589.25176-3.06645-2.84158.01485-2.84158 4.36155 0 4.41246 105.81695 1.90499 576.05645 4.85457 589.25176 4.5599 3.80469-.08486 3.79833-5.77227 0-5.90591zM1234.30791 1813.45315c-1.7729-4.03916-5.87756-1.9837-35.27214 7.76848-2.00046.66293-3.30511 2.69415-2.72597 4.80068.53989 1.96652 2.78855 3.38254 4.80174 2.72703 23.74819-7.73075 26.75022-8.50275 31.83551-11.14253 1.4542-.75521 1.99409-2.71536 1.36086-4.15366zM908.09526 498.86116c-2.7684-3.20858-6.73537-5.4583-10.00866-8.13442-40.14898-32.79222-64.14838-83.33062-65.30341-134.55047-.18032-7.9541 1.58361-16.39294.75839-24.21976-.32881-3.11842-4.35094-3.78454-5.46679-.74036-2.71748 7.41527-2.08744 17.15452-2.00152 24.96012.56571 51.48002 24.09432 100.76567 59.52054 133.35613 5.61104 5.16237 12.19368 11.89562 19.39681 14.6619 3.23828 1.24313 4.97251-3.16722 3.10464-5.33314zM1335.56549 324.74912c-.12879-20.59613-3.8855-42.57933-11.38861-63.23189-2.79279-7.68999-5.6312-16.87556-11.09374-23.07316-1.99622-2.26457-5.34163.17713-4.76567 2.7737 1.80741 8.15882 6.60703 15.92624 9.34467 23.87186 5.30276 15.39739 8.62084 31.40336 9.71591 47.65144 1.14476 16.97756-.5174 19.32844.85598 24.88694.82522 3.33693 5.24404 2.84265 6.28458 0 1.46587-4.00622 1.07236-8.66264 1.0469-12.87888zM1340.26434 398.45744c-.54307-2.16274-3.92455-2.7737-4.9619-.64914-1.7512 3.58088-1.68437 7.83-2.11926 11.76834-3.69209 33.50972-3.82427 32.54468-3.12479 34.60284.83158 2.44701 4.18548 3.07388 5.58346.72975 1.07744-1.80648 1.02656-2.77094 1.9453-11.93911 3.18501-31.8786 3.52235-31.1497 2.67718-34.51269zM323.71312 734.83043c-85.36983 16.21483-176.39628-36.70583-209.29932-130.80836-7.71757-22.07293-12.26898-46.5218-11.94123-69.96196.04031-2.94341-4.39443-2.90841-4.54823 0-6.82087 128.44741 113.31172 232.58992 227.91864 208.49425 5.06585-1.06493 2.89674-8.67961-2.12986-7.72393zM747.2291 465.34446c-.97371-9.10177-1.58149-19.25892-4.99584-27.81338-.96098-2.4067-4.82507-2.31124-4.80068.6502.10802 13.31918 4.55444 22.02121 4.43368 54.58622-.21162 57.01206-16.14795 109.67515-44.46513 154.50308-2.61884 4.14729 3.96804 7.9785 6.5646 3.83757 34.82929-55.51623 50.10161-121.93766 43.26337-185.7637zM697.89011 329.31221c-8.58711-15.82722-24.41663-27.75007-42.02024-31.53851-4.16957-.89734-5.95789 5.46891-1.76923 6.41504 14.23868 3.21417 26.23088 11.73867 33.85718 22.62767 5.32064 7.60214 4.90773 10.60946 7.8003 12.33581 1.68649 1.00659 4.04865.07955 4.53763-1.8456.68733-2.71006-1.14236-5.66514-2.40564-7.99441zM309.85098 347.88168c-11.36952 16.77691-21.84806 36.33707-22.89921 56.96746-1.10524 21.69426 8.14397 42.47952 16.74721 61.85406 2.01319 4.53444 8.7125.6099 6.68234-3.90652-8.22458-18.29688-16.7207-37.46776-16.2402-57.94754.47307-20.20081 11.00252-37.09758 19.81366-54.56925 1.38208-2.74188-2.38655-4.93114-4.1038-2.39822zM347.36011 281.07209c-1.91136 1.21873-2.93599 3.20116-4.10699 5.07221-3.17693 5.07416-5.75301 9.12279-8.60006 14.14004-1.83526 3.23655 2.64937 6.14379 4.98312 2.91265 3.42607-4.74782 5.87161-8.53316 9.19723-13.58212 1.06811-1.62285 2.48201-3.31147 2.76415-5.28541.44612-3.10622-2.49373-4.37184-4.23745-3.25737zM540.62181 267.61513c-7.27474-15.54467-30.41282-56.40328-37.79446-68.70716-1.67589-2.79385-5.77863-.33942-4.33716 2.53505 6.35917 12.68729 28.36039 54.03205 37.73506 68.74217 1.78514 2.80022 5.77227.36912 4.39655-2.57005zM968.78786 392.94504c-12.0176-13.61712-23.96202-27.30637-36.14721-40.77499 7.1798-8.74856 14.80615-17.37514 20.84677-26.90437 1.92515-3.03781-2.34624-6.08729-4.85053-3.74317-8.96918 8.39217-16.48098 18.49629-24.46054 27.80913-1.57088 1.83393-1.55603 4.07941 0 5.92713 12.52249 14.88146 25.38546 29.4776 38.13176 44.16707 3.86515 4.45383 10.37778-2.0641 6.47975-6.48081zM1078.61792 328.40214c-3.59361 42.30132-5.37769 84.7819-7.74409 127.16702-.26093 4.67021 7.00373 4.65536 7.2636 0 2.36427-42.36072 5.32147-84.7522 6.45429-127.16702.10395-3.88955-5.65347-3.77817-5.9738 0zM1200.10707 362.61146c-2.33938-.76329-3.57672.50157-8.85887 3.98289-4.96042 3.26718-17.69346 11.77467-22.46432 15.55394-1.16358.92174-1.08084 2.90629-.23547 3.96591.95568 1.2007 2.53399 1.50194 3.89591.77855 5.79469-3.07677 28.28036-17.55467 28.93983-18.21414.83794-.83794 1.00023-1.80105 1.11478-2.92432.1485-1.4542-1.12539-2.72809-2.39185-3.14282zM266.55473 811.35805c-26.50567 24.35531-120.92521 119.43507-126.04269 124.59803-5.64074 5.68953-12.06003 11.28679-16.68039 17.85563-1.44784 2.05668 1.42663 4.91099 3.48224 3.48224 6.60597-4.5896 12.22125-10.96646 17.95322-16.58281.40914-.40089 103.37247-101.70924 125.32036-125.32142 2.50429-2.69415-1.32692-6.51687-4.03274-4.03168zM200.55656 787.08313c-11.42786 4.96296-22.29567 11.33876-33.29289 17.18952-10.89751 5.79878-22.62979 11.02586-32.74876 18.11974-2.38655 1.67271-1.0172 6.28564 2.14471 5.08706 11.61348-4.40398 22.55554-11.11814 33.53049-16.89995 11.20405-5.90273 22.78465-11.38437 33.48488-18.16217 3.44087-2.17972.45397-6.88493-3.11842-5.3342zM264.89369 927.99879c-26.01015 46.91095-22.94257 42.28406-27.81444 50.27982-2.38443 3.91182 4.18972 7.56271 6.03744 3.52891 3.92033-8.56188 1.70058-3.22419 26.11521-51.27263 1.45526-2.86492-2.75991-5.38193-4.33822-2.53611zM1475.05664 201.17254c-.53777-2.65702-4.13456-2.17017-4.90993 0-2.71006 7.58817-2.22851 17.32635-2.84371 25.3547-3.7991 49.57825-10.66652 136.77869-12.68265 185.62475-.1538 3.72514 5.33526 3.57876 5.70226 0 5.07373-49.44807 10.41265-131.8517 13.95548-184.55133.56323-8.3858 2.44701-18.1802.77855-26.42812zM1573.71978 270.24458c-10.3164 21.48662-34.7241 87.54646-40.90652 105.20334-1.40223 4.00198 4.66067 5.4286 6.21882 1.71407 7.41536-17.68336 33.30303-82.54495 39.83628-104.74724.88143-2.99432-3.74211-5.09979-5.14858-2.17017zM1687.94003 359.83034c-25.47562 21.18619-49.80675 43.62082-74.30018 65.92392-3.92031 3.56922 1.89227 9.34042 5.80833 5.80833 24.57085-22.16627 49.25838-44.15541 72.81203-67.41312 2.84689-2.81082-1.34601-6.79265-4.32018-4.31912z" class="color1b136a svgShape"></path></svg></g></svg>