<svg id="SvgjsSvg2129" width="550" height="550" xmlns="http://www.w3.org/2000/svg" version="1.1" xmlns:xlink="http://www.w3.org/1999/xlink" xmlns:svgjs="http://svgjs.com/svgjs"><defs id="SvgjsDefs2130"></defs><g id="SvgjsG2131"><svg xmlns="http://www.w3.org/2000/svg" data-name="Layer 1" viewBox="0 0 1159 771" width="550" height="550"><path fill="#020202" d="M949.73,627.67H203a.8.8,0,1,1,0-1.6h746.7a.8.8,0,0,1,0,1.6Z" class="color020202 svgShape"></path><path fill="#fffcf9" d="M456.4,110.46H299.17A20.49,20.49,0,0,0,278.67,131c0,57.29,0,360.4,0,419.44a28.48,28.48,0,0,0,28.48,28.47H448.43a28.47,28.47,0,0,0,28.47-28.47c0-59,0-362.15,0-419.44A20.49,20.49,0,0,0,456.4,110.46Z" class="colorfff9ff svgShape"></path><path fill="#020202" d="M448.43,579.33H307.14a29,29,0,0,1-28.95-28.94V131a21,21,0,0,1,21-21H456.4a21,21,0,0,1,21,21V550.39A29,29,0,0,1,448.43,579.33ZM299.17,110.93a20,20,0,0,0-20,20V550.39a28,28,0,0,0,28,28H448.43a28,28,0,0,0,28-28V131a20,20,0,0,0-20-20Z" class="color020202 svgShape"></path><path fill="#e6994c" d="M456.4,110.46H299.17A20.49,20.49,0,0,0,278.67,131v18.84H476.89V131A20.49,20.49,0,0,0,456.4,110.46Z" class="color4c5ee6 svgShape"></path><path fill="#020202" d="M477.37,150.26H278.2V131a21,21,0,0,1,21-21H456.4a21,21,0,0,1,21,21Zm-198.23-.94H476.42V131a20,20,0,0,0-20-20H299.17a20,20,0,0,0-20,20Z" class="color020202 svgShape"></path><path fill="#fffcf9" d="M299,119.94a9.83,9.83,0,1,0,9.83,9.83A9.83,9.83,0,0,0,299,119.94Z" class="colorfff9ff svgShape"></path><path fill="#020202" d="M299,140.07a10.3,10.3,0,1,1,10.3-10.3A10.31,10.31,0,0,1,299,140.07Zm0-19.66a9.36,9.36,0,1,0,9.36,9.36A9.37,9.37,0,0,0,299,120.41Z" class="color020202 svgShape"></path><polygon fill="#ffffff" points="456.07 132.98 451.15 128.26 450.07 129.38 456.09 135.16 461.88 129.37 460.78 128.27 456.07 132.98" class="colorfff svgShape"></polygon><rect width="125.03" height=".94" x="315.27" y="204.72" fill="#020202" class="color020202 svgShape"></rect><path d="M331.46 196V175.48h-7.34v-4.19h19.66v4.19h-7.33V196zM345.36 183.81a15.59 15.59 0 011.14-6.34 11.8 11.8 0 012.3-3.4 9.53 9.53 0 013.2-2.22 13.41 13.41 0 015.33-1 11.63 11.63 0 018.75 3.39q3.29 3.39 3.28 9.43t-3.26 9.38a11.53 11.53 0 01-8.7 3.38 11.66 11.66 0 01-8.78-3.36Q345.37 189.72 345.36 183.81zm5.15-.17c0 2.8.65 4.93 1.94 6.37a6.33 6.33 0 004.93 2.17 6.25 6.25 0 004.9-2.15c1.28-1.43 1.92-3.59 1.92-6.45s-.62-5-1.87-6.35a6.91 6.91 0 00-9.93 0Q350.51 179.38 350.51 183.64zM382.84 171.29H392a18.07 18.07 0 014.71.47 8.29 8.29 0 013.73 2.28 10.74 10.74 0 012.36 4 18.26 18.26 0 01.81 5.85 16.42 16.42 0 01-.75 5.26 11 11 0 01-2.65 4.37 8.85 8.85 0 01-3.51 2 15.16 15.16 0 01-4.43.52h-9.4zm5 4.19v16.38h3.73a14.22 14.22 0 003-.23 4.78 4.78 0 002-1 5.24 5.24 0 001.3-2.39 16 16 0 00.51-4.53 14.71 14.71 0 00-.51-4.41 5.63 5.63 0 00-1.41-2.39 4.71 4.71 0 00-2.31-1.17 22.71 22.71 0 00-4.11-.23zM406.81 183.81a15.6 15.6 0 011.13-6.34 11.8 11.8 0 012.3-3.4 9.53 9.53 0 013.2-2.22 13.44 13.44 0 015.33-1 11.61 11.61 0 018.75 3.39q3.28 3.39 3.29 9.43t-3.26 9.38a11.55 11.55 0 01-8.71 3.38 11.68 11.68 0 01-8.78-3.36Q406.8 189.72 406.81 183.81zm5.14-.17c0 2.8.65 4.93 1.95 6.37a6.67 6.67 0 009.83 0c1.27-1.43 1.91-3.59 1.91-6.45s-.62-5-1.86-6.35a6.92 6.92 0 00-9.94 0Q412 179.38 412 183.64z" fill="#000000" class="color000 svgShape"></path><polygon fill="#e6994c" points="350.66 314.96 354.37 354.64 312.56 353.08 308.85 313.4 350.66 314.96" class="color4c5ee6 svgShape"></polygon><path fill="#020202" d="M354.89,355.13l-.54,0-42.22-1.57-3.8-40.63,42.76,1.59Zm-41.9-2.5,40.86,1.52-3.62-38.74-40.86-1.51Z" class="color020202 svgShape"></path><path fill="#020202" d="M328.43,317.05a2.71,2.71,0,0,1,2.95,1.83,1.94,1.94,0,0,1-1.57,2.57,2.71,2.71,0,0,1-2.95-1.83A1.94,1.94,0,0,1,328.43,317.05Z" class="color020202 svgShape"></path><polygon fill="#f9cb9e" points="388.28 235.73 380.99 274.91 341.19 261.97 348.49 222.79 388.28 235.73" class="color9eabf9 svgShape"></polygon><path fill="#020202" d="M381.35,275.53l-40.69-13.24,7.47-40.11,40.69,13.23Zm-39.62-13.88,38.89,12.65,7.12-38.25L348.86,223.4Z" class="color020202 svgShape"></path><path fill="#020202" d="M366.33,231.66a2.7,2.7,0,0,1,2.33,2.56,1.94,1.94,0,0,1-2.21,2.05,2.72,2.72,0,0,1-2.34-2.57A1.94,1.94,0,0,1,366.33,231.66Z" class="color020202 svgShape"></path><polygon fill="#ffffff" points="442.05 281.31 460.45 316.67 421.13 330.99 402.74 295.64 442.05 281.31" class="colorfff svgShape"></polygon><path fill="#020202" d="M420.91,331.58l-.19-.37-18.65-35.83,40.21-14.65,18.83,36.2ZM403.4,295.9l18,34.51,38.42-14-18-34.51Z" class="color020202 svgShape"></path><path fill="#020202" d="M422.25,291.63a2.71,2.71,0,0,1,3.42.59,1.94,1.94,0,0,1-.49,3,2.71,2.71,0,0,1-3.41-.58A1.94,1.94,0,0,1,422.25,291.63Z" class="color020202 svgShape"></path><path fill="#e6994c" d="M323.24,403.34h107.5a23.62,23.62,0,0,1,0,47.24H323.24a23.62,23.62,0,0,1,0-47.24Z" class="color4c5ee6 svgShape"></path><path fill="#020202" d="M430.74,451.05H323.24a24.09,24.09,0,0,1,0-48.18h107.5a24.09,24.09,0,0,1,0,48.18Zm-107.5-47.24a23.15,23.15,0,0,0,0,46.3h107.5a23.15,23.15,0,0,0,0-46.3Z" class="color020202 svgShape"></path><path fill="#fffcf9" d="M323.91,408.89A18.07,18.07,0,1,1,305.84,427,18.07,18.07,0,0,1,323.91,408.89Z" class="colorfff9ff svgShape"></path><path fill="#020202" d="M323.91,445.5A18.54,18.54,0,1,1,342.45,427,18.56,18.56,0,0,1,323.91,445.5Zm0-36.14a17.6,17.6,0,1,0,17.6,17.6A17.63,17.63,0,0,0,323.91,409.36Z" class="color020202 svgShape"></path><path d="M322.05,431.38l-3.81-3.81L317,428.78l4.42,4.42a.86.86,0,0,0,.61.25.88.88,0,0,0,.61-.25l11.26-11.26-1.22-1.22Z" fill="#000000" class="color000 svgShape"></path><path fill="#e6994c" d="M323.24,471.69h107.5a23.62,23.62,0,0,1,0,47.23H323.24a23.62,23.62,0,1,1,0-47.23Z" class="color4c5ee6 svgShape"></path><path fill="#020202" d="M430.74,519.39H323.24a24.09,24.09,0,1,1,0-48.17h107.5a24.09,24.09,0,1,1,0,48.17Zm-107.5-47.23a23.15,23.15,0,1,0,0,46.29h107.5a23.15,23.15,0,0,0,0-46.29Z" class="color020202 svgShape"></path><path fill="#fffcf9" d="M323.91,477.24a18.07,18.07,0,1,1-18.07,18.07A18.07,18.07,0,0,1,323.91,477.24Z" class="colorfff9ff svgShape"></path><path fill="#020202" d="M323.91,513.84a18.54,18.54,0,1,1,18.54-18.53A18.56,18.56,0,0,1,323.91,513.84Zm0-36.13a17.6,17.6,0,1,0,17.6,17.6A17.62,17.62,0,0,0,323.91,477.71Z" class="color020202 svgShape"></path><path d="M322.05,499.72l-3.81-3.81L317,497.13l4.42,4.41a.87.87,0,0,0,.61.26.89.89,0,0,0,.61-.26l11.26-11.26-1.22-1.21Z" fill="#000000" class="color000 svgShape"></path><path fill="#fffcf9" d="M675.82,69.08H518.59a20.49,20.49,0,0,0-20.5,20.49V509a28.46,28.46,0,0,0,28.47,28.47H667.85A28.46,28.46,0,0,0,696.32,509V89.57A20.49,20.49,0,0,0,675.82,69.08Z" class="colorfff9ff svgShape"></path><path fill="#020202" d="M667.85,537.94H526.56A28.92,28.92,0,0,1,497.62,509V89.57a21,21,0,0,1,21-21H675.82a21,21,0,0,1,21,21V509A29,29,0,0,1,667.85,537.94ZM518.59,69.55a20.05,20.05,0,0,0-20,20V509a28,28,0,0,0,28,28H667.85a28,28,0,0,0,28-28V89.57a20.05,20.05,0,0,0-20-20Z" class="color020202 svgShape"></path><path fill="#e6994c" d="M675.82,69.08H518.59a20.49,20.49,0,0,0-20.5,20.49v18.84H696.32V89.57A20.49,20.49,0,0,0,675.82,69.08Z" class="color4c5ee6 svgShape"></path><path fill="#020202" d="M696.79,108.88H497.62V89.57a21,21,0,0,1,21-21H675.82a21,21,0,0,1,21,21Zm-198.23-.95H695.85V89.57a20.05,20.05,0,0,0-20-20H518.59a20.05,20.05,0,0,0-20,20Z" class="color020202 svgShape"></path><path fill="#fffcf9" d="M518.44,78.55a9.83,9.83,0,1,0,9.83,9.83A9.83,9.83,0,0,0,518.44,78.55Z" class="colorfff9ff svgShape"></path><path fill="#020202" d="M518.44,98.68a10.3,10.3,0,1,1,10.3-10.3A10.31,10.31,0,0,1,518.44,98.68Zm0-19.65a9.36,9.36,0,1,0,9.36,9.35A9.36,9.36,0,0,0,518.44,79Z" class="color020202 svgShape"></path><polygon fill="#ffffff" points="675.49 91.6 670.57 86.87 669.49 87.99 675.51 93.78 681.31 87.98 680.21 86.88 675.49 91.6" class="colorfff svgShape"></polygon><rect width="125.03" height=".94" x="534.69" y="163.33" fill="#020202" class="color020202 svgShape"></rect><path d="M543.06 129.91h9.13a17.64 17.64 0 014.71.47 8.34 8.34 0 013.73 2.28 10.83 10.83 0 012.36 4 18.26 18.26 0 01.81 5.85 16.2 16.2 0 01-.76 5.27 10.93 10.93 0 01-2.65 4.37 8.77 8.77 0 01-3.51 2 15 15 0 01-4.42.52h-9.4zm5 4.18v16.39h3.73a13.43 13.43 0 003-.24 4.58 4.58 0 002-1 5.19 5.19 0 001.31-2.39 16 16 0 00.51-4.53 14.64 14.64 0 00-.51-4.4 5.68 5.68 0 00-1.42-2.4 4.74 4.74 0 00-2.31-1.16 22.28 22.28 0 00-4.1-.24zM567 142.43a15.82 15.82 0 011.13-6.35 11.85 11.85 0 012.31-3.39 9.71 9.71 0 013.2-2.23 13.59 13.59 0 015.33-1 11.6 11.6 0 018.75 3.4q3.28 3.39 3.28 9.43t-3.26 9.37a11.5 11.5 0 01-8.7 3.39 11.63 11.63 0 01-8.78-3.37C568.11 149.46 567 146.36 567 142.43zm5.15-.17q0 4.2 1.94 6.37A6.36 6.36 0 00579 150.8a6.27 6.27 0 004.9-2.15q1.92-2.16 1.92-6.46c0-2.83-.62-4.95-1.87-6.34a6.29 6.29 0 00-5-2.1 6.36 6.36 0 00-5 2.12Q572.17 138 572.17 142.26zM594.77 154.64V129.91h5v24.73zM604.57 154.64V129.91h4.86l10.13 16.52V129.91h4.64v24.73h-5l-10-16.13v16.13zM641 145.55v-4.17h10.77v9.86a13.69 13.69 0 01-4.55 2.67 16.61 16.61 0 01-6 1.16 13.58 13.58 0 01-6.76-1.63 10.37 10.37 0 01-4.34-4.66 15 15 0 01-1.45-6.59 14.23 14.23 0 011.62-6.87 10.86 10.86 0 014.74-4.6 12.69 12.69 0 015.92-1.24 11.78 11.78 0 017.2 1.94 8.64 8.64 0 013.33 5.34l-5 .93a5.17 5.17 0 00-2-2.88 5.92 5.92 0 00-3.61-1.06 6.78 6.78 0 00-5.2 2.08c-1.29 1.38-1.93 3.44-1.93 6.16 0 2.93.65 5.14 2 6.61a6.58 6.58 0 005.13 2.2 8.61 8.61 0 003.15-.62 10.9 10.9 0 002.71-1.49v-3.14z" fill="#000000" class="color000 svgShape"></path><polygon fill="#e6994c" points="560.49 468.2 568.49 502.48 531.71 506.13 523.71 471.85 560.49 468.2" class="color4c5ee6 svgShape"></polygon><path fill="#020202" d="M531.34,506.64l-8.21-35.2,37.72-3.75,8.22,35.21Zm-7.05-34.37,7.78,33.35,35.84-3.55-7.79-33.36Z" class="color020202 svgShape"></path><path fill="#020202" d="M541.28,472.69a2.4,2.4,0,0,1,2.8,1.25,1.71,1.71,0,0,1-1.07,2.44,2.39,2.39,0,0,1-2.79-1.25A1.71,1.71,0,0,1,541.28,472.69Z" class="color020202 svgShape"></path><polygon fill="#f9cb9e" points="655.27 479.53 648.71 514.75 612.94 503.12 619.5 467.9 655.27 479.53" class="color9eabf9 svgShape"></polygon><path fill="#020202" d="M649.08,515.37l-36.67-11.93.07-.41,6.66-35.74,36.67,11.92-.07.41Zm-35.6-12.57,34.87,11.34,6.38-34.29-34.86-11.34Z" class="color020202 svgShape"></path><path fill="#020202" d="M635.54,475.87a2.45,2.45,0,0,1,2.1,2.31,1.75,1.75,0,0,1-2,1.83,2.42,2.42,0,0,1-2.09-2.3A1.74,1.74,0,0,1,635.54,475.87Z" class="color020202 svgShape"></path><polygon fill="#ffffff" points="595.59 408.78 600.01 448.39 558.17 447.58 553.76 407.98 595.59 408.78" class="colorfff svgShape"></polygon><path fill="#020202" d="M600.54,448.87l-42.79-.82-4.52-40.55,42.78.82Zm-41.94-1.75,40.88.79-4.31-38.66-40.89-.79Z" class="color020202 svgShape"></path><path fill="#ffffff" d="M573.4,411.27a2.73,2.73,0,0,1,3,1.78,1.94,1.94,0,0,1-1.53,2.6,2.71,2.71,0,0,1-3-1.78A1.94,1.94,0,0,1,573.4,411.27Z" class="colorfff svgShape"></path><path fill="#020202" d="M574.43,416.16a3.23,3.23,0,0,1-3-2.14,2.46,2.46,0,0,1,.19-2.06,2.41,2.41,0,0,1,1.7-1.15h0a3.21,3.21,0,0,1,3.51,2.09,2.41,2.41,0,0,1-1.89,3.21A2.94,2.94,0,0,1,574.43,416.16Zm-.94-4.43a1.47,1.47,0,0,0-1.17,2,2.24,2.24,0,0,0,2.45,1.47,1.47,1.47,0,0,0,1.16-2A2.24,2.24,0,0,0,573.49,411.73Z" class="color020202 svgShape"></path><polygon fill="#020202" points="561.43 423.34 593.6 424.72 593.44 423.1 561.28 421.72 561.43 423.34" class="color020202 svgShape"></polygon><polygon fill="#020202" points="561.96 428.78 586.93 429.86 586.8 428.48 561.83 427.41 561.96 428.78" class="color020202 svgShape"></polygon><polygon fill="#020202" points="562.9 439.91 587.87 440.98 587.74 439.61 562.77 438.53 562.9 439.91" class="color020202 svgShape"></polygon><polygon fill="#020202" points="562.45 433.83 590.86 435.05 590.72 433.67 562.32 432.45 562.45 433.83" class="color020202 svgShape"></polygon><path fill="#e6994c" d="M542.66,266.19h107.5a23.62,23.62,0,1,1,0,47.23H542.66a23.62,23.62,0,1,1,0-47.23Z" class="color4c5ee6 svgShape"></path><path fill="#020202" d="M650.16,313.9H542.66a24.09,24.09,0,1,1,0-48.18h107.5a24.09,24.09,0,1,1,0,48.18Zm-107.5-47.24a23.15,23.15,0,1,0,0,46.29h107.5a23.15,23.15,0,1,0,0-46.29Z" class="color020202 svgShape"></path><path fill="#fffcf9" d="M543.33,271.74a18.07,18.07,0,1,1-18.06,18.07A18.07,18.07,0,0,1,543.33,271.74Z" class="colorfff9ff svgShape"></path><path fill="#020202" d="M543.33,308.35a18.54,18.54,0,1,1,18.54-18.54A18.56,18.56,0,0,1,543.33,308.35Zm0-36.14a17.6,17.6,0,1,0,17.6,17.6A17.62,17.62,0,0,0,543.33,272.21Z" class="color020202 svgShape"></path><path d="M541.47,294.22l-3.81-3.81-1.21,1.22,4.41,4.42a.88.88,0,0,0,.61.25.86.86,0,0,0,.61-.25l11.26-11.27-1.22-1.21Z" fill="#000000" class="color000 svgShape"></path><path fill="#e6994c" d="M542.66,334.54h107.5a23.62,23.62,0,1,1,0,47.23H542.66a23.62,23.62,0,1,1,0-47.23Z" class="color4c5ee6 svgShape"></path><path fill="#020202" d="M650.16,382.24H542.66a24.09,24.09,0,1,1,0-48.18h107.5a24.09,24.09,0,1,1,0,48.18ZM542.66,335a23.15,23.15,0,1,0,0,46.29h107.5a23.15,23.15,0,1,0,0-46.29Z" class="color020202 svgShape"></path><path fill="#fffcf9" d="M543.33,340.09a18.07,18.07,0,1,1-18.06,18.06A18.07,18.07,0,0,1,543.33,340.09Z" class="colorfff9ff svgShape"></path><path fill="#020202" d="M543.33,376.69a18.54,18.54,0,1,1,18.54-18.54A18.56,18.56,0,0,1,543.33,376.69Zm0-36.13a17.6,17.6,0,1,0,17.6,17.59A17.61,17.61,0,0,0,543.33,340.56Z" class="color020202 svgShape"></path><path d="M541.47,362.57l-3.81-3.81L536.45,360l4.41,4.42a.88.88,0,0,0,.61.25.86.86,0,0,0,.61-.25l11.26-11.26-1.22-1.21Z" fill="#000000" class="color000 svgShape"></path><rect width="126.56" height="6.63" x="533.92" y="196.62" fill="#000000" class="color000 svgShape"></rect><rect width="63.28" height="2.5" x="533.92" y="231.94" fill="#000000" class="color000 svgShape"></rect><rect width="91.06" height="2.81" x="533.92" y="211.57" fill="#000000" class="color000 svgShape"></rect><rect width="108" height="2.81" x="533.92" y="221.88" fill="#000000" class="color000 svgShape"></rect><polygon fill="#e6994c" points="671.77 406.6 683.86 437.95 649.57 446.26 637.49 414.91 671.77 406.6" class="color4c5ee6 svgShape"></polygon><path fill="#020202" d="M649.28,446.81l-12.43-32.23,35.21-8.53,12.43,32.23Zm-11.16-31.57,11.74,30.46,33.36-8.08-11.74-30.46Z" class="color020202 svgShape"></path><path fill="#020202" d="M654.21,413.38a2.3,2.3,0,0,1,2.81.82,1.63,1.63,0,0,1-.69,2.44,2.29,2.29,0,0,1-2.81-.81A1.65,1.65,0,0,1,654.21,413.38Z" class="color020202 svgShape"></path><polygon fill="#020202" points="648.03 426.61 671.91 420.82 671.46 419.66 647.57 425.45 648.03 426.61" class="color020202 svgShape"></polygon><polygon fill="#020202" points="649.57 430.49 668.11 426 667.72 425.01 649.18 429.5 649.57 430.49" class="color020202 svgShape"></polygon><polygon fill="#020202" points="652.61 438.45 671.15 433.95 670.76 432.97 652.22 437.46 652.61 438.45" class="color020202 svgShape"></polygon><polygon fill="#020202" points="650.99 434.08 672.08 428.97 671.69 427.99 650.6 433.1 650.99 434.08" class="color020202 svgShape"></polygon><path fill="#fffcf9" d="M895.24,110.46H738A20.49,20.49,0,0,0,717.52,131c0,57.29,0,360.4,0,419.44A28.47,28.47,0,0,0,746,578.86h141.3a28.47,28.47,0,0,0,28.47-28.47c0-59,0-362.15,0-419.44A20.49,20.49,0,0,0,895.24,110.46Z" class="colorfff9ff svgShape"></path><path fill="#020202" d="M887.28,579.33H746A29,29,0,0,1,717,550.39V131a21,21,0,0,1,21-21H895.24a21,21,0,0,1,21,21V550.39A29,29,0,0,1,887.28,579.33ZM738,110.93a20,20,0,0,0-20,20V550.39a28,28,0,0,0,28,28h141.3a28,28,0,0,0,28-28V131a20,20,0,0,0-20-20Z" class="color020202 svgShape"></path><path fill="#e6994c" d="M895.24,110.46H738A20.49,20.49,0,0,0,717.52,131v18.84H915.74V131A20.49,20.49,0,0,0,895.24,110.46Z" class="color4c5ee6 svgShape"></path><path fill="#020202" d="M916.21,150.26H717V131a21,21,0,0,1,21-21H895.24a21,21,0,0,1,21,21ZM718,149.32H915.27V131a20,20,0,0,0-20-20H738a20,20,0,0,0-20,20Z" class="color020202 svgShape"></path><path fill="#fffcf9" d="M737.87,119.94a9.83,9.83,0,1,0,9.83,9.83A9.83,9.83,0,0,0,737.87,119.94Z" class="colorfff9ff svgShape"></path><path fill="#020202" d="M737.87,140.07a10.3,10.3,0,1,1,10.3-10.3A10.31,10.31,0,0,1,737.87,140.07Zm0-19.66a9.36,9.36,0,1,0,9.36,9.36A9.37,9.37,0,0,0,737.87,120.41Z" class="color020202 svgShape"></path><polygon fill="#ffffff" points="894.91 132.98 890 128.26 888.92 129.38 894.94 135.16 900.73 129.37 899.63 128.27 894.91 132.98" class="colorfff svgShape"></polygon><rect width="125.03" height=".94" x="754.11" y="204.72" fill="#020202" class="color020202 svgShape"></rect><path d="M769.2 171.29h9.13a18.07 18.07 0 014.71.47 8.34 8.34 0 013.73 2.28 10.88 10.88 0 012.36 4 18.26 18.26 0 01.81 5.85 16.13 16.13 0 01-.76 5.26 10.87 10.87 0 01-2.65 4.37 8.72 8.72 0 01-3.51 2 15.09 15.09 0 01-4.42.52h-9.4zm5 4.19v16.38h3.73a14.22 14.22 0 003-.23 4.68 4.68 0 002-1 5.24 5.24 0 001.31-2.39 16 16 0 00.51-4.53 14.71 14.71 0 00-.51-4.41 5.64 5.64 0 00-1.42-2.39 4.66 4.66 0 00-2.31-1.17 22.58 22.58 0 00-4.1-.23zM793.16 183.81a15.77 15.77 0 011.13-6.34 12 12 0 012.31-3.4 9.6 9.6 0 013.19-2.22 13.49 13.49 0 015.34-1 11.63 11.63 0 018.75 3.39q3.29 3.39 3.28 9.43t-3.26 9.38a11.53 11.53 0 01-8.7 3.38 11.66 11.66 0 01-8.78-3.36Q793.17 189.72 793.16 183.81zm5.15-.17c0 2.8.65 4.93 1.94 6.37a6.67 6.67 0 009.83 0c1.28-1.43 1.92-3.59 1.92-6.45s-.62-5-1.87-6.35a6.91 6.91 0 00-9.93 0Q798.31 179.38 798.31 183.64zM821.11 196V171.29H826l10.13 16.52V171.29h4.64V196h-5l-10-16.13V196zM846 196V171.29h18.34v4.19H851V181h12.42v4.17H851v6.73h13.82V196z" fill="#000000" class="color000 svgShape"></path><polygon fill="#e6994c" points="780.49 278.74 784.2 318.42 742.38 316.86 738.68 277.18 780.49 278.74" class="color4c5ee6 svgShape"></polygon><path fill="#020202" d="M784.72,318.91,742,317.32l-3.79-40.63,42.76,1.59Zm-41.9-2.5,40.86,1.52-3.62-38.74-40.86-1.52Z" class="color020202 svgShape"></path><path fill="#020202" d="M758.26,280.83a2.71,2.71,0,0,1,3,1.83,2,2,0,0,1-1.58,2.57,2.71,2.71,0,0,1-2.94-1.83A1.93,1.93,0,0,1,758.26,280.83Z" class="color020202 svgShape"></path><polygon fill="#020202" points="746.95 293.93 776.08 295.01 775.93 293.55 746.8 292.46 746.95 293.93" class="color020202 svgShape"></polygon><polygon fill="#020202" points="747.46 298.86 770.07 299.7 769.94 298.45 747.33 297.61 747.46 298.86" class="color020202 svgShape"></polygon><polygon fill="#020202" points="748.37 308.92 770.98 309.76 770.85 308.52 748.24 307.68 748.37 308.92" class="color020202 svgShape"></polygon><polygon fill="#020202" points="747.92 303.42 773.64 304.38 773.52 303.13 747.8 302.17 747.92 303.42" class="color020202 svgShape"></polygon><polygon fill="#f9cb9e" points="833.66 224.88 826.37 264.06 786.58 251.12 793.87 211.94 833.66 224.88" class="color9eabf9 svgShape"></polygon><path fill="#020202" d="M826.73,264.68,786,251.44l.07-.41,7.4-39.7,40.69,13.23-.07.41ZM787.12,250.8,826,263.45l7.12-38.25-38.88-12.65Z" class="color020202 svgShape"></path><path fill="#020202" d="M811.71,220.81a2.7,2.7,0,0,1,2.33,2.56,1.94,1.94,0,0,1-2.21,2,2.71,2.71,0,0,1-2.33-2.57A1.93,1.93,0,0,1,811.71,220.81Z" class="color020202 svgShape"></path><path d="M806,246.31l-5.31-6.15-2,1.7,6.17,7.13a1.29,1.29,0,0,0,1.82.13l18.18-15.71-1.69-2Z" fill="#000000" class="color000 svgShape"></path><polygon fill="#ffffff" points="896.66 268.04 895.75 307.88 854.4 301.49 855.31 261.65 896.66 268.04" class="colorfff svgShape"></polygon><path fill="#020202" d="M896.21,308.43l-42.29-6.54.94-40.79,42.29,6.53Zm-41.33-7.34,40.41,6.24.89-38.89-40.41-6.24Z" class="color020202 svgShape"></path><path fill="#020202" d="M874.34,267.54a2.73,2.73,0,0,1,2.72,2.16,1.94,1.94,0,0,1-1.86,2.37,2.73,2.73,0,0,1-2.72-2.16A1.94,1.94,0,0,1,874.34,267.54Z" class="color020202 svgShape"></path><path d="M871.29,295.27,866,289.12l-2,1.69,6.16,7.13a1.35,1.35,0,0,0,.89.45,1.3,1.3,0,0,0,.94-.32l18.18-15.7-1.69-2Z" fill="#000000" class="color000 svgShape"></path><path fill="#e6994c" d="M762.08,426.13h107.5a23.62,23.62,0,1,1,0,47.23H762.08a23.62,23.62,0,0,1,0-47.23Z" class="color4c5ee6 svgShape"></path><path fill="#020202" d="M869.58,473.84H762.08a24.09,24.09,0,0,1,0-48.18h107.5a24.09,24.09,0,0,1,0,48.18ZM762.08,426.6a23.15,23.15,0,0,0,0,46.29h107.5a23.15,23.15,0,1,0,0-46.29Z" class="color020202 svgShape"></path><path fill="#fffcf9" d="M762.76,431.68a18.07,18.07,0,1,1-18.07,18.07A18.06,18.06,0,0,1,762.76,431.68Z" class="colorfff9ff svgShape"></path><path fill="#020202" d="M762.76,468.28a18.54,18.54,0,1,1,18.54-18.53A18.56,18.56,0,0,1,762.76,468.28Zm0-36.13a17.6,17.6,0,1,0,17.59,17.6A17.62,17.62,0,0,0,762.76,432.15Z" class="color020202 svgShape"></path><path d="M760.89,454.16l-3.8-3.81-1.22,1.22,4.42,4.41a.83.83,0,0,0,1.21,0l11.26-11.26-1.21-1.21Z" fill="#000000" class="color000 svgShape"></path><path fill="#e6994c" d="M762.08,354.58h107.5a23.62,23.62,0,1,1,0,47.23H762.08a23.62,23.62,0,0,1,0-47.23Z" class="color4c5ee6 svgShape"></path><path fill="#020202" d="M869.58,402.29H762.08a24.09,24.09,0,0,1,0-48.18h107.5a24.09,24.09,0,0,1,0,48.18Zm-107.5-47.24a23.15,23.15,0,0,0,0,46.29h107.5a23.15,23.15,0,1,0,0-46.29Z" class="color020202 svgShape"></path><path fill="#fffcf9" d="M762.76,360.13a18.07,18.07,0,1,1-18.07,18.07A18.06,18.06,0,0,1,762.76,360.13Z" class="colorfff9ff svgShape"></path><path fill="#020202" d="M762.76,396.74A18.54,18.54,0,1,1,781.3,378.2,18.56,18.56,0,0,1,762.76,396.74Zm0-36.14a17.6,17.6,0,1,0,17.59,17.6A17.62,17.62,0,0,0,762.76,360.6Z" class="color020202 svgShape"></path><path d="M760.89,382.61l-3.8-3.81L755.87,380l4.42,4.41a.83.83,0,0,0,1.21,0l11.26-11.26L771.55,372Z" fill="#000000" class="color000 svgShape"></path><path fill="#e6994c" d="M762.08,497.68h107.5a23.62,23.62,0,1,1,0,47.23H762.08a23.62,23.62,0,0,1,0-47.23Z" class="color4c5ee6 svgShape"></path><path fill="#020202" d="M869.58,545.39H762.08a24.09,24.09,0,0,1,0-48.18h107.5a24.09,24.09,0,0,1,0,48.18Zm-107.5-47.24a23.15,23.15,0,0,0,0,46.29h107.5a23.15,23.15,0,1,0,0-46.29Z" class="color020202 svgShape"></path><path fill="#fffcf9" d="M762.76,503.23a18.07,18.07,0,1,1-18.07,18.07A18.06,18.06,0,0,1,762.76,503.23Z" class="colorfff9ff svgShape"></path><path fill="#020202" d="M762.76,539.83A18.54,18.54,0,1,1,781.3,521.3,18.56,18.56,0,0,1,762.76,539.83Zm0-36.13a17.6,17.6,0,1,0,17.59,17.6A17.61,17.61,0,0,0,762.76,503.7Z" class="color020202 svgShape"></path><path d="M760.89,525.71l-3.8-3.81-1.22,1.22,4.42,4.41a.83.83,0,0,0,1.21,0l11.26-11.26-1.21-1.21Z" fill="#000000" class="color000 svgShape"></path><path fill="#fffcf9" d="M479.2,310.72a1.64,1.64,0,0,0,.33-1.82,2.4,2.4,0,0,0-2.15-.87,33.45,33.45,0,0,0-11.77,1.84,12.48,12.48,0,0,0-2.85,1.33,68.66,68.66,0,0,0-6.19,3.95c.15-.72.31-1.44.49-2.15a2,2,0,0,0-.09-1.78,1.34,1.34,0,0,0-1.57-.2,3.89,3.89,0,0,0-1.22,1.17c-2,2.56-4,5.07-5.94,7.68a5.93,5.93,0,0,0-.56,1,34.07,34.07,0,0,0-3.47,3L395.6,363.53l-6.15,5-3.32,2.69-1.31,1.08c-1.26,9.75,6.48,21.53,15.87,25.52a67.8,67.8,0,0,0,10.25-7.49,65.28,65.28,0,0,0,5.1-5l1.54-1.93,3.68-4.6,30.38-38h0a17.39,17.39,0,0,0,7.61-2.86c2.91-2.23,4.41-5.94,6.26-9.23.59-1,2.82-3.38,4.87-6l2.73-1.29a5,5,0,0,0,1.64-1.06,1.67,1.67,0,0,0,.33-1.83,1.93,1.93,0,0,0-1.55-.82c.12-.29.22-.57.31-.84l2.72-1.29a4.8,4.8,0,0,0,1.65-1.07,1.46,1.46,0,0,0-.82-2.57l.17-.08A4.76,4.76,0,0,0,479.2,310.72Z" class="colorfff9ff svgShape"></path><path fill="#020202" d="M400.73,398.37l-.22-.09c-9.86-4.2-17.41-16.36-16.16-26l0-.19,10.93-8.91,48.61-39.65a33.93,33.93,0,0,1,3.39-3,6,6,0,0,1,.56-1c1.26-1.71,2.59-3.4,3.88-5l2.07-2.64a4.24,4.24,0,0,1,1.38-1.31,1.78,1.78,0,0,1,2.14.32,2.43,2.43,0,0,1,.19,2.2l-.24,1a57.35,57.35,0,0,1,5.27-3.33,12.72,12.72,0,0,1,2.91-1.35,33.55,33.55,0,0,1,11.93-1.86,2.83,2.83,0,0,1,2.56,1.11,2.12,2.12,0,0,1-.4,2.36h0a3.78,3.78,0,0,1-1.06.82,1.73,1.73,0,0,1,.46.55,2.09,2.09,0,0,1-.39,2.35,5.34,5.34,0,0,1-1.79,1.19l-2.54,1.2-.06.14a2,2,0,0,1,1.32,1,2.11,2.11,0,0,1-.39,2.36,5.36,5.36,0,0,1-1.79,1.18L470.69,323c-.91,1.17-1.84,2.27-2.67,3.24a23.92,23.92,0,0,0-2.1,2.66c-.38.67-.75,1.37-1.11,2.06-1.42,2.69-2.88,5.47-5.27,7.3a17.77,17.77,0,0,1-7.64,2.93l-35.5,44.42a62.9,62.9,0,0,1-5.15,5.07,68.61,68.61,0,0,1-10.32,7.55Zm-15.47-25.81c-1.07,9.19,6.06,20.65,15.39,24.76a67.42,67.42,0,0,0,15-12.3l35.43-44.34-.09-.29.55-.08a17,17,0,0,0,7.39-2.78c2.22-1.7,3.63-4.39,5-7,.37-.7.74-1.4,1.13-2.09a23.49,23.49,0,0,1,2.2-2.8c.84-1,1.79-2.11,2.71-3.3l.07-.09,2.82-1.33a4.4,4.4,0,0,0,1.49-1,1.21,1.21,0,0,0,.28-1.28,1.48,1.48,0,0,0-1.2-.59l-.63-.07.25-.58c.12-.27.22-.54.31-.8l.06-.19,2.9-1.37a4.65,4.65,0,0,0,1.49-1,1,1,0,0,0-.56-1.8L476,312l1.38-.65a4.6,4.6,0,0,0,1.49-1,1.21,1.21,0,0,0,.27-1.28c-.22-.4-.78-.6-1.75-.63a32.86,32.86,0,0,0-11.6,1.81,12.1,12.1,0,0,0-2.75,1.28,60.78,60.78,0,0,0-5.41,3.42l-1.73,1.18.23-1.14c.15-.72.31-1.45.5-2.17.13-.5.24-1.06,0-1.35a.85.85,0,0,0-1-.08,3.57,3.57,0,0,0-1.06,1c-.68.89-1.38,1.77-2.07,2.65-1.29,1.63-2.61,3.32-3.86,5a5.52,5.52,0,0,0-.51.89l-.05.11-.09.07a32.91,32.91,0,0,0-3.42,3Z" class="color020202 svgShape"></path><path fill="#fffcf9" d="M431.54,334.91a3.87,3.87,0,0,0-6.06-1.93c-6.73,5.2-11,15.3-19.52,16.42-2.3.3-4.73-.18-6.92.58s-3.91,3.68-2.34,5.41c-2.18-1.81-5.3,0-7.49,1.92-3.75-12.35-11.41-34.11-23.7-54-1.27-1.57-5.83-8.81-14.9-13.2-15.53,57.31,21.95,106,21.95,106l2.21-3.28a.61.61,0,0,1,.05.12c2.17,4.6,5.74,8.76,10.51,10.53,5,1.86,10.77.83,15.57-1.57s8.84-6.05,12.81-9.65l25.22-22.87a19.68,19.68,0,0,0,3.72-4.42C450.14,352.44,434.62,345,431.54,334.91Z" class="colorfff9ff svgShape"></path><path fill="#020202" d="M390.88 404.94a16.46 16.46 0 01-5.71-1c-4.28-1.58-8-5.17-10.47-10.14L372.58 397l-.4-.52c-.37-.49-37.44-49.53-22-106.42l.15-.54.51.24a39.17 39.17 0 0114.47 12.55c.24.33.44.6.59.78 12.3 19.86 20 41.73 23.57 53.44 1.63-1.32 4.07-2.8 6.21-2.18a3.43 3.43 0 01.07-1.38 5.15 5.15 0 013.15-3.39c2.29-.8 4.74-.31 7-.61 5.31-.69 8.87-4.93 12.64-9.42a45.94 45.94 0 016.65-6.91 4.36 4.36 0 016.81 2.17h0c1 3.44 3.66 6.67 6.19 9.79 4.87 6 9.91 12.23 4.87 20.69a19.76 19.76 0 01-3.82 4.53L414 392.65c-3.95 3.57-8 7.27-12.92 9.72A23.11 23.11 0 01390.88 404.94zm-15.63-12.15c2.39 5.07 6 8.72 10.24 10.29 4.42 1.63 10 1.07 15.2-1.55 4.77-2.39 8.8-6 12.7-9.58l25.22-22.87a18.8 18.8 0 003.64-4.31c4.7-7.9.09-13.59-4.8-19.62-2.58-3.19-5.26-6.48-6.36-10.1h0a3.4 3.4 0 00-5.32-1.7 45.49 45.49 0 00-6.51 6.76c-3.72 4.43-7.57 9-13.23 9.75-2.38.32-4.76-.15-6.84.57a4.19 4.19 0 00-2.54 2.73 2 2 0 00.4 1.91l-.65.68c-2.1-1.74-5.21.45-6.88 1.91l-.55.48-.21-.7c-3.49-11.48-11.2-33.73-23.65-53.85-.12-.14-.33-.41-.58-.76a38.37 38.37 0 00-13.61-12c-14.07 53 17.69 99.09 21.62 104.52l2.31-3.42.35.75-.32.27 0 0zM381.62 688a385.77 385.77 0 00-32.48-26.4c-3.45-2.51-11.19-10.78-14.89-5.53-3.46 4.91-.75 14.35.62 19.51 1.57 5.94 3.21 18.32 3.21 18.32l2.22.2s1.38-10.28 1.81-13c1.95.46 3.17 2.4 3.76 4.31s.77 4 1.66 5.75c2.52 5.1 9.32 5.92 15 6.08l15.77.44c2.36.07 5.18-.11 6.35-2.15C386.13 693 383.79 690 381.62 688z" class="color020202 svgShape"></path><path fill="#f69636" d="M331.4,447.41c7.49,18.63-.06,32.43,1.37,62,.34,7.12-.4,20.18,5.45,25.13s15.64,7.59,24.08,4.37c8-3,19.21-77.5,11.47-94.66C358.71,443.57,345.09,444.14,331.4,447.41Z" class="colorbd695b svgShape"></path><path fill="#f69636" d="M334.76 529c-2.21 2.52-15.44 19.15-12.17 49.87L330 621.12l3.37 19.25 1.94 11.06c.44 3.74.82 5.34 2.07 6.09s3.3.63 7 .91c6 .47 9 .94 9.42-5L355.6 634 357 618.11l7.24-81.22.24-2.77-29.44-5.47zM295.7 445.66c4.29 19.62-5.45 32-8.95 61.34-.85 7.08-3.75 19.83 1.2 25.69s14.16 10.08 23 8.31c8.4-1.68 31.82-73.23 27-91.44C323.27 446.42 309.74 444.71 295.7 445.66z" class="colorbd695b svgShape"></path><path fill="#f69636" d="M285.47,526.64c-2.46,2-18.43,16.21-20.31,47.17l.33,47.94.12,17.43.05,8.32c-.05.93-.08,1.71-.08,2.41,0,4.92,1.5,4.41,7.9,6,5.84,1.45,8.7,2.41,10.14-3.43l3.29-12.59,3.54-13.58,22.77-87,.7-2.69L285.8,526.38S285.7,526.47,285.47,526.64Z" class="colorbd695b svgShape"></path><path fill="#fffcf9" d="M362.13,669.69c-2.42-2.31-4-5.37-5.41-8.4a41.68,41.68,0,0,0-4.88-8.76c-3.68-4.54-12.87-3.95-16.57,2.4-3.35,5.77,4.47,10,8.21,13.51a50.17,50.17,0,0,0,12.31,9,24.51,24.51,0,0,0,14.85,2.49C370.66,677.62,363.79,671.28,362.13,669.69Z" class="colorfff9ff svgShape"></path><path fill="#020202" d="M367.11 680.7a26.9 26.9 0 01-11.53-2.84 49.78 49.78 0 01-12.42-9.08c-.73-.69-1.62-1.41-2.57-2.17-3.84-3.09-8.62-6.94-5.72-11.91a11.49 11.49 0 019.11-5.57 9.51 9.51 0 018.22 3.11 36.86 36.86 0 014.51 7.93l.44.92c1.37 2.92 2.9 6 5.31 8.26l.4.38c3.85 3.65 8.27 8.11 8.25 10.2v.39l-.39.07A21.47 21.47 0 01367.11 680.7zM344.9 650l-.85 0a10.57 10.57 0 00-8.37 5.1c-2.49 4.28 1.76 7.69 5.51 10.71.95.77 1.86 1.5 2.61 2.21A48.86 48.86 0 00356 677a24.38 24.38 0 0014.12 2.52c-.42-1.48-3.08-4.54-7.9-9.12l-.4-.38a27.75 27.75 0 01-5.52-8.54l-.43-.93a36.63 36.63 0 00-4.39-7.73A8.32 8.32 0 00344.9 650zM271.19 667.39c-5.91.12-13.49 1.82-17.46 6.54-4.09 4.89-8.31 14-1.7 18.87 3.19 2.37 7.58 1.91 11.5 1.35l11.59-1.66c3.46-.49 7.12-1.07 9.8-3.31 4.32-3.61 4.46-10.74 1.14-15.28S276.81 667.27 271.19 667.39z" class="color020202 svgShape"></path><path fill="#f69636" d="M282.39,656.78c.48-3.54,2.26-7.31.59-10.47s-6.21-3.82-9.48-2.33c-9.85,4.47-9.08,17.93-15.61,25.67-1.6,1.91-3.55,4.33-2.51,6.6.77,1.67,2.81,2.26,4.61,2.62,6.62,1.3,12.27,1,20.14-2C287.44,674,281.51,663.16,282.39,656.78Z" class="colorbd695b svgShape"></path><path fill="#020202" d="M359.51,423.71c-8.71,1-25.35,2.34-33.86,4.37-10.06,68.32-5.19,185.8-.56,254.71,14.9,5.79,31.93,2.49,44.34-7.58,14.54-65.07,14.39-182.83,4.81-248.82C369.31,422.63,365.67,423,359.51,423.71Z" class="color020202 svgShape"></path><path fill="#020202" d="M237.54,673.21C253,683.5,274.22,684.78,291.87,679c17.44-27.83,29.38-105.15,32.85-137.81q6.06-57.08,12.13-114.13c-15.51-2.51-30.72-6.88-44.06-15.17C262.61,478.25,246.54,600.87,237.54,673.21Z" class="color020202 svgShape"></path><path fill="#fffcf9" d="M374.2,368.34a.32.32,0,0,0,0-.13c-.22-2.71-.44-5.38-.68-8,0-.43-.05-.72-.07-.87-.11-1-.19-2-.28-3.05v-.13c-.38-4.13-.77-8.07-1.15-11.69-.09-.95-.2-1.88-.29-2.78,0,0,0-.06,0-.09-.88-7.89-1.77-13.87-2.58-16.29-2.05-6.07-5.09-27.37-16.19-33.88a3.28,3.28,0,0,1-.37-.22l-.24-.13c-1.73-1-3.4-1.9-4.92-2.65l-.35-.16c-7-3.46-12.67-5.71-12.67-5.71s-5.89,1.79-13.12,4.66c-1,.42-2.09.84-3.17,1.32-.29.11-.6.26-.91.38-10.65,4.6-22.38,11.11-22.67,17.7L274.14,416c-1,14.23,9.2,21.61,24.47,26.57,6.23,2,27.51,7,56.67,3.91,23.61-2.5,29-17.42,27.64-31.41C381.38,398.58,375.34,382.35,374.2,368.34Z" class="colorfff9ff svgShape"></path><path fill="#020202" d="M336.6 448c-22.18 0-36.26-4.32-38.14-4.93-18-5.86-25.66-14.2-24.79-27.06L294 306.52c.24-5.49 8-11.58 22.94-18l.37-.16.57-.23c.79-.35 1.6-.68 2.4-1l.75-.31c7.17-2.85 13.1-4.67 13.16-4.68l.16-.05.15.06c.06 0 5.79 2.3 12.71 5.72l.33.16c1.57.77 3.23 1.67 5 2.68l.23.12.36.21c9.15 5.37 12.87 20.29 15.08 29.21.51 2 .95 3.79 1.34 4.94.77 2.33 1.65 7.84 2.6 16.39l0 .07v.07l.12 1.09c.06.54.12 1.09.17 1.65.36 3.39.74 7.22 1.15 11.69v.17l.07.79c.06.76.12 1.5.21 2.21 0 .08 0 .22 0 .4l0 .47c.24 2.62.45 5.28.67 8a1 1 0 010 .2c.56 6.81 2.27 14.11 4.08 21.83 1.89 8.08 3.85 16.44 4.64 24.92 1 10.7-1.32 29.08-28.06 31.92A178.67 178.67 0 01336.6 448zm-2.25-164.94c-1 .3-6.45 2-12.93 4.6l-.75.31c-.78.32-1.59.64-2.4 1-.19.07-.36.15-.54.23l-.38.16c-14.41 6.22-22.15 12.19-22.38 17.28L274.61 416.12c-.84 12.3 6.61 20.34 24.14 26 2.35.76 23.84 7.34 56.48 3.89 25.94-2.75 28.19-20.54 27.22-30.9-.78-8.41-2.73-16.73-4.62-24.78-1.82-7.77-3.54-15.11-4.1-22v0h.48l-.48 0c-.23-2.78-.45-5.45-.69-8.08l0-.48c0-.17 0-.29 0-.37-.08-.72-.14-1.47-.21-2.25l-.07-1c-.41-4.42-.79-8.24-1.15-11.64 0-.56-.11-1.1-.17-1.63l-.15-1.23v-.06c-.93-8.31-1.81-13.91-2.56-16.14-.4-1.18-.84-3-1.35-5-2.18-8.77-5.83-23.44-14.63-28.6-.15-.09-.28-.16-.39-.24l-.19-.1c-1.74-1-3.39-1.89-4.92-2.65l-.32-.15C340.57 285.58 335.3 283.43 334.35 283.05zM337.22 226.74c-5.55.12-8.3 8.34-7.87 13.87a17.1 17.1 0 009 13.19c4.86 2.67 10.69 3 16.11 1.85 1.74-6.28 1.55-13.27-1.5-19S343.73 226.59 337.22 226.74z" class="color020202 svgShape"></path><path fill="#020202" d="M329.77,226.74c-6.52-.15-12.68,4.12-15.73,9.88s-3.23,12.75-1.5,19c5.42,1.18,11.25.82,16.12-1.85a17.1,17.1,0,0,0,9-13.19C338.07,235.08,335.31,226.86,329.77,226.74Z" class="color020202 svgShape"></path><polygon fill="#fffcf9" points="340 273.68 325.78 273.68 325.24 279.83 324.21 291.56 342.09 291.56 340.74 280.03 340 273.68" class="colorfff9ff svgShape"></polygon><path fill="#020202" d="M342.62,292H323.7l1.65-18.82h15.07Zm-17.89-.94h16.83l-2-16.93H326.21Z" class="color020202 svgShape"></path><path fill="#020202" d="M325.78 273.68l-.54 6.15a13 13 0 005.57 1 16.55 16.55 0 009.56-3.71l-.37-3.44zM333.38 228.6c-10.27 0-18.59 7.78-18.59 17.39s8.32 17.38 18.59 17.38S352 255.59 352 246 343.65 228.6 333.38 228.6z" class="color020202 svgShape"></path><path fill="#fffcf9" d="M333.15,232.78c-9.92,0-17.95,10.36-17.95,23.14s8,23.14,17.95,23.14,18-10.36,18-23.14S343.07,232.78,333.15,232.78Z" class="colorfff9ff svgShape"></path><path fill="#020202" d="M333.15,279.53c-10.16,0-18.43-10.59-18.43-23.61s8.27-23.61,18.43-23.61,18.43,10.59,18.43,23.61S343.31,279.53,333.15,279.53Zm0-46.27c-9.64,0-17.48,10.16-17.48,22.66s7.84,22.67,17.48,22.67,17.48-10.17,17.48-22.67S342.79,233.26,333.15,233.26Z" class="color020202 svgShape"></path><path fill="#fffcf9" d="M354.15,247.76c-2.72-.2-5.12,2.48-5.37,6s-.48,8.43,2.24,8.62,7.35-4.42,7.6-7.92S356.87,248,354.15,247.76Z" class="colorfff9ff svgShape"></path><path fill="#020202" d="M351.18,262.85H351c-3.31-.23-2.89-6-2.67-9.13.27-3.75,2.9-6.64,5.87-6.42s5.18,3.43,4.91,7.19C358.83,258.06,354.26,262.85,351.18,262.85Zm2.69-14.63c-2.35,0-4.4,2.43-4.62,5.56-.19,2.58-.57,8,1.8,8.12s6.86-4.13,7.1-7.49-1.58-6-4-6.18Z" class="color020202 svgShape"></path><path fill="#020202" d="M355.9,249.53c-1.9.22-4,1.26-5.47,7.34a.52.52,0,0,0,.33.61l.18,0a.5.5,0,0,0,.46-.29,8.18,8.18,0,0,0,.53-1.45c.25-.84.46-1.56,1-1.86a3.31,3.31,0,0,1,2.33.1.52.52,0,0,0,.65-.35.51.51,0,0,0-.35-.65,4.91,4.91,0,0,0-2.57-.23,3.79,3.79,0,0,1,3-2.21.52.52,0,0,0,.46-.58A.53.53,0,0,0,355.9,249.53Z" class="color020202 svgShape"></path><path fill="#fffcf9" d="M312.26,247.76c-2.72.19-4.72,3.19-4.47,6.69s4.89,8.12,7.6,7.92,2.49-5.12,2.24-8.62S315,247.56,312.26,247.76Z" class="colorfff9ff svgShape"></path><path fill="#020202" d="M315.23,262.85c-1.41,0-3.22-1-4.9-2.72a9.87,9.87,0,0,1-3-5.65,7.8,7.8,0,0,1,1.2-4.88,4.86,4.86,0,0,1,3.71-2.31h0a4.85,4.85,0,0,1,4,1.76,7.8,7.8,0,0,1,1.88,4.66,27.44,27.44,0,0,1,0,5.66c-.32,2.2-1.22,3.37-2.66,3.47Zm-2.69-14.63h-.25a3.94,3.94,0,0,0-3,1.89,6.87,6.87,0,0,0-1.05,4.29,9.1,9.1,0,0,0,2.74,5.06c1.53,1.56,3.24,2.51,4.36,2.43.35,0,1.42-.1,1.8-2.67a26.77,26.77,0,0,0,0-5.45,6.81,6.81,0,0,0-1.64-4.1A4,4,0,0,0,312.54,248.22Z" class="color020202 svgShape"></path><path fill="#020202" d="M310.51 249.53a.53.53 0 00-.58.46.52.52 0 00.46.58 3.79 3.79 0 013 2.21 5 5 0 00-2.58.23.52.52 0 00.3 1 3.34 3.34 0 012.34-.1c.55.3.76 1 1 1.86a9 9 0 00.52 1.45.51.51 0 00.47.29l.18 0a.52.52 0 00.33-.61C314.54 250.79 312.41 249.75 310.51 249.53zM337.45 262.23a5.32 5.32 0 01-2.61.73 1.06 1.06 0 01-.57-.1c-.24-.17-.23-.72-.2-1.11l.48-6.33a.53.53 0 00-.48-.56.52.52 0 00-.56.48l-.48 6.33a2.18 2.18 0 00.64 2 1.91 1.91 0 001.11.3h.08a6.43 6.43 0 003.12-.88.53.53 0 00.19-.72A.52.52 0 00337.45 262.23zM339.14 269.07A11.17 11.17 0 01328 267.64a.54.54 0 00-.74.09.52.52 0 00.09.73 12.17 12.17 0 007.47 2.52 11.63 11.63 0 004.7-1 .52.52 0 10-.41-.95zM336.42 271.72a4.82 4.82 0 01-5.45-.08.52.52 0 10-.62.83 5.78 5.78 0 006.67.1.52.52 0 00.13-.72A.53.53 0 00336.42 271.72zM327.09 252.14c-.67 0-1.22.91-1.22 2s.55 2 1.22 2 1.23-.91 1.23-2S327.77 252.14 327.09 252.14zM343 252.14c-.68 0-1.23.91-1.23 2s.55 2 1.23 2 1.22-.91 1.22-2S343.66 252.14 343 252.14zM327.85 249.82a3.94 3.94 0 00-2.92.74 3.42 3.42 0 00-1.05 1.66c-.11.37.29.75.47.44a3.5 3.5 0 011.14-1.21 2.87 2.87 0 012.5-.21c.18.06.31-.13.27-.37l-.12-.71A.38.38 0 00327.85 249.82z" class="color020202 svgShape"></path><path fill="#020202" d="M341.22 249.82c-.13 0-.25.16-.28.34l-.12.71c0 .24.09.43.27.37a2.87 2.87 0 012.5.21 3.5 3.5 0 011.14 1.21c.18.31.58-.07.47-.44a3.5 3.5 0 00-1.05-1.66A4 4 0 00341.22 249.82zM320.73 235.33c-1.13 0-5.48 5.11-5.48 10.64a40.71 40.71 0 00.48 7.67s5.44-2.15 5.44-7.67S321.85 235.33 320.73 235.33zM345.57 235.33c-1.12 0 1.39 5.11 1.39 10.64s3.61 7.67 3.61 7.67a40.71 40.71 0 00.48-7.67C351.05 240.44 346.7 235.33 345.57 235.33zM385.3 355.23L336 344.69a1.85 1.85 0 00-1.95.84l-37.78 62a1.83 1.83 0 001.38 2.78c0-1.37 1.15-3.19 1.78-4.26 5.2-8.61 25.5-42.24 34.73-57.59a4.51 4.51 0 014.72-2.08c11.08 2.16 42.1 8.76 47.81 10A1.84 1.84 0 00385.3 355.23z" class="color020202 svgShape"></path><path fill="#262626" d="M338.83,346.39a4.51,4.51,0,0,0-4.72,2.08c-9.23,15.35-29.53,49-34.73,57.59-.63,1.07-1.76,2.89-1.78,4.26l.24,0,3.67-.1,34.37-.79a1.83,1.83,0,0,0,1.28-.57l49.08-50.57a1.78,1.78,0,0,0,.52-1.27,2,2,0,0,0-.12-.68C380.93,355.15,349.91,348.55,338.83,346.39Z" class="color262626 svgShape"></path><path fill="#020202" d="M297.79,410.82a2.4,2.4,0,0,1-.28,0l-.38-.08v-.39c0-1.42,1.05-3.16,1.73-4.3l.11-.19c5.21-8.63,25.51-42.25,34.74-57.6a5,5,0,0,1,5.21-2.3h0c11.08,2.15,42.5,8.84,47.82,10l.26.06.09.24a2.63,2.63,0,0,1,.14.83,2.21,2.21,0,0,1-.66,1.61l-49.08,50.57a2.33,2.33,0,0,1-1.58.71l-38.06.89Zm40.18-64a4.07,4.07,0,0,0-3.46,1.94c-9.23,15.34-29.52,49-34.73,57.59l-.11.19a12,12,0,0,0-1.55,3.37l3.38-.09,34.37-.79a1.37,1.37,0,0,0,.94-.42L385.9,358a1.35,1.35,0,0,0,.39-.94,2.64,2.64,0,0,0,0-.28c-6.06-1.29-36.63-7.8-47.53-9.92h0A4.08,4.08,0,0,0,338,346.78Z" class="color020202 svgShape"></path><path fill="#f9f8f7" d="M375.31,361.07c-.7.79-.82,1.82-.28,2.3s1.56.22,2.25-.57.82-1.82.27-2.3S376,360.28,375.31,361.07Z" class="colorf9f7f8 svgShape"></path><path fill="#fed1a5" d="M334.37,282.55s-5.89,1.79-13.12,4.66c-1,.42-2.09.84-3.17,1.32-.2.75,3.32,7,16.93,6.34,9.09-.44,12.6-5.66,12.38-6.45l-.35-.16C340.06,284.8,334.37,282.55,334.37,282.55Z" class="colorfeb9a5 svgShape"></path><path fill="#fffcf9" d="M366.85,380a18.69,18.69,0,0,0-7.21-5.28,10.25,10.25,0,0,0,2.52-1.65c.28-.26.55-.76.24-1a.79.79,0,0,0-.48-.07c-2.54.2-5.11.53-7.66.62a23.56,23.56,0,0,1-2.38-.06c-1.17-.18-2.36-.32-3.55-.42a.14.14,0,0,0-.08-.1c-10.4-4-78.63-35.68-86.36-17.65-8.07,18.82,19,23.5,28.31,24.63,11.39,1.39,45.74,3.84,45.74,3.84l.48,0a9.74,9.74,0,0,0,3.16.81,28.32,28.32,0,0,1,11.58,4.44c1.74,1.16,3.42,2.55,5.45,3,1.27.3,1.9-.08,1.95-.93,1.25.89,3.63-.26,3.23-1.42a2.86,2.86,0,0,0,3.76-1.91c1.51.23,2.86-1.27,3-2.79A6.13,6.13,0,0,0,366.85,380Z" class="colorfff9ff svgShape"></path><path fill="#020202" d="M357.38,391.75a4.22,4.22,0,0,1-.88-.11,13.89,13.89,0,0,1-4.63-2.43l-1-.66a27.75,27.75,0,0,0-11.39-4.38l-.16,0a10.08,10.08,0,0,1-3.07-.79l-.38,0c-.34,0-34.49-2.47-45.76-3.84-8.57-1-23.7-4.07-28.61-12.61-2.09-3.63-2.12-7.9-.07-12.67,7-16.4,61,6.44,81.3,15,2.5,1.06,4.47,1.89,5.66,2.35a.6.6,0,0,1,.15.09c1.24.11,2.35.24,3.39.41.74,0,1.51.08,2.28,0,1.69-.06,3.41-.23,5.08-.39l2.56-.23a1.07,1.07,0,0,1,.79.17.78.78,0,0,1,.34.61,1.53,1.53,0,0,1-.53,1.1,10.1,10.1,0,0,1-1.77,1.27,18.9,18.9,0,0,1,6.51,5h0a6.53,6.53,0,0,1,1.77,4.47,3.81,3.81,0,0,1-1.37,2.6,2.81,2.81,0,0,1-1.72.65,3.44,3.44,0,0,1-3.65,2,1.89,1.89,0,0,1-.7,1,3.12,3.12,0,0,1-2.68.52,1.29,1.29,0,0,1-.41.51A1.75,1.75,0,0,1,357.38,391.75Zm-83.05-42.39c-6,0-10.41,1.49-12,5.22-1.93,4.49-1.92,8.47,0,11.83,4.72,8.19,19.52,11.12,27.92,12.15,11.24,1.36,45.37,3.81,45.71,3.83l.67.1a9.05,9.05,0,0,0,2.84.73l.17,0a28.82,28.82,0,0,1,11.77,4.52l1,.68a13.17,13.17,0,0,0,4.31,2.28,1.56,1.56,0,0,0,1.17,0,.54.54,0,0,0,.2-.46l.05-.85.69.49a2,2,0,0,0,2.15-.21c.14-.11.46-.39.36-.67l-.36-1,1,.43a2.26,2.26,0,0,0,1.91-.12,2.23,2.23,0,0,0,1.21-1.47l.1-.42.43.06A1.85,1.85,0,0,0,367,386a2.77,2.77,0,0,0,1-1.93,5.61,5.61,0,0,0-1.56-3.82h0a18.19,18.19,0,0,0-7-5.14l-1-.42.95-.44a9.32,9.32,0,0,0,2.4-1.57.83.83,0,0,0,.19-.25H362l-2.56.23c-1.67.16-3.41.33-5.12.39-.82,0-1.61,0-2.42-.06-1.12-.17-2.27-.31-3.57-.42l-.31,0-.05-.16c-1.21-.47-3.13-1.29-5.54-2.3C328.59,364.27,293.37,349.36,274.33,349.36Z" class="color020202 svgShape"></path><path fill="#020202" d="M314.29,350.58,295,345.34a12.22,12.22,0,0,0-5.31-3.65.54.54,0,0,0-.67.32.51.51,0,0,0,.31.66,11.25,11.25,0,0,1,5,3.45.5.5,0,0,0,.27.18L314,351.59c1.71.46,3.44,1,4.23,2.37.7,1.18.55,2.73.3,4.35s-.39,3.7-.54,5.9c-.45,6.5-1,14.58-4.49,17.89-1.75,1.67-6.33,3-8.71,3.12-1.12.1-3.64-1.08-7.49-3.44-.62-.37-.65-.4-.87-.34a42.92,42.92,0,0,1-17.39.51.52.52,0,1,0-.18,1,43.83,43.83,0,0,0,17.61-.47l.29.18c2.54,1.55,6.1,3.59,7.94,3.59h.15c2.55-.17,7.35-1.47,9.37-3.4,3.78-3.59,4.35-11.9,4.81-18.58.15-2.18.29-4.24.53-5.82.28-1.81.45-3.56-.43-5C318.14,351.75,316.2,351.1,314.29,350.58Z" class="color020202 svgShape"></path><path fill="#fffcf9" d="M318.69,353.69c-.91-1.54-2.81-2.13-4.54-2.6l-7.8-2.13c8.58-15.84,3.49-26.18,3.49-26.18l-13.93-20a88.5,88.5,0,0,0-18.43,25.14c-4.34,3-9.23,5.88-10.36,10.91-.33,1.47-.31,3.08-1.11,4.36-1.18,1.9-3.65,2.39-5.68,3.33-3.93,1.82-7.78,7.51-6.82,12.17C252,366.1,258,373.3,264.63,377.21a43.45,43.45,0,0,0,31.93,4.73c.07,0,6.06,3.95,8.27,3.8,2.47-.16,7.16-1.47,9-3.26,4.86-4.62,4.23-17.76,5.19-24.1C319.3,356.8,319.51,355.07,318.69,353.69Z" class="colorfff9ff svgShape"></path><path fill="#020202" d="M304.71 386.22c-1.83 0-5.38-2-7.92-3.59l-.3-.18a43.82 43.82 0 01-32.1-4.84c-6.71-3.95-12.81-11.34-11.36-19-.93-4.82 3-10.71 7.11-12.6.5-.23 1-.44 1.57-.65 1.59-.62 3.09-1.2 3.9-2.5a7.29 7.29 0 00.81-2.83c.07-.46.14-.93.24-1.38 1.06-4.7 5.2-7.54 9.21-10.28l1.24-.85a90.09 90.09 0 0118.49-25.18L296 302l14.24 20.48c.25.48 5 10.58-3.18 26.15l7.22 2c1.9.52 3.84 1.16 4.83 2.82h0c.87 1.47.7 3.2.42 5-.24 1.59-.38 3.65-.53 5.84-.46 6.66-1 14.95-4.79 18.53-2 1.92-6.8 3.22-9.34 3.39zm-8.13-4.75c.12 0 .24.07.71.36 3.86 2.36 6.38 3.54 7.51 3.44 2.39-.16 7-1.46 8.75-3.13 3.49-3.33 4.05-11.42 4.5-17.92.15-2.2.3-4.29.54-5.91s.41-3.18-.3-4.38c-.81-1.35-2.55-1.92-4.27-2.39l-8.36-2.28.28-.52c8.35-15.42 3.53-25.66 3.48-25.76l-13.58-19.53a89.19 89.19 0 00-17.93 24.63l-.06.12-.1.07-1.34.92c-3.86 2.64-7.86 5.36-8.83 9.7-.1.43-.16.88-.23 1.32a8.05 8.05 0 01-.94 3.19c-1 1.56-2.69 2.23-4.36 2.88-.51.2-1 .4-1.52.63-3.78 1.75-7.47 7.22-6.56 11.64l0 .1 0 .09c-1.43 7.2 4.45 14.26 10.9 18.06a42.83 42.83 0 0031.58 4.69A.32.32 0 01296.58 381.47zM341.21 231.6c-3.12-1.39-6.71-1-10.11-.65s-7 .83-9.72 2.9a12.91 12.91 0 00-4.49 8.39 36.73 36.73 0 00-.11 9.6 36.3 36.3 0 0132.8-1.12 39.62 39.62 0 00-1.65-10.89C346.82 236.35 344.55 233.07 341.21 231.6z" class="color020202 svgShape"></path><path fill="#020202" d="M348.39,235.85c-1.88-4.33-4.94-8.26-9.06-10-7.07-3-15.35,1.34-19.86,8s-5.65,14.78-7,22.87c2.33.37,4.55-1.36,5.84-3.48s1.92-4.63,2.89-6.95c1.74-4.2,6.4-14.5,11.84-14.23,4.25.21,12.22,17.14,15.88,20.43.74.67,2.45,1.18,2.91.27a5,5,0,0,0,.12-3.06C351.11,245,350.27,240.19,348.39,235.85Z" class="color020202 svgShape"></path><path fill="#e6994c" d="M330.33,283.34a19.68,19.68,0,0,0-.77,6.74c0,.16,0,.33,0,.49a6.63,6.63,0,0,0,1.14-3A10.5,10.5,0,0,0,330.33,283.34Z" class="color4c5ee6 svgShape"></path><path fill="#020202" d="M329.14,292l-.05-1.92a19.72,19.72,0,0,1,.79-6.9l.5-1.37.4,1.4a10.69,10.69,0,0,1,.4,4.41,7.12,7.12,0,0,1-1.22,3.22Zm1.13-6.51a21.75,21.75,0,0,0-.24,3,6.07,6.07,0,0,0,.21-1A9,9,0,0,0,330.27,285.49Z" class="color020202 svgShape"></path><path fill="#e6994c" d="M361.45,318.86c-3.64-2.83-7.79-4.9-11.62-7.44q6.07-1.95,12-4.31c2.74-1.1,5.69-2.49,6.94-5.16,2.07-4.45-1.63-9.33-5.1-12.8a24.19,24.19,0,0,1-3.23-4.8,12,12,0,0,0,2.77-2.45,13.16,13.16,0,0,0,2.48-9.07,38.39,38.39,0,0,0-2.18-9.35c-3.59-11.11-2.19-22.37-8.62-32.21S339.84,220,327.84,220.35c-3.61.1-7.36.86-10.17,3.13-3.3,2.67-4.77,6.93-6.09,11-2.87,8.81-5.75,14.12-8.62,22.92-1.81,5.53-3.63,11.46-2.09,17.07l.09.25c-1.81,2.39-3.69,5.18-4.85,6.42-3.16,3.4-6.8,6.6-7.07,11.59a11.16,11.16,0,0,0,1.6,6.22c-.12.11-.25.2-.36.31-3.28,3.33-2,9.15,1,12.68,6.74,7.79,18.67,7.83,28.86,6.37,2.11-.3,4.21-.65,6.31-1a93.87,93.87,0,0,1,23.82,18.28c2.78,3,5.81,6.38,9.87,6.66,5.2.36,9.42-5.17,9.17-10.38S365.57,322.06,361.45,318.86Zm-38-86.39c6.13-4.57,15.91-4.19,20.63,1.82,3.13,4,3.6,9.4,3.7,14.47.1,5.29-.08,10.65-1.59,15.72s-4.48,9.86-9,12.67c-1.93,1.22-4.16,2.09-5.63,3.83a7.61,7.61,0,0,0-1.31,2.36,10.5,10.5,0,0,1,.38,4.22,6.65,6.65,0,0,1-.46,1.75l-.69.26a18.18,18.18,0,0,1,.77-6.23c-1-3.47-3.5-6.66-5.69-9.66-4.52-6.17-8.26-13.18-9.06-20.78S317.36,237,323.49,232.47Z" class="color4c5ee6 svgShape"></path><path fill="#020202" d="M360.65,342.67l-.5,0c-4.1-.28-7.17-3.57-9.87-6.48l-.32-.33a92.65,92.65,0,0,0-23.55-18.1c-2.28.4-4.3.73-6.16,1-14.15,2-23.73-.11-29.28-6.53-3.18-3.67-4.48-9.81-1-13.32l.1-.09a11.45,11.45,0,0,1-1.47-6.13c.25-4.58,3.22-7.7,6.08-10.71.38-.39.75-.78,1.12-1.18.73-.78,1.79-2.25,2.91-3.79.57-.79,1.16-1.61,1.75-2.4v0c-1.63-5.93.43-12.26,2.09-17.33,1.44-4.42,2.91-8,4.32-11.5s2.87-7,4.31-11.43c1.21-3.71,2.72-8.33,6.23-11.17,2.5-2,6-3.11,10.45-3.24,12.24-.36,21.11,1.37,27.48,11.13,4,6.14,5,12.69,6,19.61A79.32,79.32,0,0,0,364,263.34a39.28,39.28,0,0,1,2.2,9.46,13.57,13.57,0,0,1-2.59,9.4,12.09,12.09,0,0,1-2.5,2.29,22.32,22.32,0,0,0,2.93,4.33c5.17,5.16,6.91,9.64,5.19,13.33-1.33,2.85-4.41,4.28-7.19,5.39-3.49,1.41-7.22,2.76-11.1,4,1.2.77,2.44,1.51,3.64,2.23a68.71,68.71,0,0,1,7.19,4.7h0c2.89,2.24,7.78,7,8.08,13.29a11.29,11.29,0,0,1-3.34,8.35A8.35,8.35,0,0,1,360.65,342.67Zm-34.08-25.92.15.08a93.49,93.49,0,0,1,23.93,18.37l.32.33c2.71,2.91,5.52,5.92,9.24,6.18a7.34,7.34,0,0,0,5.61-2.25,10.35,10.35,0,0,0,3.06-7.64c-.28-5.95-5-10.44-7.72-12.59a69.52,69.52,0,0,0-7.09-4.63c-1.49-.89-3-1.81-4.5-2.79l-.82-.54.93-.3c4.2-1.35,8.23-2.79,12-4.3,2.61-1.05,5.5-2.38,6.69-4.92,1.53-3.29-.15-7.42-5-12.27a24.08,24.08,0,0,1-3.29-4.86l-.22-.39.35-.28a11.4,11.4,0,0,0,2.66-2.34,12.67,12.67,0,0,0,2.38-8.75,38.52,38.52,0,0,0-2.15-9.23,78.66,78.66,0,0,1-2.68-12.87c-1-6.82-2-13.26-5.89-19.24-6.16-9.42-14.45-11.06-26.66-10.7-4.22.12-7.55,1.14-9.89,3-3.29,2.66-4.75,7.14-5.93,10.74-1.44,4.42-2.91,8-4.32,11.49s-2.87,7-4.3,11.43c-1.62,5-3.64,11.13-2.08,16.79l.14.47-.14.19c-.63.84-1.27,1.73-1.89,2.58-1.14,1.57-2.21,3-3,3.88l-1.12,1.19c-2.88,3-5.6,5.88-5.83,10.11a10.67,10.67,0,0,0,1.54,6l.19.33-.29.26-.16.13a1.22,1.22,0,0,0-.17.15c-3.08,3.12-1.85,8.69,1.06,12.05,5.32,6.15,14.63,8.19,28.44,6.21,1.89-.28,3.95-.61,6.29-1Zm2.52-26.51v-.67a19.25,19.25,0,0,1,.74-6.25c-.92-3-3-5.87-5-8.61l-.55-.76c-5.45-7.44-8.44-14.31-9.15-21-.89-8.35,2.29-16.54,8.1-20.86h0c6.65-5,16.59-4.06,21.28,1.91,3.17,4,3.7,9.48,3.8,14.75.09,4.86,0,10.54-1.61,15.86-1.7,5.71-4.95,10.3-9.16,12.94-.55.35-1.12.67-1.7,1a13.05,13.05,0,0,0-3.82,2.76,7,7,0,0,0-1.18,2.07,10.8,10.8,0,0,1,.36,4.26,7.63,7.63,0,0,1-.5,1.87l-.08.19Zm1.18-4.75a21.44,21.44,0,0,0-.24,3,5.94,5.94,0,0,0,.21-1A9,9,0,0,0,330.27,285.49Zm-6.5-52.65c-5.54,4.13-8.57,12-7.73,20,.69,6.52,3.63,13.24,9,20.55l.55.75a35.07,35.07,0,0,1,4.81,7.88,7.21,7.21,0,0,1,.9-1.35,13.89,13.89,0,0,1,4.09-3c.56-.31,1.11-.62,1.65-1,4-2.52,7.12-6.92,8.75-12.41,1.55-5.19,1.67-10.78,1.58-15.57-.1-5.11-.6-10.37-3.6-14.19-4.39-5.59-13.72-6.4-20-1.74Z" class="color020202 svgShape"></path><path fill="#020202" d="M318.84 227.84a.52.52 0 00-.21.71.54.54 0 00.46.27.57.57 0 00.25-.06A31.31 31.31 0 01346 227.32a.53.53 0 00.68-.28.51.51 0 00-.28-.68A32.36 32.36 0 00318.84 227.84zM328.5 287.69a86.43 86.43 0 01-14.43-4.34 28 28 0 01-11.79-8.83.53.53 0 00-.73-.11.52.52 0 00-.11.73 29.15 29.15 0 0012.21 9.17 87.16 87.16 0 0014.61 4.39h.12a.52.52 0 00.51-.4A.51.51 0 00328.5 287.69zM355.51 247.33a.52.52 0 00-1 .06l1.15 19.41a12.61 12.61 0 01-.33 4.77 3.9 3.9 0 01-3.12 2.75.53.53 0 00-.5.55.53.53 0 00.52.49h0a4.89 4.89 0 004-3.44 13.14 13.14 0 00.39-5.18zM310.64 260.73a.52.52 0 10-1-.07 18 18 0 008.5 16.27.56.56 0 00.27.08.52.52 0 00.27-1A16.93 16.93 0 01310.64 260.73zM359.89 283.9l-59.63 15.42c-3.35.87-7.07 1.46-9.34-.65a.53.53 0 00-.74 0 .52.52 0 000 .73 7 7 0 005 1.73 21.74 21.74 0 005.31-.83l59.63-15.42a.53.53 0 00.37-.64A.51.51 0 00359.89 283.9zM349.46 309.75a69.09 69.09 0 01-22.42 6 .52.52 0 000 1h.05a70.1 70.1 0 0022.76-6.13.53.53 0 00.25-.7A.52.52 0 00349.46 309.75zM358.49 326.68a22.57 22.57 0 00-7.32-3l-10.42-2.84a.53.53 0 00-.64.37.52.52 0 00.37.64l10.42 2.83a21.38 21.38 0 017 2.81 6.92 6.92 0 013.18 6.08.52.52 0 00.45.58h.07a.51.51 0 00.51-.46C362.45 330.69 360.46 328.1 358.49 326.68z" class="color020202 svgShape"></path><path fill="#f9f8f7" d="M331.08 481.31a.52.52 0 00-.57.46l-6.31 59.36c-1.33 12.45-2.57 23.67-4.45 34.93a.53.53 0 00.43.6h.09a.52.52 0 00.51-.44c1.88-11.29 3.13-22.52 4.46-35l6.3-59.35A.52.52 0 00331.08 481.31zM307.2 472.09a.52.52 0 00-.56.48 20.42 20.42 0 01-28.55 17.06.53.53 0 00-.69.27.52.52 0 00.27.69 21.37 21.37 0 008.56 1.76 21.38 21.38 0 0021.45-19.7A.53.53 0 00307.2 472.09z" class="colorf9f7f8 svgShape"></path><path fill="#f9f8f7" d="M304.93 463.87a.52.52 0 00-.56.48 20.43 20.43 0 01-28.55 17.06.52.52 0 00-.42 1A21.8 21.8 0 00295 481.13a21.8 21.8 0 0010.39-16.7A.52.52 0 00304.93 463.87zM374.11 493.52c-4.4 1.17-9.32-.86-12.83-5.3s-5.57-11.31-5.21-17.76a.52.52 0 10-1 0c-.37 6.68 1.71 13.76 5.43 18.46 3.06 3.86 7.15 6 11.14 6a10.93 10.93 0 002.78-.36.52.52 0 10-.27-1z" class="colorf9f7f8 svgShape"></path><path fill="#f9f8f7" d="M376.63 486.05c-4.4 1.17-9.31-.87-12.83-5.31s-5.57-11.31-5.21-17.76a.52.52 0 10-1-.05c-.37 6.69 1.71 13.76 5.43 18.46 3.07 3.87 7.15 6 11.14 6a10.45 10.45 0 002.78-.36.52.52 0 10-.27-1zM371.56 449.84a100.8 100.8 0 01-84.17-5.22.51.51 0 00-.7.2.52.52 0 00.21.71A101.83 101.83 0 00372 450.81a.52.52 0 10-.39-1zM366.07 662.2a107.18 107.18 0 01-27.72 13.68.52.52 0 00-.34.66.53.53 0 00.5.36.45.45 0 00.16 0 108.35 108.35 0 0028-13.81.52.52 0 00-.6-.86zM249.82 669.39a.52.52 0 00-.38.63.53.53 0 00.64.38 44.51 44.51 0 0135.18 5.93.52.52 0 00.58-.87A45.55 45.55 0 00249.82 669.39z" class="colorf9f7f8 svgShape"></path><path fill="#fffcf9" d="M591.91,536.93s-10,57.86-60.51,55.07C531.4,592,535.29,541.14,591.91,536.93Z" class="colorfff9ff svgShape"></path><path fill="#020202" d="M539.79,565.66a66.44,66.44,0,0,0-9.12,26.28.74.74,0,0,0,.69.79c1.19.06,2.38.1,3.54.1h0c24.85,0,39.23-15.2,46.93-27.94a91.29,91.29,0,0,0,10.81-27.84.75.75,0,0,0-.18-.61.77.77,0,0,0-.6-.24C562.3,538.4,547.23,553.43,539.79,565.66Zm-7.58,25.64a66,66,0,0,1,8.87-24.93c7.18-11.78,21.65-26.23,49.92-28.63a90.24,90.24,0,0,1-10.45,26.43c-10.91,18-26.26,27.19-45.65,27.19h0C534,591.36,533.12,591.34,532.21,591.3Z" class="color020202 svgShape"></path><rect width="57.48" height="1.47" x="523.97" y="571.97" fill="#020202" transform="rotate(-42.15 552.775 572.743)" class="color020202 svgShape"></rect><path fill="#fffcf9" d="M525.14,592c-50.47,2.79-60.51-55.07-60.51-55.07C521.26,541.14,525.14,592,525.14,592Z" class="colorfff9ff svgShape"></path><path fill="#020202" d="M464.09,536.44a.71.71,0,0,0-.18.61,90.67,90.67,0,0,0,10.81,27.84c7.69,12.75,22.07,27.94,46.92,27.94,1.16,0,2.36,0,3.55-.1a.74.74,0,0,0,.51-.25.75.75,0,0,0,.18-.54,66.37,66.37,0,0,0-9.13-26.28c-7.43-12.23-22.5-27.26-52.06-29.46A.74.74,0,0,0,464.09,536.44Zm1.46,1.3c28.3,2.4,42.77,16.88,49.94,28.68a65.69,65.69,0,0,1,8.84,24.88c-.9,0-1.81.06-2.69.06C478.74,591.36,467.09,545,465.55,537.74Z" class="color020202 svgShape"></path><rect width="1.47" height="57.48" x="503.1" y="543.97" fill="#020202" transform="rotate(-47.86 503.788 572.69)" class="color020202 svgShape"></rect><path fill="#fffcf9" d="M556,470.65s7.11,41.71-27.85,52C528.12,522.61,518.52,487.13,556,470.65Z" class="colorfff9ff svgShape"></path><path fill="#020202" d="M527.41,522.8a.7.7,0,0,0,.35.45.65.65,0,0,0,.36.1l.21,0C563.5,513,556.77,471,556.7,470.53a.75.75,0,0,0-.38-.53.72.72,0,0,0-.64,0C518.08,486.52,527.31,522.44,527.41,522.8Zm28-51.08c.75,6.17,3.5,40.54-26.72,50C527.6,516.59,522.9,486.59,555.38,471.72Z" class="color020202 svgShape"></path><rect width="41.42" height="1.47" x="517.24" y="503.65" fill="#020202" transform="rotate(-61.66 537.922 504.381)" class="color020202 svgShape"></rect><path fill="#fffcf9" d="M527.91,549.36c-36.22-3.94-36.56-46.25-36.56-46.25C531.11,512.75,527.91,549.36,527.91,549.36Z" class="colorfff9ff svgShape"></path><path fill="#020202" d="M490.89,502.53a.74.74,0,0,0-.28.58c0,.43.77,43,37.22,47h.08a.66.66,0,0,0,.46-.17.7.7,0,0,0,.27-.5c0-.37,2.8-37.35-37.12-47A.71.71,0,0,0,490.89,502.53Zm1.23,1.53c34.62,8.93,35.25,39.28,35.09,44.48C495.8,544.58,492.46,510.27,492.12,504.06Z" class="color020202 svgShape"></path><rect width="1.47" height="41.42" x="514.29" y="512.44" fill="#020202" transform="rotate(-38.47 515.042 533.155)" class="color020202 svgShape"></rect><rect width="78.93" height="8.41" x="485.88" y="592.4" fill="#262626" class="color262626 svgShape"></rect><path fill="#020202" d="M485.14,592.4v8.41a.73.73,0,0,0,.74.73H564.8a.73.73,0,0,0,.74-.73V592.4a.73.73,0,0,0-.74-.73H485.88A.73.73,0,0,0,485.14,592.4Zm1.47.73h77.46v6.94H486.61Z" class="color020202 svgShape"></path><polygon fill="#262626" points="540.71 686.37 509.97 686.37 490.57 600.77 560.11 600.77 540.71 686.37" class="color262626 svgShape"></polygon><path fill="#020202" d="M490,600.32a.72.72,0,0,0-.14.62l19.41,85.59a.73.73,0,0,0,.71.57H540.7a.73.73,0,0,0,.72-.57l19.41-85.59a.74.74,0,0,0-.72-.9H490.57A.72.72,0,0,0,490,600.32Zm1.5,1.19h67.7l-19.07,84.12H510.56Z" class="color020202 svgShape"></path><polygon fill="#020202" points="558.12 606.92 501.23 606.92 512.19 686.37 509.97 686.37 490.57 600.77 560.11 600.77 558.12 606.92" class="color020202 svgShape"></polygon><path fill="#020202" d="M490,600.32a.72.72,0,0,0-.14.62l19.41,85.59a.73.73,0,0,0,.71.57h2.22a.73.73,0,0,0,.72-.84l-10.84-78.61h56.05a.73.73,0,0,0,.7-.51l2-6.14a.77.77,0,0,0-.1-.66.74.74,0,0,0-.6-.3H490.57A.72.72,0,0,0,490,600.32Zm1.5,1.19H559.1l-1.52,4.67H501.23a.73.73,0,0,0-.56.25.74.74,0,0,0-.17.59l10.84,78.61h-.78Z" class="color020202 svgShape"></path><rect width="1.47" height="71.02" x="527.54" y="521.05" fill="#020202" class="color020202 svgShape"></rect><path fill="#fffcf9" d="M816.83,695.12l.09,0a47.37,47.37,0,0,1,7.5-.65c7.3-.37,12.5-6.14,19.27-8.51s-11.57-22.13-9.51-28.14c9.77-.32,17.86-9.68,18.61-6.2,8,36.78,19,33.64,19.05,44,0,4.71-4.7,5.61-7.23,5.55-19.51-.48-30.8-.11-46.67,0C814.45,701.19,813.5,696.19,816.83,695.12Z" class="colorfff9ff svgShape"></path><path fill="#020202" d="M817.9,701.63a3.58,3.58,0,0,1-3.55-3.08,3.38,3.38,0,0,1,2.33-3.88l.11,0a39.42,39.42,0,0,1,6.85-.63l.76,0c4.3-.22,7.81-2.34,11.54-4.59a41.23,41.23,0,0,1,7.6-3.89,1.59,1.59,0,0,0,1.05-1c.84-2.29-2.27-7.61-5.29-12.75-3.38-5.76-6.57-11.2-5.56-14.12l.1-.31h.33c5.15-.17,9.83-2.92,13.25-4.92,2.45-1.44,4.06-2.39,5.08-1.95a1.36,1.36,0,0,1,.75,1c4.91,22.61,10.92,30,14.89,34.86,2.41,3,4.16,5.11,4.17,9.23a5.33,5.33,0,0,1-1.57,4c-2,2-5.21,2-6.15,2-14.92-.37-25.2-.23-36.07-.09-3.39,0-6.86.09-10.58.12Zm-1.07-6.51.14.45a2.44,2.44,0,0,0-1.69,2.83,2.62,2.62,0,0,0,2.62,2.29h0l10.57-.13c10.89-.14,21.17-.27,36.12.1a7.94,7.94,0,0,0,5.46-1.75,4.46,4.46,0,0,0,1.29-3.33c0-3.78-1.58-5.71-4-8.63-4-5-10.12-12.42-15.08-35.26-.06-.31-.17-.36-.21-.37-.57-.25-2.35.79-4.23,1.89-3.42,2-8.09,4.75-13.35,5-.53,2.63,2.57,7.92,5.57,13,3.27,5.58,6.36,10.85,5.37,13.56a2.53,2.53,0,0,1-1.63,1.54,40.6,40.6,0,0,0-7.42,3.81c-3.66,2.21-7.45,4.49-12,4.72l-.75,0a41.63,41.63,0,0,0-6.63.59Z" class="color020202 svgShape"></path><path fill="#020202" d="M815.65,694.74a24.35,24.35,0,0,1,11-2.56c2.9-.09,8.32-3,11-4.5a1.5,1.5,0,0,1,2,.62c.67,1.15,2.35,2.7,6.49,3.79,6.38,1.69,19.35-2.93,22.67-4.18a1.09,1.09,0,0,1,1.29.4,17.87,17.87,0,0,1,2.92,6.3,11.59,11.59,0,0,1-.88,5.76,2.16,2.16,0,0,1-2,1.37l-53.71,0a2.6,2.6,0,0,1-2.61-2.63C813.83,697.5,814.19,695.54,815.65,694.74Z" class="color020202 svgShape"></path><path fill="#fffcf9" d="M820.9,315.19,803,364.89l-23.5-27.73c1-4.82,2.33-3.85,3.37-9.52,0-.1,0-.17,0-.26s0-.38.07-.58h0c0-.2,0-.39.06-.61a26.35,26.35,0,0,0-2.21-10.67,5.32,5.32,0,0,0-1.25-1.79,1.61,1.61,0,0,0-1.88-.26,3.49,3.49,0,0,0-1.24,3c0,1.13.25,2.23.21,3.37a7.59,7.59,0,0,1-.14,1.08c-.38-1.77-.76-4-1.22-5.61-.62-2.66-2.66-6.63-4.13-13.32-.22-1-.32-2.18-1-2.74-.89-.73-2.32-.11-3.18,1s-.56,4.13-.42,5.56a64.21,64.21,0,0,0,1.6,8.34A68.41,68.41,0,0,0,762,317c-2.7,1.24-7,3.23-8.38,5.84s2.34,9.79,3.36,12.55c1.17,3.15,1.66,5.32,2.85,6.72l-.08.05s19.82,42.66,31.52,52.54C808.19,409,813,400.48,817.84,396a72,72,0,0,0,17.38-25.34l13.32-32.8C835,334.94,832.76,309.37,820.9,315.19Z" class="colorfff9ff svgShape"></path><path fill="#020202" d="M806.94,403.14c-3.81,0-8.84-2-16-8-11.65-9.84-30.84-51-31.65-52.7l-.15-.33a16.56,16.56,0,0,1-1.85-4.24c-.23-.69-.48-1.43-.78-2.24-.21-.56-.53-1.31-.9-2.17-1.54-3.59-3.66-8.51-2.44-10.76,1.51-2.78,5.95-4.83,8.61-6.05.72-.33,1.41-.7,2.15-1.08a32.75,32.75,0,0,1,3.66-1.73,64.11,64.11,0,0,1-1.51-8c-.24-2.42-.34-4.8.52-5.9a3.69,3.69,0,0,1,2.38-1.49,1.93,1.93,0,0,1,1.47.4,4,4,0,0,1,1.06,2.46c0,.19.07.37.11.55a70.43,70.43,0,0,0,2.92,9.64,35,35,0,0,1,1.21,3.67c.08.28.16.57.23.89a3.7,3.7,0,0,1,1.46-3,2.11,2.11,0,0,1,2.43.3,6,6,0,0,1,1.36,1.95,26.84,26.84,0,0,1,2.26,10.9,3.43,3.43,0,0,1,0,.47l0,.31c0,.17,0,.33-.06.49a2.43,2.43,0,0,1,0,.25,15.23,15.23,0,0,1-1.85,5.42A12.64,12.64,0,0,0,780,337L802.86,364l17.67-49.12.17-.09c6.71-3.29,10.52,2.91,14.56,9.48,3.41,5.54,7.27,11.82,13.38,13.13l.55.11L835.66,370.8a71.83,71.83,0,0,1-17.5,25.51c-.48.45-1,.95-1.46,1.45C814.24,400.28,811.45,403.14,806.94,403.14Zm-46.57-60.76c2,4.26,20.32,42.79,31.23,52,14.84,12.53,19.93,7.32,24.43,2.73.5-.52,1-1,1.48-1.49a70.73,70.73,0,0,0,17.27-25.17l13.12-32.29c-6.19-1.62-10-7.89-13.44-13.43-3.93-6.4-7.34-11.93-13.18-9.2L803.2,365.82,779,337.29l.05-.23a13.77,13.77,0,0,1,1.62-4.37,14.24,14.24,0,0,0,1.75-5.14l0-.24a3,3,0,0,0,0-.42l0-.33c0-.13,0-.26,0-.4a25.78,25.78,0,0,0-2.16-10.44,5.33,5.33,0,0,0-1.13-1.64,1.18,1.18,0,0,0-1.34-.22,3.11,3.11,0,0,0-1,2.55,13.43,13.43,0,0,0,.11,1.52,12.72,12.72,0,0,1,.1,1.87A7.19,7.19,0,0,1,777,321l-.45,2.25L776.1,321c-.12-.56-.24-1.18-.36-1.8-.27-1.33-.54-2.7-.85-3.78a33.33,33.33,0,0,0-1.18-3.59,71.68,71.68,0,0,1-3-9.76c0-.18-.08-.38-.11-.57a3.3,3.3,0,0,0-.74-1.9.94.94,0,0,0-.76-.2,2.84,2.84,0,0,0-1.75,1.12c-.74,1-.45,3.95-.32,5.23a62.74,62.74,0,0,0,1.58,8.27l.11.42-.41.14a29.81,29.81,0,0,0-3.94,1.83c-.71.37-1.44.75-2.19,1.1-2.55,1.17-6.81,3.13-8.17,5.64-1,1.85,1.17,6.92,2.48,9.94.37.88.7,1.63.91,2.21.3.82.56,1.57.8,2.26a13.27,13.27,0,0,0,2,4.32l.35.42Z" class="color020202 svgShape"></path><path fill="#020202" d="M848.54,337.83l-4.26,10.47c-11.53-1.17-23.64.47-35.79-1.36l12.41-31.75C832.76,309.37,835,334.94,848.54,337.83Z" class="color020202 svgShape"></path><path fill="#fffcf9" d="M885.88,688.7c7.26-3.45,3.35-24.94,4.9-31.77,7.27-.32,17,1.28,16.33,5.2-3.92,24.18-2.72,23.15,2.1,30.41,3,4.46,3,9.77-4.68,9.05a178.43,178.43,0,0,0-19.85-.36C879.92,701.26,871,695.74,885.88,688.7Z" class="colorfff9ff svgShape"></path><path fill="#020202" d="M905.84 702.13a13 13 0 01-1.35-.07 137.85 137.85 0 00-16.1-.41l-3.71.05h0c-2.6 0-6.68-1.6-7.35-4.53-.46-2 .62-5.21 8.39-8.9h0c4.63-2.2 4.44-12.73 4.28-21.2-.08-4.28-.15-8 .36-10.25l.08-.35h.36c6.24-.28 13.76.81 16.08 3.42a2.73 2.73 0 01.74 2.33c-3.56 21.94-2.88 22.92.87 28.38.36.51.74 1.07 1.15 1.69 2 2.94 2.46 5.81 1.35 7.67C910.33 701 909 702.13 905.84 702.13zm-12.15-1.48c3.31 0 6.84.1 10.88.48 2.84.26 4.76-.31 5.57-1.66.91-1.52.4-4.08-1.32-6.67l-1.14-1.68c-3.94-5.72-4.65-6.75-1-29.07a1.79 1.79 0 00-.51-1.54c-2.06-2.32-9.17-3.34-15-3.12a58.42 58.42 0 00-.27 9.66c.17 9.19.37 19.61-4.82 22.07-5.62 2.67-8.42 5.46-7.87 7.84s4.09 3.8 6.42 3.8h0l3.7 0C890.11 700.68 891.86 700.65 893.69 700.65zM817.68 446.7c3.57-2.65 10.18-30.44 13.67-33.21 7.72-6.12 36.9-6 46-3.37-3.83 107.67-13.54 105.24-32.93 151.14C841 569.52 863 644.5 860.33 671.75c-5.89 1.28-13.63 4.3-21.05 5.32-9.31-11.75-37-70.42-40.53-112.6a33.18 33.18 0 010-5.55C803 512 803.44 502.78 817.68 446.7z" class="color020202 svgShape"></path><path fill="#020202" d="M903.88,402.08c12.68,47.26,20.69,217.35,7,269.76-12.62,1.08-13.08.7-25.7,1.79-1.19-23.9-4.35-63-17.18-103.36a32.15,32.15,0,0,1-1.24-5.41c-6.3-46.7-18.69-54-27.94-114.41,2.89-3.38,24.48-31.15,27.27-34.63C872.25,408.14,894.42,401.59,903.88,402.08Z" class="color020202 svgShape"></path><path fill="#e6994c" d="M818.81,369.75q.35-4.28.72-8.45c0-.44.05-.75.07-.91.12-1,.2-2.1.29-3.22V357c.41-4.36.82-8.51,1.22-12.33.1-1,.21-2,.31-2.93,0,0,0-.06,0-.1.92-8.32,1.87-14.63,2.72-17.18,2.16-6.41,5.37-28.88,17.08-35.75a3.64,3.64,0,0,0,.39-.23l.25-.13c1.83-1.07,3.59-2,5.19-2.8l.37-.18c7.37-3.64,13.37-6,13.37-6s6.22,1.89,13.84,4.92c1.09.45,2.2.89,3.34,1.39.31.12.64.27,1,.41,11.23,4.84,23.6,11.72,23.91,18.66l10,148.14s-18.12-6.44-52.37-1c-12.13,1.92-49.13-1-49.13-1s5.11-53.46,7.37-81A.39.39,0,0,1,818.81,369.75Z" class="color4c5ee6 svgShape"></path><path fill="#020202" d="M913.44,453.59l-.67-.24c-.18-.07-18.44-6.34-52.14-1-12,1.9-48.88-.95-49.25-1l-.48,0,.05-.48c0-.53,5.14-53.76,7.37-81a.64.64,0,0,1,0-.18c.23-2.84.46-5.65.71-8.41l0-.52c0-.18,0-.32,0-.41.08-.72.14-1.47.2-2.25l.08-.95V357c.44-4.72.84-8.75,1.22-12.38.05-.55.11-1.1.17-1.64s.1-.87.14-1.29l0-.13c1-9,1.93-14.81,2.74-17.25.41-1.21.87-3.07,1.41-5.22,2.34-9.4,6.25-25.13,15.88-30.78.15-.09.27-.15.37-.22l.3-.16c1.8-1,3.56-2,5.19-2.8l.36-.18c7.31-3.61,13.36-6,13.42-6l.15-.06.16.05c.06,0,6.32,1.93,13.88,4.94l.7.28c.87.36,1.75.72,2.65,1.11l.59.25.37.15c15.8,6.82,23.94,13.24,24.2,19.08Zm-26.94-4.34c14.67,0,23.5,2.28,25.91,3l-10-147.45c-.24-5.39-8.41-11.71-23.63-18.27l-.38-.16c-.19-.08-.38-.17-.56-.23-.92-.41-1.8-.76-2.65-1.11l-.71-.29c-6.84-2.72-12.62-4.54-13.64-4.86-1,.4-6.56,2.67-13.18,5.95l-.39.18c-1.6.79-3.33,1.73-5.14,2.77l-.26.14-.36.22c-9.31,5.46-13.17,20.95-15.47,30.21-.54,2.17-1,4-1.42,5.29-.79,2.35-1.72,8.26-2.7,17.08l0,.12c0,.45-.09.86-.13,1.27s-.12,1.09-.17,1.64c-.39,3.62-.78,7.65-1.22,12.33v.09l-.08,1c-.06.79-.13,1.55-.21,2.29q0,.12,0,.36l0,.53q-.37,4.17-.72,8.45l0,.1c-2.12,25.91-6.81,75.18-7.33,80.56,4.37.33,37.35,2.72,48.55.95A166.89,166.89,0,0,1,886.5,449.25Zm-67.24-79.38h0Zm2.62-28v0Zm0-.08s0,0,0,.06S821.89,341.79,821.89,341.77Zm-.92-.18v0Zm0,0v0Z" class="color020202 svgShape"></path><path fill="#fffcf9" d="M874.65,284.3c-1.26-.5-2.48-1-3.65-1.4l-.56-6.38-.56-6.49h-15l-.78,6.69-.69,5.85c-1.79.82-3.82,1.77-6,2.83l-.37.18c-.23.83,12.73,9.8,12.73,9.8s18.41-8.89,18.19-9.69C876.85,285.19,875.74,284.75,874.65,284.3Z" class="colorfff9ff svgShape"></path><path fill="#020202" d="M859.75,295.92l-.22-.15c-13.23-9.17-13-9.94-12.91-10.32l.06-.22.2-.09a2.16,2.16,0,0,0,.34-.16c1.84-.9,3.77-1.82,5.75-2.72l1.48-12.7h15.86l1.14,13c1.08.41,2.21.84,3.38,1.31h0l.7.28c.87.36,1.75.72,2.65,1.11l.21.09.06.22c.11.44.31,1.17-18.45,10.23Zm-12-10.14c1.22,1.29,6.86,5.43,12.09,9.06,6-2.92,15.22-7.53,17.33-9l-2-.82-.71-.29c-1.25-.5-2.47-1-3.63-1.4l-.28-.11-1.12-12.73H855.29l-1.45,12.39-.24.11C851.58,283.92,849.61,284.86,847.75,285.78Z" class="color020202 svgShape"></path><path fill="#020202" d="M869.88 270l.56 6.49a13.72 13.72 0 01-5.87 1.05 17.44 17.44 0 01-10.09-3.92l.39-3.62zM861.85 222.47c10.84 0 19.62 8.21 19.62 18.34s-8.78 18.34-19.62 18.34-19.62-8.21-19.62-18.34S851 222.47 861.85 222.47z" class="color020202 svgShape"></path><path fill="#fffcf9" d="M862.1,226.88c10.46,0,18.94,10.93,18.94,24.41s-8.48,24.42-18.94,24.42-18.94-10.93-18.94-24.42S851.63,226.88,862.1,226.88Z" class="colorfff9ff svgShape"></path><path fill="#020202" d="M862.1,276.18c-10.71,0-19.42-11.17-19.42-24.89s8.71-24.88,19.42-24.88,19.41,11.16,19.41,24.88S872.8,276.18,862.1,276.18Zm0-48.83c-10.19,0-18.47,10.74-18.47,23.94s8.28,24,18.47,24,18.47-10.75,18.47-24S872.28,227.35,862.1,227.35Z" class="color020202 svgShape"></path><path fill="#fffcf9" d="M884.14,242.68a4.72,4.72,0,0,0-3.87,1.76c-2.3-10.15-9.56-17.56-18.17-17.56s-15.93,7.47-18.21,17.67a4.73,4.73,0,0,0-3.95-1.87c-2.86.2-5,3.36-4.71,7.06s5.15,8.56,8,8.36a2,2,0,0,0,.62-.16c2.25,10.25,9.55,17.77,18.23,17.77s15.95-7.49,18.21-17.72a2.08,2.08,0,0,0,.52.11c2.87.2,7.76-4.67,8-8.36S887,242.88,884.14,242.68Z" class="colorfff9ff svgShape"></path><path fill="#020202" d="M862.1,276.18c-8.53,0-16.11-7.23-18.58-17.64l-.24,0c-3.22.23-8.25-4.95-8.52-8.8s2-7.34,5.15-7.56a5,5,0,0,1,3.72,1.39c2.58-10.17,10.07-17.19,18.47-17.19s15.84,7,18.44,17.1a4.87,4.87,0,0,1,3.63-1.3h0c3.12.22,5.43,3.61,5.15,7.56s-5.34,9-8.52,8.8l-.14,0C878.19,269,870.61,276.18,862.1,276.18ZM844.21,257.3l.12.54c2.25,10.24,9.55,17.4,17.77,17.4s15.49-7.14,17.75-17.35l.11-.51.5.17a1.77,1.77,0,0,0,.4.08c2.54.19,7.27-4.38,7.52-7.93s-1.67-6.37-4.28-6.55a4.15,4.15,0,0,0-3.47,1.6l-.61.69-.2-.9c-2.3-10.12-9.58-17.19-17.72-17.19s-15.48,7.11-17.75,17.3l-.2.93-.62-.73a4.26,4.26,0,0,0-3.56-1.7c-2.6.18-4.52,3.12-4.27,6.55s5,8.08,7.51,7.93a1.47,1.47,0,0,0,.48-.12Z" class="color020202 svgShape"></path><path fill="#020202" d="M886 244.55a.52.52 0 01.61.48.54.54 0 01-.48.61 4 4 0 00-3.19 2.34 5.18 5.18 0 012.72.24.55.55 0 11-.32 1.05 3.44 3.44 0 00-2.46-.1c-.58.31-.8 1.08-1.07 2a10 10 0 01-.55 1.53.55.55 0 01-.5.31.57.57 0 01-.18 0 .54.54 0 01-.35-.65C881.73 245.88 884 244.78 886 244.55zM857.56 257.94a5.54 5.54 0 002.75.78 1.13 1.13 0 00.6-.11c.26-.18.25-.75.22-1.17l-.51-6.67a.55.55 0 011.1-.09l.51 6.68a2.34 2.34 0 01-.68 2.15 2 2 0 01-1.17.31h-.09a6.72 6.72 0 01-3.29-.93.55.55 0 01-.2-.75A.57.57 0 01857.56 257.94zM866.09 266.72c-1.23.54-2 1.66-3.2 2.24a5.61 5.61 0 01-6.28-1.18c-1.12-1.19-1.65-3.22-2.35-4.7A12.29 12.29 0 00866.09 266.72zM868.49 247.3c.71 0 1.29 1 1.29 2.14s-.58 2.14-1.29 2.14-1.3-1-1.3-2.14S867.77 247.3 868.49 247.3zM851.73 247.3c.71 0 1.29 1 1.29 2.14s-.58 2.14-1.29 2.14-1.3-1-1.3-2.14S851 247.3 851.73 247.3zM867.68 244.86a4.09 4.09 0 013.08.78 3.54 3.54 0 011.12 1.74c.11.39-.3.79-.49.47a3.72 3.72 0 00-1.22-1.27 3 3 0 00-2.63-.23c-.18.07-.33-.13-.29-.39s.09-.5.13-.74S867.54 244.87 867.68 244.86z" class="color020202 svgShape"></path><path fill="#020202" d="M853.58 244.86a.39.39 0 01.3.36c0 .24.08.49.13.74s-.1.46-.29.39a3 3 0 00-2.63.23 3.72 3.72 0 00-1.22 1.27c-.18.32-.6-.08-.48-.47a3.53 3.53 0 011.11-1.74A4.1 4.1 0 01853.58 244.86zM875.2 229.57c1.19 0 5.78 5.39 5.78 11.22a43.36 43.36 0 01-.5 8.09s-5.74-2.26-5.74-8.09S874 229.57 875.2 229.57zM849 229.57c1.19 0-1.47 5.39-1.47 11.22s-3.81 8.09-3.81 8.09a43.36 43.36 0 01-.5-8.09C843.21 235 847.8 229.57 849 229.57z" class="color020202 svgShape"></path><path fill="#020202" d="M849,230.61A22.39,22.39,0,0,1,861,225a13.66,13.66,0,0,1-4,11.1c-3.08,3-14.62,7.13-11.19-1.23A12.2,12.2,0,0,1,849,230.61Z" class="color020202 svgShape"></path><path fill="#020202" d="M859.78 224.46a8.12 8.12 0 014-.06 21.09 21.09 0 019.75 4.3 14.37 14.37 0 015.22 9.13 3.79 3.79 0 01-.78 3.25c-1.18 1.15-3.13.65-4.68.09a43.11 43.11 0 01-10-4.67C860.37 234.49 853.2 226.66 859.78 224.46zM838.09 244.55c2 .23 4.26 1.33 5.78 7.74a.56.56 0 01-.35.65.63.63 0 01-.19 0 .53.53 0 01-.49-.31 10.08 10.08 0 01-.56-1.53c-.26-.88-.49-1.65-1.07-2a3.44 3.44 0 00-2.46.1.53.53 0 01-.68-.37.55.55 0 01.37-.68 5.14 5.14 0 012.71-.24 4 4 0 00-3.18-2.34.55.55 0 01-.49-.61A.54.54 0 01838.09 244.55z" class="color020202 svgShape"></path><path fill="#e6994c" d="M841.86,288.47a1.76,1.76,0,0,1,.69-.09l-3.24,60.53-35.75-4.61S827,295,841.86,288.47Z" class="color4c5ee6 svgShape"></path><path fill="#020202" d="M839.75,349.44l-36.89-4.75.28-.59c1-2,23.64-49.54,38.53-56.06l.06,0a2.33,2.33,0,0,1,.91-.11l.41.08Zm-35.48-5.52,34.6,4.46,3.18-59.47h0C828.31,295,807,338.34,804.27,343.92Z" class="color020202 svgShape"></path><path fill="#e6994c" d="M840.74,289.57l3.16-1.8-.69,9.7.67,27.2s-7.67,2.63-7.48,2.29-.42-16.35,0-18.1S840.74,289.57,840.74,289.57Z" class="color4c5ee6 svgShape"></path><path fill="#020202" d="M840.49 673.38l20-4.46a4.57 4.57 0 012 8.92l-20 4.46a4.57 4.57 0 11-2-8.92zM888.35 667.85l20.44.93a4.57 4.57 0 11-.41 9.14L887.93 677a4.57 4.57 0 01-4.36-4.78h0A4.57 4.57 0 01888.35 667.85z" class="color020202 svgShape"></path><path fill="#f9f8f7" d="M850.87,504.73a.5.5,0,0,1,.63.31l8.23,24a.5.5,0,0,1-.31.63l-.16,0a.5.5,0,0,1-.48-.34l-8.22-24A.49.49,0,0,1,850.87,504.73Z" class="colorf9f7f8 svgShape"></path><path fill="#020202" d="M884.63,688.75a7.5,7.5,0,0,0,2.37-1,8.54,8.54,0,0,1,6-.91c2.45.41,4.74,1.46,7.14,2.08a10.21,10.21,0,0,0,6.47-.14A1.24,1.24,0,0,1,908,689a15.68,15.68,0,0,1,4.56,11.76,1.72,1.72,0,0,1-1.71,1.65H876.65a1.51,1.51,0,0,1-1.53-1.56,12.36,12.36,0,0,1,9.51-12.08Z" class="color020202 svgShape"></path><path fill="#fffcf9" d="M916.58,364.36,892,328.27c13.2-.25,10.65-21.25,21.69-12.91,0,0,50.77,56.12,37.5,67.46-17.15,14.66-73.62-4.57-73.62-4.57l28.13-8.64Z" class="colorfff9ff svgShape"></path><path fill="#020202" d="M929.85,388.84c-22.33,0-50.82-9.58-52.48-10.14l-1.38-.47,29.52-9.07,10.37-5-24.81-36.35.87,0c6-.11,8.62-4.75,10.92-8.84,1.63-2.92,3-5.44,5.44-5.94,1.58-.33,3.43.31,5.62,2,1.74,1.9,41,45.51,39.88,63a7.12,7.12,0,0,1-2.36,5.17C946.58,387.34,938.7,388.84,929.85,388.84Zm-50.77-10.58c8.82,2.83,56.5,17.24,71.75,4.2a6.2,6.2,0,0,0,2-4.51c1.09-17.11-39.17-61.82-39.57-62.27-1.9-1.42-3.5-2-4.8-1.74-2,.42-3.29,2.76-4.81,5.48-2.2,3.92-4.9,8.75-10.87,9.28l24.47,35.85L905.85,370Z" class="color020202 svgShape"></path><path fill="#020202" d="M913.64,315.36s11,12.14,21.39,26.27c-8.34,4-17.56,7.18-25.4,12.54L892,328.27C905.15,328,902.6,307,913.64,315.36Z" class="color020202 svgShape"></path><polygon fill="#e6994c" points="935.98 338.41 890.96 360.39 886.69 321.82 901.38 300.68 935.98 338.41" class="color4c5ee6 svgShape"></polygon><path fill="#020202" d="M890.56,361.11,886.2,321.7l15.13-21.77,35.43,38.63ZM887.17,322l4.18,37.73,43.86-21.41-33.78-36.84Z" class="color020202 svgShape"></path><path fill="#e6994c" d="M900.33,300l1.55,1.93L894.43,327,878.81,328s2.54-13,3.49-14.63S900.33,300,900.33,300Z" class="color4c5ee6 svgShape"></path><polygon fill="#e6994c" points="883.87 280.9 877.46 296.13 869.85 299.54 871.25 306.75 853.49 315.28 870.85 282.91 883.87 280.9" class="color4c5ee6 svgShape"></polygon><path fill="#020202" d="M852.39,316.33l18.15-33.85,14.09-2.17-6.81,16.18-7.44,3.32,1.4,7.21Zm18.76-33-16.56,30.89,16.13-7.75-1.41-7.22,7.79-3.48,6-14.28Z" class="color020202 svgShape"></path><polygon fill="#e6994c" points="843.2 280.3 854.02 282.71 853.49 315.28 844.6 296.53 849.21 297.53 845.6 292.12 843.2 280.3" class="color4c5ee6 svgShape"></polygon><path fill="#020202" d="M853.93,317.3l-10.16-21.43,4.4,1-3-4.61-2.55-12.53,11.91,2.64Zm-8.49-20.1,7.61,16.05.49-30.17-9.73-2.16,2.24,11,4.2,6.3Z" class="color020202 svgShape"></path><polygon fill="#fffcf9" points="865.81 291.87 865.98 297.88 859.8 303.56 854.95 303.23 851.28 296.55 853.78 291.37 865.81 291.87" class="colorfff9ff svgShape"></polygon><path fill="#020202" d="M860,304.05l-5.3-.37-3.92-7.12,2.75-5.67,12.77.53.18,6.66Zm-4.73-1.27,4.39.3,5.87-5.4-.15-5.36-11.28-.47-2.26,4.68Z" class="color020202 svgShape"></path><polygon fill="#fffcf9" points="860.2 300.1 861.46 311.09 853.01 343.05 848.93 310.67 854.42 299.68 860.2 300.1" class="colorfff9ff svgShape"></polygon><path fill="#020202" d="M852.85,345.52l-4.4-34.94,5.69-11.39,6.48.47,1.32,11.46,0,.09Zm-3.43-34.77,3.76,29.84,7.8-29.54-1.21-10.5-5.07-.38Z" class="color020202 svgShape"></path><path fill="#262626" d="M823.16,320.42l85.49-.27a5.27,5.27,0,0,1,4.89,3.68l12.64,47.38a2.83,2.83,0,0,1-2.92,3.7l-85.49.27a5.28,5.28,0,0,1-4.89-3.68l-12.64-47.38A2.82,2.82,0,0,1,823.16,320.42Z" class="color262626 svgShape"></path><path fill="#020202" d="M837.76,375.65a5.81,5.81,0,0,1-5.34-4l-12.64-47.38a3.41,3.41,0,0,1,.51-3,3.49,3.49,0,0,1,2.87-1.3l85.49-.27h0a5.8,5.8,0,0,1,5.34,4l12.64,47.38a3.38,3.38,0,0,1-.51,3,3.49,3.49,0,0,1-2.87,1.3l-85.49.27Zm-14.6-54.76a2.58,2.58,0,0,0-2.12.93,2.48,2.48,0,0,0-.35,2.18l12.65,47.38a4.78,4.78,0,0,0,4.42,3.32h0l85.49-.26a2.58,2.58,0,0,0,2.12-.93,2.44,2.44,0,0,0,.35-2.18L913.09,324a4.79,4.79,0,0,0-4.43-3.33h0Z" class="color020202 svgShape"></path><path fill="#020202" d="M898,367.57h55.2a3.57,3.57,0,0,1,0,7.13H898a3.57,3.57,0,0,1,0-7.13Z" class="color020202 svgShape"></path><path fill="#fffcf9" d="M904.42,381a10.18,10.18,0,0,0-3.13-1.2l-1.09-.31c-1.43-.43-2.29-.69-6.29-.69l-1.87,0c-2.35,0-4.42.19-6.26.32-1.63.13-3,.23-4.31.23a10.53,10.53,0,0,1-3.89-.58,20,20,0,0,1-9.34-8l-.79-1.31c-2-3.24-2.85-4.72-2.15-5.84a2,2,0,0,1,1.68-1.16,2.28,2.28,0,0,1,.85.18h0a2.65,2.65,0,0,1-.34-1.73c.43-1.1,1.14-1.73,1.93-1.73a1.67,1.67,0,0,1,.77.2,3.84,3.84,0,0,1,.62.38,2,2,0,0,1-.13-2,2.46,2.46,0,0,1,1.9-1.07,2.06,2.06,0,0,1,1.14.37,15.42,15.42,0,0,1,2.68,3.19c.26.37.49.69.64.88l.65.86c.13.19.28.39.44.6,0-.11-.08-.21-.12-.32s-.18-.51-.28-.79c-.5-1.35-1-2.74-.6-3.64a1.27,1.27,0,0,1,.75-.67,1.87,1.87,0,0,1,.69-.13c1,0,1.71.78,2.6,2.14A6.93,6.93,0,0,1,882,361a11,11,0,0,0,2.4,4.1,10.54,10.54,0,0,0,6.72,3.92,3.56,3.56,0,0,0,.79.1,5.77,5.77,0,0,0,2.59-.81,4.16,4.16,0,0,1,1.78-.61l.24,0c1.38.22,2.77,1.13,2.63,2.22-.06.49-.51.86-1,1.25a3.66,3.66,0,0,0-.74.73c2,.57,14,1.41,20.53,1.87,3.71.26,6.39.45,7,.54s.55.43.54.54c0,.51,0,.82-15.79,2.32l-4.92,4.14Z" class="colorfff9ff svgShape"></path><path fill="#020202" d="M872.59,357.21a1.59,1.59,0,0,1,.88.29c.89.6,2.59,3.18,3.21,4a37.72,37.72,0,0,0,3,3.68c.13.11.21.16.25.16.22,0-1-1.79-1.41-3.15-.54-1.59-1.72-4.05-.42-4.51a1.46,1.46,0,0,1,.53-.1c.78,0,1.4.7,2.21,1.93,1,1.49.62,2.88,3.21,5.86a11,11,0,0,0,7,4.08,4.1,4.1,0,0,0,.9.11c1.91,0,3.3-1.42,4.37-1.42l.17,0c1.25.2,2.32,1,2.23,1.69s-1.87,1.39-1.78,2.28,26.09,2.34,28,2.64-15.37,1.94-15.37,1.94l-4.74,4a9.9,9.9,0,0,0-3.3-1.29c-2.32-.62-2.56-1-7.49-1l-1.88,0c-4.43.06-7.87.55-10.57.55a10.3,10.3,0,0,1-3.72-.55,19.38,19.38,0,0,1-9.1-7.76c-2.32-3.87-3.57-5.66-2.95-6.66.43-.68.82-.94,1.28-.94a1.91,1.91,0,0,1,.69.15c.8.3,2.85,3.17,2.85,3.18h0s-2.94-4.28-2.59-5.17c.29-.72.81-1.44,1.51-1.44a1.23,1.23,0,0,1,.55.15,9.1,9.1,0,0,1,2.94,2.88,31.48,31.48,0,0,0,2.15,2.68l-3-4.47s-1.7-2.09-1.07-2.88a2,2,0,0,1,1.53-.89Zm0-.94a2.92,2.92,0,0,0-2.27,1.24,1.73,1.73,0,0,0-.32,1.37,2.1,2.1,0,0,0-.56-.08,2.73,2.73,0,0,0-2.38,2,1.65,1.65,0,0,0,0,1.25H867a2.52,2.52,0,0,0-2.08,1.38c-.85,1.37.09,2.92,2.15,6.33l.79,1.32a20.36,20.36,0,0,0,9.57,8.14,10.8,10.8,0,0,0,4.06.62c1.29,0,2.71-.1,4.35-.22,1.82-.14,3.89-.3,6.23-.33h1.87c3.92,0,4.71.23,6.15.66l1.1.31a10.6,10.6,0,0,1,3,1.12l.61.51.58-.52,4.51-3.79c16-1.53,16-1.73,16.07-2.77a1,1,0,0,0-.93-1c-.58-.09-2.92-.25-7-.54-5.91-.42-16.29-1.14-19.63-1.69l.1-.08a2.6,2.6,0,0,0,1.15-1.55c.17-1.39-1.4-2.49-3-2.74a1.73,1.73,0,0,0-.32,0,4.55,4.55,0,0,0-2,.66,5.38,5.38,0,0,1-2.38.76,2.65,2.65,0,0,1-.68-.09,10.09,10.09,0,0,1-6.48-3.77,10.54,10.54,0,0,1-2.3-3.95,7.93,7.93,0,0,0-.83-1.82c-.79-1.19-1.67-2.35-3-2.35a2.58,2.58,0,0,0-.85.15,1.73,1.73,0,0,0-1,.92,3.27,3.27,0,0,0,0,2.21,14.48,14.48,0,0,0-2.71-3.18,2.45,2.45,0,0,0-1.4-.45Z" class="color020202 svgShape"></path><path fill="#fffcf9" d="M878.28,378.56c1.35.45,5.42,1,7,1.63s20.63,2.49,20.63,2.49l19.74-3.36,1.3-4.62s-12.2-.82-12.85-.76-17.19-.78-17.19-.78-9.38.17-10.52.22S878.28,378.56,878.28,378.56Z" class="colorfff9ff svgShape"></path><path fill="#020202" d="M803.54 364.77a12.09 12.09 0 013.73 5.92.55.55 0 01-.39.68h-.14a.56.56 0 01-.53-.4 11.06 11.06 0 00-3.39-5.38.55.55 0 01.72-.83zM757.8 321.91a3.69 3.69 0 013.55.62 5.69 5.69 0 011.9 3.18 12.76 12.76 0 01.22 3.75 4.05 4.05 0 01-.5 2 1.5 1.5 0 01-1.79.66 2.36 2.36 0 01-.95-1.27C759.2 328.59 753.46 323.65 757.8 321.91z" class="color020202 svgShape"></path><path fill="#020202" d="M761.86,319.41a4,4,0,0,1,4.11.72,6.92,6.92,0,0,1,2.16,3.87,16.76,16.76,0,0,1,.2,4.59,5.29,5.29,0,0,1-.6,2.46,1.72,1.72,0,0,1-2.08.83,2.73,2.73,0,0,1-1.09-1.55C763.4,327.57,756.81,321.59,761.86,319.41Z" class="color020202 svgShape"></path><path fill="#020202" d="M765.71,317.26a4,4,0,0,1,4.1.73,6.85,6.85,0,0,1,2.17,3.86,16.85,16.85,0,0,1,.2,4.6,5.29,5.29,0,0,1-.6,2.46,1.73,1.73,0,0,1-2.09.83,2.8,2.8,0,0,1-1.08-1.55C767.25,325.43,760.66,319.45,765.71,317.26Z" class="color020202 svgShape"></path><path fill="#fffcf9" d="M757.56,320.1a3.69,3.69,0,0,1,3.55.62,5.69,5.69,0,0,1,1.9,3.18,12.74,12.74,0,0,1,.22,3.75,4,4,0,0,1-.5,2,1.5,1.5,0,0,1-1.79.66,2.36,2.36,0,0,1-1-1.27C759,326.78,753.22,321.84,757.56,320.1Z" class="colorfff9ff svgShape"></path><path fill="#020202" d="M761.42,330.9a1.58,1.58,0,0,1-.69-.16,2.71,2.71,0,0,1-1.16-1.48,14.72,14.72,0,0,0-1.45-2.14c-1.42-1.86-3-4-2.54-5.7a2.76,2.76,0,0,1,1.81-1.76h0a4.17,4.17,0,0,1,4,.69,6.15,6.15,0,0,1,2.07,3.44,13.4,13.4,0,0,1,.23,3.89,4.47,4.47,0,0,1-.57,2.24A2.15,2.15,0,0,1,761.42,330.9Zm-2.68-10.55a2.77,2.77,0,0,0-1,.18h0a1.91,1.91,0,0,0-1.26,1.14c-.35,1.28,1.17,3.28,2.39,4.88a13.81,13.81,0,0,1,1.55,2.3,2.05,2.05,0,0,0,.72,1,1,1,0,0,0,1.2-.49,3.67,3.67,0,0,0,.42-1.77,12.47,12.47,0,0,0-.21-3.62,5.2,5.2,0,0,0-1.73-2.92A3.46,3.46,0,0,0,758.74,320.35Z" class="color020202 svgShape"></path><path fill="#fffcf9" d="M761.62,317.59a4.07,4.07,0,0,1,4.11.73,6.89,6.89,0,0,1,2.16,3.86,16.85,16.85,0,0,1,.2,4.6,5.29,5.29,0,0,1-.6,2.46,1.72,1.72,0,0,1-2.08.83,2.8,2.8,0,0,1-1.09-1.55C763.16,325.76,756.57,319.78,761.62,317.59Z" class="colorfff9ff svgShape"></path><path fill="#020202" d="M766,330.66a1.72,1.72,0,0,1-.76-.17,3.13,3.13,0,0,1-1.29-1.76,16.77,16.77,0,0,0-1.67-2.62c-1.6-2.25-3.43-4.8-2.85-6.86a3.3,3.3,0,0,1,2-2.09,4.56,4.56,0,0,1,4.6.79,7.38,7.38,0,0,1,2.32,4.13,17,17,0,0,1,.21,4.73,5.61,5.61,0,0,1-.67,2.68A2.42,2.42,0,0,1,766,330.66ZM763,317.78a3,3,0,0,0-1.21.25h0a2.42,2.42,0,0,0-1.53,1.47c-.45,1.63,1.31,4.09,2.72,6.07a16.88,16.88,0,0,1,1.76,2.77,2.45,2.45,0,0,0,.86,1.31c.49.24,1.16-.15,1.47-.66a4.75,4.75,0,0,0,.53-2.24,16.23,16.23,0,0,0-.19-4.47,6.48,6.48,0,0,0-2-3.6A3.82,3.82,0,0,0,763,317.78Z" class="color020202 svgShape"></path><path fill="#fffcf9" d="M765.47,315.45a4,4,0,0,1,4.1.72,6.91,6.91,0,0,1,2.17,3.87,16.76,16.76,0,0,1,.2,4.59,5.3,5.3,0,0,1-.6,2.47,1.71,1.71,0,0,1-2.09.82,2.77,2.77,0,0,1-1.08-1.54C767,323.61,760.42,317.63,765.47,315.45Z" class="colorfff9ff svgShape"></path><path fill="#020202" d="M769.79,328.52a1.71,1.71,0,0,1-.75-.17,3.08,3.08,0,0,1-1.29-1.76,16.77,16.77,0,0,0-1.67-2.62c-1.61-2.25-3.43-4.8-2.86-6.86a3.29,3.29,0,0,1,2.07-2.09,4.49,4.49,0,0,1,4.59.79,7.38,7.38,0,0,1,2.32,4.13,17.39,17.39,0,0,1,.21,4.73,5.61,5.61,0,0,1-.67,2.68A2.42,2.42,0,0,1,769.79,328.52Zm-2.92-12.88a3,3,0,0,0-1.21.25h0a2.38,2.38,0,0,0-1.53,1.47c-.45,1.63,1.31,4.09,2.72,6.06a16.5,16.5,0,0,1,1.75,2.78,2.49,2.49,0,0,0,.87,1.3c.48.25,1.15-.14,1.47-.65a4.88,4.88,0,0,0,.53-2.25,16.54,16.54,0,0,0-.19-4.46,6.43,6.43,0,0,0-2-3.6A3.77,3.77,0,0,0,766.87,315.64Z" class="color020202 svgShape"></path></svg></g></svg>