<svg xmlns="http://www.w3.org/2000/svg" enable-background="new 0 0 2000 2000" viewBox="0 0 2000 2000" width="250" height="250"><path fill="#ffead5" fill-rule="evenodd" d="M1697.7 535.6C1583.5 280.8 1255.5 107.7 875 126.2c-466.5 23-835.4 325.3-823.8 675.7C57 973 152 1124 302.2 1230.6c114.3 254.8 442.2 427.9 822.7 409.4 466.5-23 835.4-325.3 823.8-675.7-5.4-171-100.8-321.6-251-428.7z" clip-rule="evenodd" class="colord5f0ff svgShape"></path><path fill="#ffefdf" fill-rule="evenodd" d="M1016.7 1936.9c478 0 867.7-23.1 867.7-51.7 0-28.3-389.7-51.7-867.7-51.7S149 1857 149 1885.3c0 28.6 389.7 51.6 867.7 51.6z" clip-rule="evenodd" class="colordfe6ff svgShape"></path><path fill="#c57e38" fill-rule="evenodd" d="M1745.5 327.4c-10.9 117.1-82.6 239.3-202.2 322.9s-258.8 109-372.7 79.2c11-117.2 82.6-239.3 202.2-322.9 119.6-83.7 258.9-109.1 372.7-79.2z" clip-rule="evenodd" class="color38c551 svgShape"></path><path fill="#c57e38" d="m1168.5 731 .2-1.7c11.5-122.2 87.4-243.5 203-324.4 115.7-81 255.7-110.7 374.3-79.5l1.7.4-.2 1.7c-11.4 122.2-87.3 243.4-203 324.4-115.7 80.9-255.6 110.6-374.3 79.5l-1.7-.4zm574.8-402.1c-117.2-30.2-255.1-.6-369.3 79.3-114.2 79.9-189.2 199.3-201.1 319.7 117.2 30.1 255.1.5 369.3-79.3 114.2-79.8 189.2-199.3 201.1-319.7z" class="color38c551 svgShape"></path><path fill="#ffffff" d="M1169 730.7c-.6-.9-.4-2.2.5-2.8l574.8-402.1c.9-.6 2.2-.4 2.8.5.6.9.4 2.2-.5 2.8l-574.8 402.1c-.9.6-2.2.4-2.8-.5z" class="colorfff svgShape"></path><path fill="#ffffff" d="M1643.8 398.5c-.2-.3-.3-.7-.4-1.1-.1-1.1.8-2.1 1.9-2.1l87.8-4.7c1.1-.1 2.1.8 2.1 1.9.1 1.1-.8 2.1-1.9 2.1l-87.8 4.7c-.6.1-1.3-.2-1.7-.8zM1570.9 449.5c-.3-.5-.5-1.1-.3-1.7l33-130.8c.3-1.1 1.4-1.8 2.5-1.5 1.1.3 1.8 1.4 1.5 2.5l-33 130.8c-.3 1.1-1.4 1.8-2.5 1.5-.5-.1-.9-.4-1.2-.8zM1493.9 503.4c-.3-.4-.4-1-.3-1.5.2-1.1 1.2-1.8 2.4-1.7l169.3 29.6c1.1.2 1.8 1.2 1.7 2.4-.2 1.1-1.2 1.8-2.4 1.7l-169.3-29.6c-.7-.2-1.1-.5-1.4-.9zM1374.2 587.1c-.3-.5-.5-1.1-.3-1.7l61.1-217.9c.3-1.1 1.4-1.7 2.5-1.4 1.1.3 1.7 1.4 1.4 2.5l-61.1 217.9c-.3 1.1-1.4 1.7-2.5 1.4-.5-.1-.9-.4-1.1-.8zM1288.9 646.8c-.3-.4-.4-1-.3-1.5.2-1.1 1.3-1.8 2.4-1.7l202.6 35.8c1.1.2 1.8 1.3 1.7 2.4-.2 1.1-1.3 1.8-2.4 1.7l-202.6-35.8c-.6-.2-1.1-.5-1.4-.9zM1227 690.1c-.3-.4-.4-.9-.3-1.5l25.1-167.1c.2-1.1 1.2-1.9 2.3-1.7 1.1.2 1.9 1.2 1.7 2.3l-25.1 167.1c-.2 1.1-1.2 1.9-2.3 1.7-.6-.1-1.1-.4-1.4-.8z" class="colorfff svgShape"></path><path fill="#eaa561" fill-rule="evenodd" d="M1255.1 65.7c82.1 84.2 128.7 218 114.9 363.2-13.8 145.3-84.7 267.8-181.2 335.1-82.1-84.3-128.7-218-114.9-363.2 13.7-145.3 84.7-267.8 181.2-335.1z" clip-rule="evenodd" class="color61ea75 svgShape"></path><path fill="#eaa561" d="m1188.5 766.7-1.2-1.2c-85.6-87.9-128.8-224.3-115.4-364.9C1085.3 260 1153.3 134.2 1254 64l1.4-1 1.2 1.2c85.6 87.9 128.8 224.3 115.4 364.9-13.4 140.5-81.4 266.3-182.1 336.6l-1.4 1zm66.3-698.3c-98.9 69.7-165.8 193.9-179 332.6-13.2 138.7 29.1 273.3 113.1 360.4 98.9-69.7 165.8-193.9 179-332.6 13.2-138.8-29.1-273.4-113.1-360.4z" class="color61ea75 svgShape"></path><path fill="#ffffff" d="M1188.5 766.1c-1.1-.1-1.9-1.1-1.8-2.2l66.4-698.3c.1-1.1 1.1-1.9 2.2-1.8 1.1.1 1.9 1.1 1.8 2.2l-66.4 698.3c-.1 1.1-1.1 1.9-2.2 1.8z" class="colorfff svgShape"></path><path fill="#ffffff" d="M1243.3 189.2c-.4 0-.7-.2-1-.4-.9-.7-1.1-2-.4-2.9l53.3-69.9c.7-.9 2-1.1 2.9-.4.9.7 1.1 2 .4 2.9l-53.3 69.9c-.5.6-1.2.9-1.9.8zM1234.9 277.8c-.6-.1-1.1-.3-1.5-.8l-78.2-109.8c-.7-.9-.4-2.2.5-2.8.9-.7 2.2-.4 2.8.5l78.2 109.8c.7.9.4 2.2-.5 2.8-.3.2-.8.3-1.3.3zM1226 371.4c-.5 0-1-.3-1.4-.7-.7-.9-.6-2.1.3-2.9l132.2-109.7c.9-.7 2.1-.6 2.9.3.7.9.6 2.2-.3 2.9L1227.5 371c-.4.3-1 .4-1.5.4zM1212.2 516.8c-.6-.1-1.1-.4-1.5-.9l-126.3-187.8c-.6-.9-.4-2.2.6-2.8.9-.6 2.2-.4 2.8.6l126.3 187.8c.6.9.4 2.2-.6 2.8-.4.2-.8.4-1.3.3zM1202.4 620.4c-.5 0-1-.3-1.4-.7-.7-.9-.6-2.2.3-2.9l158.6-131.1c.9-.7 2.2-.6 2.9.3.7.9.6 2.2-.3 2.9L1203.9 620c-.5.3-1 .4-1.5.4zM1195.2 695.6c-.5 0-1-.3-1.3-.7l-111-127.4c-.7-.8-.7-2.1.2-2.9.8-.7 2.1-.6 2.9.2l111 127.4c.7.8.7 2.1-.2 2.9-.5.4-1.1.5-1.6.5z" class="colorfff svgShape"></path><path fill="#c57e38" fill-rule="evenodd" d="M843.6 91.3c89 26.9 172.4 101.7 218.4 207.5s43.7 217.7 2.7 301.2c-89.1-27-172.4-101.7-218.4-207.5-46-105.9-43.7-217.8-2.7-301.2z" clip-rule="evenodd" class="color38c551 svgShape"></path><path fill="#c57e38" d="m1065.5 601.9-1.3-.4c-92.9-28.1-174.9-106-219.4-208.4s-45.5-215.5-2.6-302.6l.6-1.2 1.3.4c92.9 28.1 174.9 106 219.4 208.4s45.5 215.5 2.6 302.6l-.6 1.2zm-221-508.7c-41.8 86-40.6 197.5 3.3 298.6 43.9 101 124.6 178 216 206.2 41.8-86.1 40.6-197.6-3.3-298.6-43.9-101.1-124.6-178.1-216-206.2z" class="color38c551 svgShape"></path><path fill="#ffffff" d="M1065.3 601.4c-.8.4-1.8 0-2.1-.8l-221-508.7c-.4-.8 0-1.8.8-2.1.8-.4 1.8 0 2.1.8l221 508.7c.4.8 0 1.8-.8 2.1z" class="colorfff svgShape"></path><path fill="#ffffff" d="M882.7 181.2c-.3.1-.6.2-.9.1-.9-.1-1.5-.9-1.4-1.8l10.1-68.8c.1-.9.9-1.5 1.8-1.4.9.1 1.5.9 1.4 1.8l-10 68.9c-.1.6-.5 1-1 1.2zM910.8 245.7c-.4.2-.9.2-1.3 0l-96.1-46.1c-.8-.4-1.1-1.3-.8-2.1.4-.8 1.3-1.1 2.1-.8l96.1 46.1c.8.4 1.1 1.3.8 2.1-.2.4-.5.7-.8.8zM940.4 313.9c-.4.2-.8.2-1.2 0-.8-.3-1.2-1.3-.9-2.1l49.6-126.5c.3-.8 1.3-1.2 2.1-.9.8.3 1.2 1.3.9 2.1L941.2 313c-.1.4-.4.8-.8.9zM986.4 419.8c-.4.2-.9.2-1.4 0l-159.2-81.7c-.8-.4-1.1-1.4-.7-2.2.4-.8 1.4-1.1 2.2-.7l159.2 81.7c.8.4 1.1 1.4.7 2.2-.2.4-.5.6-.8.7zM1019.2 495.3c-.4.2-.8.2-1.2 0-.8-.3-1.2-1.3-.9-2.1l59.6-151.4c.3-.8 1.3-1.2 2.1-.9.8.3 1.2 1.3.9 2.1L1020 494.4c-.1.4-.4.7-.8.9zM1043 550.1c-.4.2-.8.2-1.2 0l-125.6-45.7c-.8-.3-1.3-1.2-1-2.1.3-.8 1.2-1.3 2.1-1l125.6 45.7c.8.3 1.3 1.2 1 2.1-.2.5-.5.8-.9 1z" class="colorfff svgShape"></path><path fill="#eaa561" fill-rule="evenodd" d="M563.6 430c78.2-50.4 189.1-65.4 299.5-31.8 110.4 33.6 194.1 107.8 231.1 193.2-78.3 50.3-189.1 65.4-299.5 31.8S600.6 515.4 563.6 430z" clip-rule="evenodd" class="color61ea75 svgShape"></path><path fill="#eaa561" d="m1096.3 592-1.1.7c-81.6 52.5-194.1 64.5-300.9 32-106.8-32.5-193.6-105.1-232.1-194.1l-.5-1.3 1.1-.7c81.6-52.5 194-64.5 300.9-32 106.8 32.5 193.5 105 232.1 194.1l.5 1.3zM565.7 430.6c38.4 87.6 124.1 159 229.5 191 105.4 32.1 216.3 20.5 297-30.9-38.5-87.6-124.2-159-229.5-191-105.4-32-216.3-20.5-297 30.9z" class="color61ea75 svgShape"></path><path fill="#ffffff" d="M1095.8 591.9c-.3.9-1.2 1.3-2 1.1L563.2 431.6c-.9-.3-1.3-1.2-1.1-2 .3-.9 1.2-1.3 2-1.1l530.6 161.4c.9.2 1.4 1.1 1.1 2z" class="colorfff svgShape"></path><path fill="#ffffff" d="M657.5 458.6c-.1.3-.2.5-.5.7-.7.6-1.7.5-2.3-.2L609 406.9c-.6-.7-.5-1.7.2-2.3.7-.6 1.7-.5 2.3.2l45.8 52.3c.2.4.4.9.2 1.5zM724.8 479c-.1.4-.4.8-.9 1l-97.4 43.3c-.8.4-1.8 0-2.1-.8-.4-.8 0-1.8.8-2.1l97.4-43.3c.8-.4 1.8 0 2.1.8.2.4.2.8.1 1.1zM795.9 500.7c-.1.4-.4.7-.8 1-.8.4-1.8.1-2.2-.7l-64.2-119.7c-.4-.8-.1-1.8.7-2.2.8-.4 1.8-.1 2.2.7l64.2 119.7c.2.3.2.8.1 1.2zM906.4 534.3c-.1.4-.5.8-.9 1l-165.4 68.3c-.8.3-1.8-.1-2.1-.9-.3-.8.1-1.8.9-2.1l165.4-68.3c.8-.3 1.8.1 2.1.9.1.3.1.7 0 1.1zM985.1 558.2c-.1.4-.4.7-.8 1-.8.4-1.8.1-2.2-.7L905.5 415c-.4-.8-.1-1.8.7-2.2.8-.4 1.8-.1 2.2.7L985 557c.2.4.2.8.1 1.2zM1042.2 575.6c-.1.4-.4.7-.7.9l-116.2 66c-.8.4-1.8.2-2.2-.6-.4-.8-.2-1.8.6-2.2l116.2-66c.8-.4 1.8-.2 2.2.6.2.4.3.9.1 1.3z" class="colorfff svgShape"></path><path fill="#a35406" fill-rule="evenodd" d="M725.4 538.6h894.4c32.4 0 58.8 26.4 58.8 58.8v1200.9c0 32.4-26.4 58.8-58.8 58.8H725.4c-32.4 0-58.8-26.4-58.8-58.8v-1201c.1-32.3 26.5-58.7 58.8-58.7z" clip-rule="evenodd" class="color0643a3 svgShape"></path><path fill="#fe952c" fill-rule="evenodd" d="M695.3 570.6h894.4c32.4 0 58.8 26.4 58.8 58.8v1201.3c0 32.4-26.4 58.8-58.8 58.8H695.3c-32.4 0-58.8-26.4-58.8-58.8V629.3c.1-32.3 26.5-58.7 58.8-58.7z" clip-rule="evenodd" class="color2c7efe svgShape"></path><path fill="#522a03" fill-rule="evenodd" d="M901.4 493.2h61.4c1.9-35 30.9-62.9 66.2-62.9h254c35.3 0 64.3 27.9 66.2 62.9h61.4c7.8 0 14.1 6.7 14.1 14.5v104.1c0 7.8-6.3 14.1-14.1 14.1H901.4c-7.8 0-14.1-6.3-14.1-14.1V507.7c-.1-7.8 6.3-14.5 14.1-14.5zm254.7-45.4c16.7 0 30.1 13.8 30.1 30.5s-13.4 30.1-30.1 30.1c-16.7 0-30.5-13.4-30.5-30.1 0-16.7 13.8-30.5 30.5-30.5z" clip-rule="evenodd" class="color060352 svgShape"></path><path fill="#c0650b" fill-rule="evenodd" d="M872.7 493.2h61.4c1.9-35 30.9-62.9 66.2-62.9h254c35.3 0 64.3 27.9 66.2 62.9h61.4c7.8 0 14.1 6.7 14.1 14.5v104.1c0 7.8-6.3 14.1-14.1 14.1H872.7c-7.8 0-14.1-6.3-14.1-14.1V507.7c0-7.8 6.3-14.5 14.1-14.5zm254.4-45.4c16.7 0 30.5 13.8 30.5 30.5s-13.8 30.1-30.5 30.1-30.1-13.4-30.1-30.1c0-16.7 13.4-30.5 30.1-30.5z" clip-rule="evenodd" class="color260bc0 svgShape"></path><path fill="#c58342" fill-rule="evenodd" d="M802.8 803.7h143.9c8.9 0 16.4 7.4 16.4 16.4v155.5c0 8.9-7.4 16.4-16.4 16.4H802.8c-8.9 0-16-7.4-16-16.4V820.1c0-8.9 7.1-16.4 16-16.4z" clip-rule="evenodd" class="color42c5a0 svgShape"></path><path fill="#ffffff" fill-rule="evenodd" d="M809.5 883.7c9.3-9.7 25.3-9.7 35 0l32 32 103-103c9.7-9.3 25.3-9.3 35 0 9.7 9.7 9.7 25.7 0 35L894.3 967.8c-4.8 4.8-11.2 7.4-17.9 7.4-6.3 0-13-2.6-17.9-7.4l-49.1-49.1c-9.6-9.7-9.6-25.3.1-35z" clip-rule="evenodd" class="colorfff svgShape"></path><path fill="#eaad71" fill-rule="evenodd" d="M802.8 1139.9h143.9c8.9 0 16.4 7.1 16.4 16v155.8c0 8.9-7.4 16.4-16.4 16.4H802.8c-8.9 0-16-7.4-16-16.4v-155.8c0-8.9 7.1-16 16-16z" clip-rule="evenodd" class="colorea718b svgShape"></path><path fill="#ffffff" fill-rule="evenodd" d="M809.5 1219.5c9.3-9.3 25.3-9.3 35 0l32 32.4 103-103c9.7-9.7 25.3-9.7 35 0s9.7 25.3 0 35L894.3 1304c-4.8 4.8-11.2 7.4-17.9 7.1-6.3.4-13-2.2-17.9-7.1l-49.1-49.5c-9.6-9.3-9.6-25.3.1-35z" clip-rule="evenodd" class="colorfff svgShape"></path><path fill="#c58342" fill-rule="evenodd" d="M802.8 1468h143.9c8.9 0 16.4 7.1 16.4 16v155.8c0 8.9-7.4 16.4-16.4 16.4H802.8c-8.9 0-16-7.4-16-16.4V1484c0-9 7.1-16 16-16z" clip-rule="evenodd" class="color42c5a0 svgShape"></path><path fill="#ffffff" fill-rule="evenodd" d="M809.5 1547.9c9.3-9.7 25.3-9.7 35 0l32 32 103-103c9.7-9.7 25.3-9.7 35 0s9.7 25.3 0 35L894.3 1632c-4.8 4.8-11.2 7.4-17.9 7.1-6.3.4-13-2.2-17.9-7.1l-49.1-49.5c-9.6-9.3-9.6-25.3.1-34.6zM1088.4 803.7h463.8c6.3 0 11.2 5.2 11.2 11.5v6.3c0 6.3-4.8 11.5-11.2 11.5h-463.8c-6 0-11.2-5.2-11.2-11.5v-6.3c.1-6.3 5.3-11.5 11.2-11.5zM1088.4 883.3h463.8c6.3 0 11.2 4.8 11.2 11.2v6.7c0 6.3-4.8 11.5-11.2 11.5h-463.8c-6 0-11.2-5.2-11.2-11.5v-6.7c.1-6.3 5.3-11.2 11.2-11.2zM1088.4 962.5h261.5c6.3 0 11.2 5.2 11.2 11.5v6.3c0 6.3-4.8 11.5-11.2 11.5h-261.5c-6 0-11.2-5.2-11.2-11.5V974c.1-6.2 5.3-11.5 11.2-11.5zM1088.4 1139.9h463.8c6.3 0 11.2 4.8 11.2 11.2v6.7c0 6.3-4.8 11.5-11.2 11.5h-463.8c-6 0-11.2-5.2-11.2-11.5v-6.7c.1-6.3 5.3-11.2 11.2-11.2zM1331.7 1219.2h220.5c6.3 0 11.2 5.2 11.2 11.5v6.3c0 6.3-4.8 11.5-11.2 11.5h-220.5c-6.3 0-11.2-5.2-11.2-11.5v-6.3c0-6.3 4.8-11.5 11.2-11.5zM1088.4 1298.8h261.5c6.3 0 11.2 5.2 11.2 11.5v6.3c0 6.3-4.8 11.5-11.2 11.5h-261.5c-6 0-11.2-5.2-11.2-11.5v-6.3c.1-6.3 5.3-11.5 11.2-11.5zM1088.4 1219.2h181.5c6.3 0 11.2 5.2 11.2 11.5v6.3c0 6.3-4.8 11.5-11.2 11.5h-181.5c-6 0-11.2-5.2-11.2-11.5v-6.3c.1-6.3 5.3-11.5 11.2-11.5zM1088.4 1468h463.8c6.3 0 11.2 4.8 11.2 11.2v6.7c0 6.3-4.8 11.5-11.2 11.5h-463.8c-6 0-11.2-5.2-11.2-11.5v-6.7c.1-6.4 5.3-11.2 11.2-11.2zM1088.4 1547.2h463.8c6.3 0 11.2 5.2 11.2 11.5v6.7c0 6-4.8 11.2-11.2 11.2h-463.8c-6 0-11.2-5.2-11.2-11.2v-6.7c.1-6.3 5.3-11.5 11.2-11.5zM1088.4 1626.8h385.3c6.3 0 11.5 5.2 11.5 11.5v6.3c0 6.3-5.2 11.5-11.5 11.5h-385.3c-6 0-11.2-5.2-11.2-11.5v-6.3c.1-6.3 5.3-11.5 11.2-11.5z" clip-rule="evenodd" class="colorfff svgShape"></path><path fill="#fecb99" fill-rule="evenodd" d="M1701.7 1516.1c16.2-36.4 72.9 19.2 77.6-5.9-3.6-36.7-52.4-126 34-159.4 159.3-58.4-.3 149.2 21.9 199.2 13.1 22.1 80.1-15.8 72.3 32.2-16.1 58.9-104.4 67-156.6 100.5-16.4-55.6-65.9-124.9-49.2-166.6z" clip-rule="evenodd" class="color9999fe svgShape"></path><path fill="#fee5cc" d="M1726.1 1770.7c-.2 0-.5 0-.7-.1-1.6-.4-2.6-2.1-2.2-3.7 9.5-37.6 24.4-83.7 38.8-128.3 15.7-48.6 31.9-98.9 42-140.2 11.1-45.8 13.1-74.6 6.1-88-.8-1.5-.2-3.3 1.3-4.1 1.5-.8 3.3-.2 4.1 1.3 17 32.6-14.4 129.9-47.7 232.9-14.4 44.5-29.2 90.5-38.7 127.9-.4 1.4-1.7 2.3-3 2.3z" class="colorccccfe svgShape"></path><path fill="#fee5cc" d="M1767.8 1633.4c-.5 0-1-.1-1.4-.3-1.5-.8-2.1-2.6-1.3-4.1 14.5-27.8 42.1-32.1 79.4-35.2 1.7-.1 3.1 1.1 3.3 2.8.1 1.7-1.1 3.1-2.8 3.3-40.9 3.4-62.5 9-74.5 32-.6.9-1.6 1.5-2.7 1.5zM1777.9 1602.1c-.2 0-.4 0-.6-.1-1.7-.3-2.7-1.9-2.4-3.5 4.6-24.7-22.2-60.6-36.4-66.4-1.6-.6-2.3-2.4-1.7-4 .6-1.6 2.4-2.3 4-1.7 16.4 6.7 45.3 44.9 40 73.1-.2 1.6-1.5 2.6-2.9 2.6z" class="colorccccfe svgShape"></path><path fill="#fee5cc" fill-rule="evenodd" d="M1565.8 1537.9c-3.7-43.8 80.8-20.4 71.8-47.2-23.1-33.5-118-93.7-52.4-172.1 122.6-141.5 79.4 144.3 127.5 180.6 24.4 14.4 68.9-58 87-7.5 15.9 65.4-64.9 120.5-97.4 180.6-45.5-44.8-130.2-85.3-136.5-134.4z" clip-rule="evenodd" class="colorccccfe svgShape"></path><path fill="#fecb99" d="M1723.8 1770.9c-1.3 0-2.6-.9-2.9-2.3-10.9-41.5-21.2-94-31.2-144.7-10.8-55.3-22-112.6-34.4-157.8-13.8-50.2-27.3-79.2-41.2-88.4-1.4-.9-1.8-2.8-.9-4.2.9-1.4 2.8-1.8 4.2-.9 15.5 10.2 29.4 39.4 43.8 91.9 12.5 45.4 23.7 102.8 34.5 158.2 9.9 50.7 20.2 103.1 31.1 144.4.4 1.6-.5 3.3-2.2 3.7-.2 0-.5.1-.8.1z" class="color9999fe svgShape"></path><path fill="#fecb99" d="M1690.7 1616c-1.6 0-3-1.3-3-3-.8-34.4 23.4-53.3 57.7-76.2 1.4-.9 3.3-.6 4.2.8.9 1.4.6 3.3-.8 4.2-37.8 25.3-55.7 42.4-55 71 0 1.7-1.3 3.1-3.1 3.2.1 0 0 0 0 0zM1683.7 1580.4c-1.3 0-2.5-.8-2.9-2.1-8.8-26.5-54.1-46.9-70.9-44.9-1.7.2-3.2-1-3.4-2.7-.2-1.7 1-3.2 2.7-3.4 9.7-1.2 26.6 3.8 41.9 12.3 10.7 5.9 29.5 18.6 35.5 36.7.5 1.6-.3 3.3-1.9 3.8-.4.2-.7.3-1 .3z" class="color9999fe svgShape"></path><path fill="#f8c796" fill-rule="evenodd" d="m1759.5 1873.3 27.4 13.5h-118.8l27.5-13.5z" clip-rule="evenodd" class="colorbe96f8 svgShape"></path><path fill="#fde6cf" fill-rule="evenodd" d="M1853.3 1761.1c-5.3 64.8-59.5 115.8-125.8 115.8-66.2 0-120.4-51-125.7-115.8h251.5z" clip-rule="evenodd" class="colordfcffd svgShape"></path><path fill="#ffffff" fill-rule="evenodd" d="M1699.1 1861.3c-42.6-6.2-77.2-43.4-83.3-91.1l9.7-.5c6.1 44.4 35.6 79.9 73.6 91.5v.1z" clip-rule="evenodd" class="colorfff svgShape"></path><path fill="#a35406" fill-rule="evenodd" d="m396.2 1375.7-96.6 16.3 4 455.6h66.6l29.5-273.7 22.6 273.7 62.3-1 4.6-487.2-89.1-21.3z" clip-rule="evenodd" class="color0643a3 svgShape"></path><path fill="#f69636" fill-rule="evenodd" d="m589.2 1277.2 24.1-31.7c10.2 2.4 18.3 4.9 28.9 4.9 11.6-8 31.2-24.5 35.6-16.5-1.3 4.4-15.6 15.9-16.5 22.3 6.6 8.9 40.9 2.4 73.5-3.2 10.3 0-5.4 21.4-54.8 31.2-18.6 4.1-52-9.3-90.8-7z" clip-rule="evenodd" class="colored835c svgShape"></path><path fill="#ffffff" fill-rule="evenodd" d="M319.6 1033.9c11-3.9 21.9-8.2 30.9-13.7 17.9 2.6 33 3.7 50.9 6.3 13.9-.6 34.2 10.4 45.7 20.4 5.5 6.4 10.5 14.9 15.3 24.7v311c-41.5 8.2-82.6 10.9-142.7 3.3v-352z" clip-rule="evenodd" class="colorfff svgShape"></path><path fill="#fec184" fill-rule="evenodd" d="m379.4 1030-42.1-9.9-17.4 6.7c6 14.9 12 29.7 18 44.6 7.8-24 23.4-31.1 41.5-41.4z" clip-rule="evenodd" class="color84b2fe svgShape"></path><path fill="#eaad71" fill-rule="evenodd" d="M368.3 1041.2c16.7 95.1 25.8 190.7 23.9 288.9l15.8 16c7.9-9.3 15.8-18.6 23.8-27.9-3.5-97.9-17.6-193.3-51.1-278l-12.4 1z" clip-rule="evenodd" class="colorea718b svgShape"></path><path fill="#fe952c" fill-rule="evenodd" d="M328.1 1023.7c50.9 121.2 57.8 286.7 51.8 431.4-30.9-1.1-66.8-6.2-112.2-16.9l22.8-100.6c-27.2-35.3-76.4-81.8-81.8-106-8-9.4 37.6-130.1 65.7-177 11.5-14.1 33-21.9 53.7-30.9zm-35 173.1-10.7 17.5c6.2 13.8 10.7 29.5 18.7 41.5-.6-19.4-5.3-39.3-8-59z" clip-rule="evenodd" class="color2c7efe svgShape"></path><path fill="#fec184" fill-rule="evenodd" d="M606.2 1238.1l11.1 3.5-6.7 44.4s-14.4-5.3-14.8-1.4c-.3 3.8 10.2-44.8 10.4-46.5zM385.5 1022.9l-9.3 10.3c13.1-.5 21.2 7.4 25.2 14.6l9.7 10.5 7.6-29.3-33.2-6.1z" clip-rule="evenodd" class="color84b2fe svgShape"></path><path fill="#fe952c" fill-rule="evenodd" d="M392 1023.8c38.7 135.8 57.9 285 63.6 425.7 13-2.9 26-6.5 39.6-10.5l-12-163.6 119.3 13.4 6.7-49.6-104.6-34.8c-19.2-54.1-34.9-130.1-57.7-162.3-8.3-8.9-38.4-17-54.9-18.3z" clip-rule="evenodd" class="color2c7efe svgShape"></path><path fill="#ce8f51" fill-rule="evenodd" d="m376.8 1056.6 5-5.1 5.1-5.2-3.3-6.4-3.4-6.4-7.1 1.2-7.1 1.1-1.1 7.2-1.1 7.1 6.5 3.3z" clip-rule="evenodd" class="colorce5178 svgShape"></path><path fill="#f69636" fill-rule="evenodd" d="m302.4 1338.3 24.6-21c4.7 8.7 9.5 17.5 14.3 26.2 18.2 12 26.7 31.6 24 46.4l-44.9 4.3c-2.4-12.4-7.2-24.9-4.9-38.7l-13.1-17.2z" clip-rule="evenodd" class="colored835c svgShape"></path><path fill="#fe952c" fill-rule="evenodd" d="m301 1373.5 69.9 7.6-6.7 61.6-69.9-7.7z" clip-rule="evenodd" class="color2c7efe svgShape"></path><path fill="#a35406" d="m371.4 1386.9-64.6-6.8.4-3.7 60.9 6.5.1-1.2-69-7 .4-3.6 72.6 7.3z" class="color0643a3 svgShape"></path><path fill="#fec184" fill-rule="evenodd" d="m291.5 1334.9 37.1-28.6 5.6 8.1-37.2 28.1z" clip-rule="evenodd" class="color84b2fe svgShape"></path><path fill="#a35406" d="M300.7 1148.9h2.2v71.1h-2.2z" transform="rotate(33.085 301.802 1184.482)" class="color0643a3 svgShape"></path><path fill="#a35406" d="M482.4 1276.1c-2.5-53.9-11.9-106.6-21.2-155.9l2.2-.4c9.3 49.4 18.7 102.2 21.2 156.2l-2.2.1z" class="color0643a3 svgShape"></path><path fill="#fe952c" fill-rule="evenodd" d="M324.9 1025.6c-3.9 21.7-5.3 51.4-5.3 73.3l18.1 2.9c-3.6 6.6-11.4 15.7-15 22.3l46.1 86.7 5.2 10.9c-3.8-36.2-11.6-82.7-20.8-122.2-6.8-26.7-15.1-51.3-25.1-75.1-1.1.5-2.2.7-3.2 1.2z" clip-rule="evenodd" class="color2c7efe svgShape"></path><path fill="#a35406" d="m376.3 1230.1-8.9-18.7L321 1124l.4-.7c1.9-3.4 4.8-7.4 7.6-11.3 2.3-3.1 4.6-6.4 6.3-9.2l-17.2-2.8v-1.2c0-10.4.4-46.6 5.3-73.5l.1-.8.7-.3c.7-.3 1.4-.5 2.1-.7.4-.1.8-.3 1.3-.4l1.3-.5.5 1.3c10.2 24.2 18.4 48.9 25.2 75.3 8.9 38.5 16.9 85.3 20.8 122.4l.9 8.5zm-51.9-106 45.7 86 1.5 3.1c-4.2-35.4-11.6-78-19.8-113.4-6.6-25.8-14.6-49.9-24.5-73.6h-.1c-.4.1-.7.2-1 .3-4.5 25.6-5.1 59.3-5.1 71l18.9 3-1 1.8c-1.9 3.4-4.8 7.4-7.6 11.3-2.6 3.7-5.3 7.4-7 10.5z" class="color0643a3 svgShape"></path><path fill="#fe952c" fill-rule="evenodd" d="m394.9 1024.9 32.3 48.3-4.9 14.3 7.8 4.7.9 104.2c-9.8-60.1-22.7-114.6-38.9-171.6 1 0 1.8 0 2.8.1z" clip-rule="evenodd" class="color2c7efe svgShape"></path><path fill="#a35406" d="M429.5 1196.6c-9.2-56.1-21.5-110.5-38.8-171.4l-.6-2 2 .1h1.1c.6 0 1.1 0 1.8.1l.7.1 33.1 49.5-4.8 13.8 7.5 4.5.9 105-2.9.3zm-35.4-170.3c15.2 53.7 26.6 102.5 35.3 151.8l-.7-85.1-8.2-4.9 5.1-14.7-31.5-47.1z" class="color0643a3 svgShape"></path><path fill="#8c5116" fill-rule="evenodd" d="m422.1 1844.5 62.9-1c28.1 27.9 87.8 6.8 79 49.9l-97.8-1.9-13.7-8.6-.3 9.7-33.6.8c-.7-15.4-.3-32.1 3.5-48.9z" clip-rule="evenodd" class="color16888c svgShape"></path><path fill="#c58342" fill-rule="evenodd" d="m304.7 1848 62.9-1c28.1 25.9 87.7 6.3 78.9 46.4l-97.7-1.8-13.7-8-.3 9-33.6.8c-.6-14.3-.3-29.9 3.5-45.4z" clip-rule="evenodd" class="color42c5a0 svgShape"></path><path fill="#ffb366" fill-rule="evenodd" d="m381.3 981.2-46.5 1.3 2 40.2c21.4 17 40.1 16.5 51 5.8l-6.5-47.3z" clip-rule="evenodd" class="colorff9866 svgShape"></path><path fill="#ffc081" fill-rule="evenodd" d="M305 902c31.1-8.2 62.3-16.4 93.5-24.6 13.2 17.2 25.1 96.5 11.5 118.6-16.9 27.8-58.5 17.6-72.8-3.5-14.4-19.3-35.4-70.2-32.2-90.5z" clip-rule="evenodd" class="colorffaa81 svgShape"></path><path fill="#a35406" fill-rule="evenodd" d="M339 917.5c16.4-27.6 50.6-2.1 66.9-9 11.9-11.6 24.6-44 3.1-72.4-11.3-17.4-30.7 8.2-46.5 9.9-12.6-.8-21.3-14.6-37.6-2.4l-18.3 20.8c-10.1-4.4-19.6 19-20 27.9-5.3 27.3 22.5 51.7 37.4 77.7 13-3.2 10.8-49.1 15-52.5z" clip-rule="evenodd" class="color0643a3 svgShape"></path><path fill="#ffc081" fill-rule="evenodd" d="M332.5 957.3c17.7-7.4 15.9-15.2 3.7-25.7-4.1-5.3-12-9.1-16-1.8-2.6 7.2 6.9 21.3 12.3 27.5z" clip-rule="evenodd" class="colorffaa81 svgShape"></path></svg>
